<svg width="16.973633" height="16.973633" viewBox="0 0 16.9736 16.9736" fill="none" xmlns="http://www.w3.org/2000/svg" xmlns:xlink="http://www.w3.org/1999/xlink">
	<desc>
			Created with Pixso.
	</desc>
	<defs/>
	<path id="call" d="M16.93 12.69C17.09 11.99 16.73 11.26 16.07 10.96L12.68 9.5C12.08 9.27 11.35 9.43 10.95 9.96L9.82 11.29C8.1 10.33 6.64 8.87 5.67 7.14L7.03 6.04C7.53 5.61 7.7 4.88 7.43 4.29L6 0.9C5.71 0.23 4.98 -0.13 4.28 0.04L1.16 0.77C0.46 0.9 0 1.5 0 2.23C0 10.36 6.6 16.97 14.74 16.97C15.47 16.97 16.07 16.5 16.23 15.81L16.93 12.69ZM15.9 12.45L15.17 15.57C15.14 15.77 14.97 15.94 14.74 15.94C7.2 15.94 1.06 9.76 1.06 2.23C1.06 1.99 1.19 1.83 1.39 1.79L4.51 1.06C4.54 1.06 4.58 1.03 4.61 1.03C4.78 1.03 4.94 1.16 5.04 1.33L6.47 4.68C6.54 4.88 6.5 5.08 6.34 5.21L4.68 6.58C4.48 6.74 4.41 7.01 4.54 7.24C5.64 9.46 7.5 11.32 9.76 12.42C9.96 12.55 10.22 12.49 10.39 12.29L11.75 10.63C11.88 10.46 12.08 10.43 12.28 10.49L15.63 11.92C15.83 12.02 15.97 12.22 15.9 12.45Z" fill="#FFFFFF" fill-opacity="1.000000" fill-rule="evenodd"/>
</svg>
