<svg width="16.794922" height="15.000000" viewBox="0 0 16.7949 15" fill="none" xmlns="http://www.w3.org/2000/svg" xmlns:xlink="http://www.w3.org/1999/xlink">
	<desc>
			Created with Pixso.
	</desc>
	<defs/>
	<path id="cart" d="M2.78 0.38C2.72 0.17 2.54 0 2.34 0L0.46 0C0.2 0 0 0.23 0 0.46C0 0.73 0.2 0.93 0.46 0.93L1.96 0.93L4.21 10.89C4.27 11.1 4.45 11.25 4.68 11.25L14.53 11.25C14.76 11.25 15 11.04 15 10.78C15 10.54 14.76 10.31 14.53 10.31L5.03 10.31L4.62 8.43L14.26 8.43C14.7 8.43 15.05 8.17 15.17 7.76L16.75 2.13C16.93 1.55 16.46 0.93 15.84 0.93L2.92 0.93L2.78 0.38ZM4.39 7.5L3.13 1.87L15.84 1.87L14.26 7.5L4.39 7.5ZM5.39 11.71C4.48 11.71 3.75 12.48 3.75 13.35C3.75 14.26 4.48 15 5.39 15C6.26 15 7.03 14.26 7.03 13.35C7.03 12.48 6.26 11.71 5.39 11.71ZM13.35 15C14.23 15 15 14.26 15 13.35C15 12.48 14.23 11.71 13.35 11.71C12.45 11.71 11.71 12.48 11.71 13.35C11.71 14.26 12.45 15 13.35 15ZM6.09 13.35C6.09 13.76 5.77 14.06 5.39 14.06C4.98 14.06 4.68 13.76 4.68 13.35C4.68 12.97 4.98 12.65 5.39 12.65C5.77 12.65 6.09 12.97 6.09 13.35ZM12.65 13.35C12.65 12.97 12.94 12.65 13.35 12.65C13.74 12.65 14.06 12.97 14.06 13.35C14.06 13.76 13.74 14.06 13.35 14.06C12.94 14.06 12.65 13.76 12.65 13.35Z" fill="#161413" fill-opacity="1.000000" fill-rule="evenodd"/>
</svg>
