<svg width="17.000000" height="12.750000" viewBox="0 0 17 12.75" fill="none" xmlns="http://www.w3.org/2000/svg" xmlns:xlink="http://www.w3.org/1999/xlink">
	<desc>
			Created with Pixso.
	</desc>
	<defs/>
	<path id="envelope" d="M17 2.12C17 0.96 16.03 0 14.87 0L2.12 0C0.92 0 0 0.96 0 2.12L0 10.62C0 11.82 0.92 12.75 2.12 12.75L14.87 12.75C16.03 12.75 17 11.82 17 10.62L17 2.12ZM1.06 2.12C1.06 1.56 1.52 1.06 2.12 1.06L14.87 1.06C15.43 1.06 15.93 1.56 15.93 2.12L15.93 3.35L9.42 8.2C8.86 8.63 8.1 8.63 7.53 8.2L1.06 3.32L1.06 2.12ZM15.93 4.64L15.93 10.62C15.93 11.22 15.43 11.68 14.87 11.68L2.12 11.68C1.52 11.68 1.06 11.22 1.06 10.62L1.06 4.64L6.9 9.03C7.37 9.39 7.93 9.59 8.5 9.59C9.03 9.59 9.59 9.39 10.09 9.03L15.93 4.64Z" fill="#FFFFFF" fill-opacity="1.000000" fill-rule="evenodd"/>
</svg>
