<svg width="40.000000" height="40.000000" viewBox="0 0 40 40" fill="none" xmlns="http://www.w3.org/2000/svg" xmlns:xlink="http://www.w3.org/1999/xlink">
	<desc>
			Created with Pixso.
	</desc>
	<defs/>
	<rect id="Icon/box" width="40.000000" height="40.000000" fill="#FFFFFF" fill-opacity="0"/>
	<mask id="mask_152_1832" fill="white">
		<path id="Shape" d="M25.6621 17.5173C25.9062 17.6449 26.209 17.5498 26.3359 17.3048C26.4648 17.0599 26.3691 16.7579 26.123 16.6304L25.6621 17.5173ZM11.123 8.81787C10.8789 8.69031 10.5762 8.78552 10.4492 9.0304C10.3223 9.27527 10.416 9.57727 10.6621 9.70483L11.123 8.81787ZM20.875 5.57178L21.127 5.13904L21.127 5.13904L20.875 5.57178ZM31.5898 11.775L31.3398 12.2078L31.3398 12.2078L31.5898 11.775ZM33.1719 13.3661L32.7363 13.6146L32.7363 13.6146L33.1719 13.3661ZM33.75 15.5465L33.25 15.5463L33.25 15.5465L33.75 15.5465ZM33.75 25.7035L33.25 25.7035L33.25 25.7036L33.75 25.7035ZM33.1719 27.8838L32.7363 27.6353L32.7363 27.6354L33.1719 27.8838ZM31.5898 29.4749L31.3398 29.0421L31.3398 29.0422L31.5898 29.4749ZM20.875 35.6781L21.127 36.1108L21.127 36.1108L20.875 35.6781ZM16.625 35.6781L16.373 36.1108L16.373 36.1108L16.625 35.6781ZM5.91016 29.4749L6.16016 29.0422L6.16016 29.0421L5.91016 29.4749ZM4.32812 27.8838L3.89453 28.1323L3.89453 28.1323L4.32812 27.8838ZM3.75 25.7035L4.25 25.7035L4.25 25.7035L3.75 25.7035ZM3.75 15.5465L4.25 15.5465L4.25 15.5464L3.75 15.5465ZM4.32812 13.3661L3.89453 13.1176L3.89453 13.1177L4.32812 13.3661ZM5.91016 11.775L6.16016 12.2078L6.16016 12.2078L5.91016 11.775ZM16.625 5.57178L16.373 5.13904L16.373 5.13904L16.625 5.57178ZM26.123 16.6304L11.123 8.81787L10.6621 9.70483L25.6621 17.5173L26.123 16.6304ZM20.625 6.00452L31.3398 12.2078L31.8398 11.3423L21.127 5.13904L20.625 6.00452ZM31.3398 12.2078C31.9199 12.5431 32.4004 13.0282 32.7363 13.6146L33.6055 13.1177C33.1816 12.3793 32.5742 11.7666 31.8398 11.3423L31.3398 12.2078ZM32.7363 13.6146C33.0723 14.201 33.25 14.8674 33.25 15.5463L34.25 15.5466C34.25 14.6938 34.0273 13.8558 33.6055 13.1176L32.7363 13.6146ZM33.25 15.5465L33.25 25.7035L34.25 25.7035L34.25 15.5465L33.25 15.5465ZM33.25 25.7036C33.25 26.3824 33.0723 27.0488 32.7363 27.6353L33.6055 28.1323C34.0273 27.3939 34.25 26.556 34.25 25.7034L33.25 25.7036ZM32.7363 27.6354C32.4004 28.2218 31.9199 28.7069 31.3398 29.0421L31.8398 29.9077C32.5742 29.4834 33.1816 28.8707 33.6055 28.1322L32.7363 27.6354ZM31.3398 29.0422L20.625 35.2454L21.127 36.1108L31.8398 29.9076L31.3398 29.0422ZM20.625 35.2454C20.0547 35.5762 19.4082 35.75 18.75 35.75L18.75 36.75C19.584 36.75 20.4023 36.5295 21.127 36.1108L20.625 35.2454ZM18.75 35.75C18.0938 35.75 17.4473 35.5762 16.875 35.2454L16.373 36.1108C17.0977 36.5295 17.916 36.75 18.75 36.75L18.75 35.75ZM16.875 35.2454L6.16016 29.0422L5.66016 29.9076L16.373 36.1108L16.875 35.2454ZM6.16016 29.0421C5.58008 28.7069 5.09961 28.2218 4.76367 27.6354L3.89453 28.1323C4.31836 28.8707 4.92578 29.4834 5.66016 29.9077L6.16016 29.0421ZM4.76367 27.6354C4.42773 27.0488 4.25 26.3824 4.25 25.7035L3.25 25.7034C3.25 26.556 3.47266 27.3939 3.89453 28.1323L4.76367 27.6354ZM4.25 25.7035L4.25 15.5465L3.25 15.5465L3.25 25.7035L4.25 25.7035ZM4.25 15.5464C4.25 14.8674 4.42773 14.201 4.76367 13.6146L3.89453 13.1177C3.47266 13.8558 3.25 14.6938 3.25 15.5465L4.25 15.5464ZM4.76367 13.6146C5.09961 13.0282 5.58008 12.5431 6.16016 12.2078L5.66016 11.3423C4.92578 11.7666 4.31836 12.3793 3.89453 13.1176L4.76367 13.6146ZM6.16016 12.2078L16.875 6.00452L16.373 5.13904L5.66016 11.3423L6.16016 12.2078ZM16.875 6.00452C17.4473 5.67371 18.0918 5.5 18.75 5.5L18.75 4.5C17.916 4.5 17.0977 4.72046 16.373 5.13904L16.875 6.00452ZM18.75 5.5C19.4082 5.5 20.0547 5.67371 20.625 6.00452L21.127 5.13904C20.4023 4.72046 19.584 4.5 18.75 4.5L18.75 5.5Z" fill="" fill-opacity="1.000000" fill-rule="nonzero"/>
	</mask>
	<path id="Shape" d="M25.8926 17.0739Q25.8926 17.0739 25.8926 17.0739L25.8926 17.0739L25.8926 17.0739L26.123 16.6304L26.5664 16.8613L26.1055 17.7483L25.6621 17.5173L25.8926 17.0739ZM25.4316 17.9608Q25.388 17.9381 25.3496 17.9072Q25.3112 17.8764 25.2795 17.8387Q25.2479 17.8009 25.2242 17.7578Q25.2005 17.7146 25.1856 17.6676Q25.1708 17.6206 25.1654 17.5717Q25.16 17.5227 25.1643 17.4737Q25.1686 17.4246 25.1823 17.3773Q25.196 17.3301 25.2188 17.2864L25.6797 16.3994Q25.7026 16.3557 25.7335 16.3173Q25.7645 16.2789 25.8024 16.2473Q25.8402 16.2156 25.8835 16.192Q25.9268 16.1683 25.9739 16.1535Q26.021 16.1387 26.07 16.1333Q26.119 16.128 26.1681 16.1323Q26.2172 16.1366 26.2645 16.1504Q26.3118 16.1641 26.3555 16.1869Q26.5352 16.2808 26.6641 16.4368Q26.7871 16.587 26.8457 16.7733Q26.9062 16.9597 26.8906 17.1541Q26.873 17.3557 26.7793 17.5358Q26.6855 17.7159 26.5293 17.8447Q26.3789 17.9689 26.1934 18.0276Q26.0078 18.0863 25.8125 18.0708Q25.6113 18.0546 25.4316 17.9608ZM10.8926 9.26135L10.8926 9.26135L10.8926 9.26135L10.6621 9.70483L10.2188 9.47388L10.6797 8.58691L11.123 8.81787L10.8926 9.26135ZM11.3555 8.37439Q11.3991 8.39715 11.4375 8.42799Q11.4759 8.45883 11.5074 8.49657Q11.539 8.5343 11.5626 8.57749Q11.5862 8.62067 11.6009 8.66764Q11.6156 8.71461 11.6208 8.76357Q11.626 8.81252 11.6216 8.86157Q11.6172 8.91062 11.6032 8.95789Q11.5893 9.00516 11.5664 9.04883L11.1055 9.93579Q11.0828 9.97947 11.052 10.0179Q11.0212 10.0563 10.9835 10.0879Q10.9458 10.1196 10.9027 10.1433Q10.8596 10.1669 10.8126 10.1817Q10.7657 10.1965 10.7168 10.2019Q10.6679 10.2072 10.6188 10.2029Q10.5698 10.1986 10.5226 10.1849Q10.4753 10.1711 10.4316 10.1483Q10.25 10.0544 10.1211 9.89856Q9.99805 9.74817 9.93945 9.56189Q9.88086 9.37549 9.89648 9.18115Q9.91211 8.97961 10.0059 8.79944Q10.0996 8.61926 10.2559 8.49048Q10.4062 8.36633 10.5918 8.30762Q10.7793 8.2489 10.9727 8.2644Q11.1738 8.28064 11.3555 8.37439ZM20.4434 5.32129L20.6934 4.88855L21.127 5.13904L20.877 5.573L20.877 5.573L21.127 5.13904L21.5586 5.38953L21.3086 5.82227L20.875 5.57178L20.4434 5.32129ZM21.3086 5.82227Q21.284 5.86489 21.2515 5.90188Q21.219 5.93887 21.1799 5.9688Q21.1408 5.99874 21.0966 6.02047Q21.0524 6.0422 21.0048 6.0549Q20.9572 6.06759 20.908 6.07075Q20.8588 6.07392 20.81 6.06744Q20.7611 6.06095 20.7144 6.04507Q20.6677 6.02919 20.625 6.00452Q20.5825 5.97985 20.5456 5.94733Q20.5087 5.91482 20.4788 5.87572Q20.449 5.83661 20.4273 5.79242Q20.4057 5.74823 20.393 5.70065Q20.3804 5.65306 20.3772 5.60392Q20.3741 5.55478 20.3805 5.50596Q20.387 5.45714 20.4029 5.41053Q20.4187 5.36391 20.4434 5.32129L20.6934 4.88855Q20.718 4.84606 20.7505 4.80917Q20.7829 4.77228 20.8219 4.7424Q20.8609 4.71251 20.905 4.69077Q20.9491 4.66903 20.9965 4.65627Q21.044 4.64351 21.093 4.64022Q21.142 4.63692 21.1907 4.64321Q21.2394 4.64951 21.2859 4.66516Q21.3324 4.6808 21.375 4.7052L21.375 4.7052Q21.375 4.70581 21.377 4.70642Q21.4195 4.73109 21.4564 4.7636Q21.4932 4.79611 21.5231 4.83522Q21.553 4.87432 21.5746 4.91851Q21.5963 4.96271 21.6089 5.01029Q21.6216 5.05787 21.6247 5.10702Q21.6279 5.15616 21.6214 5.20498Q21.6149 5.2538 21.5991 5.30041Q21.5832 5.34703 21.5586 5.38965L21.3086 5.82227ZM32.0234 12.0255L31.7715 12.4583L31.3398 12.2078L31.5898 11.7748L31.5898 11.7748L31.3398 12.2078L30.9062 11.9573L31.1582 11.5245L31.5898 11.775L32.0234 12.0255ZM31.1582 11.5245Q31.1828 11.4819 31.2153 11.4449Q31.2477 11.4079 31.2867 11.378Q31.3258 11.3481 31.3698 11.3263Q31.4139 11.3046 31.4614 11.2919Q31.5089 11.2792 31.5579 11.276Q31.6069 11.2729 31.6556 11.2794Q31.7043 11.2858 31.7508 11.3017Q31.7973 11.3176 31.8398 11.3423Q31.8825 11.3669 31.9196 11.3994Q31.9567 11.4319 31.9867 11.471Q32.0168 11.5101 32.0386 11.5543Q32.0604 11.5985 32.0732 11.6461Q32.086 11.6936 32.0893 11.7428Q32.0925 11.7919 32.0861 11.8407Q32.0797 11.8895 32.0639 11.9362Q32.0481 11.9828 32.0234 12.0254L31.7715 12.4583Q31.7469 12.5008 31.7144 12.5378Q31.682 12.5748 31.643 12.6047Q31.6039 12.6346 31.5598 12.6564Q31.5158 12.6781 31.4683 12.6908Q31.4208 12.7035 31.3718 12.7067Q31.3228 12.7099 31.2741 12.7035Q31.2254 12.697 31.1789 12.6812Q31.1324 12.6654 31.0898 12.6407L31.0898 12.6406Q31.0898 12.6405 31.0898 12.6404Q31.0471 12.6157 31.0101 12.5832Q30.973 12.5507 30.9429 12.5116Q30.9129 12.4725 30.8911 12.4283Q30.8693 12.3841 30.8565 12.3365Q30.8437 12.2889 30.8404 12.2398Q30.8372 12.1906 30.8436 12.1418Q30.85 12.093 30.8658 12.0464Q30.8816 11.9998 30.9062 11.9572L31.1582 11.5245ZM33.4199 13.8L32.9863 14.0485L32.7363 13.6146L33.1738 13.3707L33.1738 13.3708L32.7363 13.6146L32.4883 13.1809L32.9219 12.9323L33.1719 13.3661L33.4199 13.8ZM32.9219 12.9323Q32.9646 12.9078 33.0113 12.8921Q33.058 12.8765 33.1068 12.8702Q33.1557 12.8639 33.2049 12.8673Q33.2541 12.8707 33.3017 12.8836Q33.3493 12.8965 33.3935 12.9184Q33.4377 12.9404 33.4768 12.9705Q33.5159 13.0006 33.5484 13.0377Q33.5808 13.0748 33.6055 13.1176Q33.6299 13.1603 33.6455 13.207Q33.6612 13.2536 33.6674 13.3025Q33.6736 13.3513 33.6702 13.4005Q33.6668 13.4496 33.6539 13.4971Q33.6409 13.5446 33.619 13.5887Q33.5971 13.6328 33.567 13.6718Q33.5369 13.7108 33.4997 13.7431Q33.4626 13.7754 33.4199 13.7999L32.9863 14.0485Q32.9824 14.0499 32.9805 14.0511Q32.9376 14.0752 32.8908 14.0903Q32.844 14.1055 32.7952 14.1113Q32.7464 14.117 32.6973 14.1131Q32.6483 14.1092 32.601 14.0958Q32.5536 14.0823 32.5098 14.0599Q32.466 14.0375 32.4274 14.007Q32.3887 13.9765 32.3568 13.939Q32.3248 13.9015 32.3008 13.8585L32.3008 13.8584Q32.2768 13.8157 32.2616 13.7692Q32.2464 13.7227 32.2405 13.6741Q32.2346 13.6256 32.2383 13.5768Q32.2419 13.528 32.255 13.4809Q32.268 13.4338 32.2899 13.3901Q32.3119 13.3463 32.3419 13.3077Q32.3719 13.2691 32.4089 13.237Q32.4458 13.205 32.4883 13.1807L32.9219 12.9323ZM33.75 16.0465L33.25 16.0463L33.25 15.5463L33.75 15.5463L33.75 15.5465L33.25 15.5465L33.25 15.0465L33.75 15.0465L33.75 15.5465L33.75 16.0465ZM33.75 15.0465Q33.7993 15.0465 33.8475 15.0561Q33.8959 15.0658 33.9413 15.0846Q33.9868 15.1035 34.0278 15.1308Q34.0687 15.1582 34.1036 15.193Q34.1384 15.2278 34.1657 15.2688Q34.1931 15.3097 34.2119 15.3552Q34.2308 15.4007 34.2404 15.449Q34.25 15.4973 34.25 15.5465Q34.25 15.5958 34.2404 15.6441Q34.2308 15.6924 34.2119 15.7378Q34.1931 15.7833 34.1657 15.8243Q34.1384 15.8652 34.1035 15.9001Q34.0687 15.9349 34.0278 15.9622Q33.9868 15.9896 33.9413 16.0084Q33.8958 16.0273 33.8475 16.0369Q33.7992 16.0465 33.75 16.0465L33.25 16.0465Q33.2008 16.0465 33.1525 16.0369Q33.1041 16.0273 33.0587 16.0084Q33.0132 15.9896 32.9722 15.9622Q32.9313 15.9349 32.8964 15.9001Q32.8616 15.8652 32.8343 15.8243Q32.8069 15.7833 32.7881 15.7378Q32.7692 15.6924 32.7596 15.6441Q32.75 15.5958 32.75 15.5465L32.75 15.5463Q32.75 15.5463 32.75 15.5461Q32.75 15.4969 32.7596 15.4486Q32.7692 15.4003 32.7881 15.3548Q32.8069 15.3093 32.8343 15.2684Q32.8616 15.2274 32.8964 15.1926Q32.9313 15.1578 32.9722 15.1305Q33.0132 15.1031 33.0587 15.0843Q33.1041 15.0654 33.1525 15.0558Q33.2008 15.0463 33.25 15.0463L33.75 15.0465ZM33.75 26.2035L33.25 26.2035L33.25 25.7035L33.75 25.7035L33.75 25.7036L33.25 25.7036L33.25 25.2036L33.75 25.2035L33.75 25.7035L33.75 26.2035ZM33.75 25.2035Q33.7993 25.2035 33.8475 25.2131Q33.8959 25.2227 33.9413 25.2415Q33.9868 25.2604 34.0278 25.2877Q34.0687 25.3151 34.1036 25.3499Q34.1384 25.3847 34.1657 25.4256Q34.1931 25.4666 34.2119 25.5121Q34.2308 25.5575 34.2404 25.6058Q34.25 25.6541 34.25 25.7034Q34.25 25.7526 34.2404 25.8009Q34.2308 25.8492 34.2119 25.8947Q34.1931 25.9402 34.1657 25.9812Q34.1384 26.0221 34.1035 26.057Q34.0687 26.0918 34.0278 26.1192Q33.9868 26.1465 33.9413 26.1654Q33.8958 26.1842 33.8475 26.1939Q33.7992 26.2035 33.75 26.2035L33.25 26.2036Q33.25 26.2036 33.25 26.2036Q33.2008 26.2036 33.1525 26.194Q33.1041 26.1844 33.0587 26.1656Q33.0132 26.1467 32.9722 26.1193Q32.9313 26.092 32.8964 26.0572Q32.8616 26.0223 32.8343 25.9814Q32.8069 25.9404 32.7881 25.895Q32.7692 25.8495 32.7596 25.8012Q32.75 25.7529 32.75 25.7036L32.75 25.7035Q32.75 25.6542 32.7596 25.6059Q32.7692 25.5576 32.7881 25.5121Q32.8069 25.4667 32.8343 25.4257Q32.8616 25.3848 32.8964 25.3499Q32.9313 25.3151 32.9722 25.2878Q33.0132 25.2604 33.0587 25.2416Q33.1041 25.2227 33.1525 25.2131Q33.2008 25.2035 33.25 25.2035L33.75 25.2035ZM32.9219 28.3176L32.4883 28.0691L32.7363 27.6353L33.1699 27.8867L33.1699 27.8868L32.7363 27.6354L32.9863 27.2014L33.4199 27.45L33.1719 27.8838L32.9219 28.3176ZM33.4199 27.45Q33.4626 27.4744 33.4998 27.5068Q33.5369 27.5391 33.567 27.5781Q33.5971 27.617 33.619 27.6611Q33.641 27.7052 33.6539 27.7527Q33.6668 27.8002 33.6702 27.8494Q33.6736 27.8985 33.6674 27.9473Q33.6612 27.9961 33.6455 28.0428Q33.6299 28.0895 33.6055 28.1322Q33.581 28.1749 33.5487 28.2121Q33.5164 28.2492 33.4774 28.2794Q33.4384 28.3095 33.3943 28.3314Q33.3501 28.3534 33.3025 28.3663Q33.2549 28.3792 33.2057 28.3826Q33.1564 28.386 33.1074 28.3798Q33.0584 28.3735 33.0116 28.3579Q32.9648 28.3422 32.9219 28.3177L32.4883 28.0693Q32.4863 28.0684 32.4863 28.0675Q32.4436 28.0427 32.4066 28.0101Q32.3695 27.9775 32.3396 27.9384Q32.3096 27.8992 32.2879 27.855Q32.2662 27.8107 32.2535 27.7631Q32.2409 27.7155 32.2378 27.6664Q32.2347 27.6172 32.2413 27.5684Q32.2479 27.5196 32.2639 27.473Q32.2799 27.4265 32.3047 27.3839L32.3047 27.3838Q32.3294 27.3414 32.3618 27.3046Q32.3943 27.2679 32.4333 27.2381Q32.4723 27.2083 32.5163 27.1867Q32.5604 27.165 32.6078 27.1523Q32.6552 27.1396 32.7042 27.1364Q32.7532 27.1331 32.8019 27.1395Q32.8506 27.1458 32.8972 27.1614Q32.9437 27.177 32.9863 27.2014L33.4199 27.45ZM31.1562 29.7253L30.9062 29.2925L31.3398 29.0421L31.5918 29.4742L31.5918 29.4742L31.3398 29.0422L31.7715 28.7916L32.0234 29.2244L31.5898 29.4749L31.1562 29.7253ZM32.0234 29.2245Q32.0481 29.2671 32.0639 29.3137Q32.0797 29.3603 32.0861 29.4091Q32.0925 29.4579 32.0893 29.5071Q32.086 29.5562 32.0732 29.6038Q32.0604 29.6513 32.0386 29.6955Q32.0168 29.7397 31.9868 29.7788Q31.9567 29.8179 31.9196 29.8504Q31.8826 29.8829 31.8398 29.9076Q31.7973 29.9323 31.7508 29.9481Q31.7043 29.964 31.6556 29.9705Q31.6069 29.977 31.5579 29.9738Q31.5089 29.9707 31.4614 29.958Q31.4139 29.9453 31.3698 29.9236Q31.3257 29.9019 31.2867 29.8719Q31.2477 29.842 31.2153 29.805Q31.1828 29.7681 31.1582 29.7255L30.9062 29.2927Q30.8816 29.2502 30.8657 29.2036Q30.8499 29.1571 30.8434 29.1083Q30.8369 29.0596 30.84 29.0105Q30.8432 28.9614 30.8558 28.9139Q30.8684 28.8664 30.8901 28.8222Q30.9118 28.7781 30.9416 28.739Q30.9715 28.6999 31.0084 28.6674Q31.0453 28.6348 31.0879 28.6101L31.0879 28.61Q31.0879 28.6096 31.0898 28.6094Q31.1324 28.5847 31.1789 28.5688Q31.2254 28.5529 31.274 28.5465Q31.3227 28.54 31.3718 28.5432Q31.4208 28.5463 31.4683 28.559Q31.5158 28.5717 31.5598 28.5935Q31.6039 28.6152 31.643 28.6452Q31.682 28.6751 31.7144 28.7121Q31.7469 28.7491 31.7715 28.7917L32.0234 29.2245ZM21.3086 35.4276L21.5586 35.8604L21.127 36.1108L20.8574 35.689L20.8574 35.689L21.127 36.1108L20.6934 36.3613L20.4434 35.9286L20.875 35.6781L21.3086 35.4276ZM20.4434 35.9286Q20.4187 35.886 20.4029 35.8394Q20.387 35.7927 20.3805 35.7439Q20.3741 35.6951 20.3772 35.646Q20.3804 35.5968 20.393 35.5492Q20.4057 35.5016 20.4273 35.4575Q20.449 35.4133 20.4788 35.3742Q20.5087 35.3351 20.5456 35.3025Q20.5825 35.27 20.625 35.2454Q20.6677 35.2207 20.7144 35.2048Q20.7611 35.1889 20.81 35.1824Q20.8588 35.176 20.908 35.1791Q20.9572 35.1823 21.0048 35.195Q21.0524 35.2077 21.0966 35.2294Q21.1408 35.2511 21.1799 35.2811Q21.219 35.311 21.2515 35.348Q21.284 35.385 21.3086 35.4276L21.5586 35.8602Q21.5826 35.9017 21.5983 35.947Q21.614 35.9923 21.6208 36.0397Q21.6276 36.0872 21.6253 36.135Q21.623 36.1829 21.6117 36.2295Q21.6003 36.276 21.5803 36.3196Q21.5603 36.3631 21.5324 36.4021Q21.5045 36.441 21.4697 36.4739Q21.4349 36.5069 21.3945 36.5326L21.3945 36.5326Q21.3867 36.5383 21.377 36.5436Q21.3342 36.5682 21.2876 36.5841Q21.2409 36.6 21.192 36.6065Q21.1431 36.613 21.0939 36.6098Q21.0447 36.6066 20.9971 36.594Q20.9495 36.5813 20.9053 36.5595Q20.8611 36.5378 20.822 36.5079Q20.7829 36.4779 20.7505 36.4409Q20.718 36.404 20.6934 36.3613L20.4434 35.9286ZM17.0566 35.9286L16.8066 36.3613L16.373 36.1108L16.6211 35.6766L16.6211 35.6768L16.373 36.1108L15.9414 35.8604L16.1914 35.4276L16.625 35.6781L17.0566 35.9286ZM16.1914 35.4276Q16.216 35.385 16.2485 35.348Q16.281 35.311 16.3201 35.2811Q16.3592 35.2511 16.4034 35.2294Q16.4476 35.2077 16.4952 35.195Q16.5428 35.1823 16.592 35.1791Q16.6412 35.176 16.69 35.1824Q16.7389 35.1889 16.7856 35.2048Q16.8323 35.2207 16.875 35.2454Q16.9175 35.27 16.9544 35.3025Q16.9913 35.3351 17.0211 35.3742Q17.051 35.4133 17.0727 35.4575Q17.0943 35.5016 17.107 35.5492Q17.1196 35.5968 17.1228 35.646Q17.1259 35.6951 17.1195 35.7439Q17.113 35.7927 17.0971 35.8394Q17.0813 35.886 17.0566 35.9286L16.8066 36.3613Q16.782 36.4038 16.7495 36.4407Q16.7171 36.4775 16.6781 36.5074Q16.6391 36.5373 16.595 36.559Q16.5509 36.5808 16.5035 36.5936Q16.4561 36.6063 16.4071 36.6097Q16.3581 36.613 16.3094 36.6067Q16.2607 36.6005 16.2141 36.5849Q16.1676 36.5693 16.125 36.5449L16.125 36.5449Q16.125 36.5442 16.123 36.5435Q16.0805 36.5188 16.0436 36.4863Q16.0067 36.4538 15.9769 36.4147Q15.947 36.3755 15.9254 36.3314Q15.9037 36.2872 15.8911 36.2396Q15.8784 36.192 15.8753 36.1429Q15.8721 36.0937 15.8786 36.0449Q15.8851 35.9961 15.9009 35.9495Q15.9168 35.9028 15.9414 35.8602L16.1914 35.4276ZM5.47656 29.2244L5.72852 28.7916L6.16016 29.0422L5.9082 29.4734L5.9082 29.4733L6.16016 29.0421L6.59375 29.2925L6.3418 29.7253L5.91016 29.4749L5.47656 29.2244ZM6.3418 29.7255Q6.31717 29.7681 6.28473 29.805Q6.25228 29.842 6.21327 29.8719Q6.17425 29.9019 6.13016 29.9236Q6.08607 29.9453 6.0386 29.958Q5.99113 29.9707 5.9421 29.9739Q5.89307 29.977 5.84438 29.9706Q5.79568 29.9641 5.74917 29.9482Q5.70267 29.9324 5.66016 29.9077Q5.61745 29.883 5.58037 29.8505Q5.54329 29.818 5.51326 29.7789Q5.48322 29.7398 5.4614 29.6956Q5.43957 29.6514 5.42678 29.6038Q5.414 29.5563 5.41074 29.5071Q5.40749 29.458 5.4139 29.4092Q5.4203 29.3603 5.43612 29.3137Q5.45194 29.2671 5.47656 29.2245L5.72852 28.7917Q5.72852 28.7903 5.72852 28.7889Q5.75352 28.7465 5.78634 28.7097Q5.81916 28.6729 5.85854 28.6432Q5.89791 28.6135 5.94232 28.5921Q5.98673 28.5706 6.03448 28.5582Q6.08222 28.5458 6.13146 28.543Q6.18071 28.5401 6.22955 28.5469Q6.2784 28.5537 6.32497 28.5699Q6.37155 28.586 6.41406 28.611L6.41406 28.611Q6.45628 28.6358 6.49289 28.6684Q6.5295 28.701 6.5591 28.7401Q6.58869 28.7792 6.61015 28.8233Q6.63161 28.8674 6.64411 28.9148Q6.65662 28.9623 6.65969 29.0112Q6.66276 29.0602 6.65628 29.1088Q6.6498 29.1574 6.63402 29.2039Q6.61823 29.2503 6.59375 29.2927L6.3418 29.7255ZM4.57812 28.3177L4.14258 28.5662L3.89453 28.1323L4.33789 27.8986L4.33789 27.8986L3.89453 28.1323L3.64648 27.6984L4.08008 27.45L4.32812 27.8838L4.57812 28.3177ZM4.08008 27.45Q4.12278 27.4255 4.16947 27.4098Q4.21616 27.3941 4.26504 27.3879Q4.31392 27.3816 4.3631 27.385Q4.41229 27.3884 4.4599 27.4013Q4.50751 27.4142 4.55171 27.4362Q4.59591 27.4581 4.635 27.4882Q4.67409 27.5183 4.70657 27.5555Q4.73905 27.5926 4.76367 27.6354Q4.7881 27.6781 4.80373 27.7248Q4.81936 27.7715 4.82559 27.8203Q4.83182 27.8692 4.8284 27.9183Q4.82499 27.9674 4.81207 28.0149Q4.79915 28.0625 4.77721 28.1066Q4.75528 28.1506 4.72517 28.1896Q4.69507 28.2286 4.65795 28.2609Q4.62083 28.2933 4.57812 28.3177L4.14258 28.5662Q4.13672 28.5703 4.12891 28.5743Q4.08543 28.5973 4.03829 28.6114Q3.99115 28.6255 3.94215 28.6301Q3.89315 28.6347 3.84417 28.6296Q3.7952 28.6246 3.74814 28.6101Q3.70107 28.5956 3.65773 28.5722Q3.61438 28.5487 3.57642 28.5173Q3.53845 28.4859 3.50733 28.4477Q3.47621 28.4095 3.45312 28.366L3.45312 28.366Q3.43054 28.3234 3.41652 28.2773Q3.4025 28.2311 3.39755 28.1832Q3.3926 28.1353 3.3969 28.0873Q3.40121 28.0393 3.41461 27.993Q3.42801 27.9468 3.45002 27.9039Q3.47203 27.861 3.50183 27.8232Q3.53163 27.7853 3.56813 27.7538Q3.60463 27.7223 3.64648 27.6984L4.08008 27.45ZM3.75 25.2035L4.25 25.2035L4.25 25.7035L3.75 25.7035L3.75 25.7035L4.25 25.7035L4.25 26.2035L3.75 26.2035L3.75 25.7035L3.75 25.2035ZM3.75 26.2035Q3.70075 26.2035 3.65245 26.1939Q3.60415 26.1842 3.55865 26.1654Q3.51315 26.1465 3.47221 26.1192Q3.43126 26.0918 3.39644 26.057Q3.36162 26.0222 3.33426 25.9812Q3.3069 25.9403 3.28806 25.8948Q3.26921 25.8493 3.25961 25.801Q3.25 25.7527 3.25 25.7035Q3.25 25.6542 3.25961 25.6059Q3.26921 25.5576 3.28806 25.5121Q3.30691 25.4667 3.33426 25.4257Q3.36162 25.3848 3.39645 25.3499Q3.43127 25.3151 3.47221 25.2878Q3.51316 25.2604 3.55866 25.2416Q3.60415 25.2227 3.65245 25.2131Q3.70075 25.2035 3.75 25.2035L4.25 25.2035Q4.29925 25.2035 4.34755 25.2131Q4.39584 25.2227 4.44134 25.2415Q4.48684 25.2604 4.52778 25.2878Q4.56873 25.3151 4.60355 25.3499Q4.63837 25.3848 4.66573 25.4257Q4.69309 25.4667 4.71194 25.5121Q4.73078 25.5576 4.74039 25.6059Q4.75 25.6542 4.75 25.7035L4.75 25.7036Q4.75 25.7529 4.74039 25.8012Q4.73078 25.8494 4.71194 25.8949Q4.69309 25.9404 4.66573 25.9814Q4.63837 26.0223 4.60355 26.0571Q4.56873 26.0919 4.52778 26.1193Q4.48684 26.1466 4.44134 26.1655Q4.39584 26.1843 4.34755 26.1939Q4.29925 26.2035 4.25 26.2035L3.75 26.2035ZM3.75 15.0465L4.25 15.0465L4.25 15.5465L3.75 15.5465L3.75 15.5464L4.25 15.5464L4.25 16.0464L3.75 16.0465L3.75 15.5465L3.75 15.0465ZM3.75 16.0465Q3.70075 16.0465 3.65245 16.0369Q3.60415 16.0273 3.55865 16.0084Q3.51315 15.9896 3.47221 15.9622Q3.43126 15.9349 3.39644 15.9001Q3.36162 15.8652 3.33426 15.8243Q3.3069 15.7834 3.28806 15.7379Q3.26921 15.6924 3.25961 15.6441Q3.25 15.5958 3.25 15.5465Q3.25 15.4973 3.25961 15.449Q3.26921 15.4007 3.28806 15.3552Q3.30691 15.3097 3.33426 15.2687Q3.36162 15.2278 3.39645 15.193Q3.43127 15.1581 3.47221 15.1308Q3.51316 15.1034 3.55866 15.0846Q3.60415 15.0657 3.65245 15.0561Q3.70075 15.0465 3.75 15.0465L4.25 15.0464Q4.29925 15.0464 4.34755 15.056Q4.39584 15.0656 4.44134 15.0844Q4.48684 15.1033 4.52778 15.1307Q4.56873 15.158 4.60355 15.1928Q4.63837 15.2277 4.66573 15.2686Q4.69309 15.3095 4.71194 15.355Q4.73078 15.4005 4.74039 15.4488Q4.75 15.4971 4.75 15.5464L4.75 15.5465Q4.75 15.5958 4.74039 15.6441Q4.73078 15.6924 4.71194 15.7378Q4.69309 15.7833 4.66573 15.8243Q4.63837 15.8652 4.60355 15.9001Q4.56873 15.9349 4.52778 15.9622Q4.48684 15.9896 4.44134 16.0084Q4.39584 16.0273 4.34755 16.0369Q4.29925 16.0465 4.25 16.0465L3.75 16.0465ZM4.08008 13.7999L3.64648 13.5515L3.89453 13.1176L4.32812 13.3674L4.32812 13.3674L3.89453 13.1177L4.14258 12.6837L4.57812 12.9323L4.32812 13.3661L4.08008 13.7999ZM4.57812 12.9323Q4.62083 12.9567 4.65795 12.9891Q4.69507 13.0214 4.72517 13.0603Q4.75528 13.0993 4.77721 13.1434Q4.79915 13.1875 4.81207 13.235Q4.82499 13.2825 4.82841 13.3317Q4.83182 13.3808 4.82559 13.4296Q4.81936 13.4785 4.80373 13.5252Q4.7881 13.5719 4.76367 13.6146Q4.73905 13.6574 4.70657 13.6945Q4.67409 13.7316 4.635 13.7617Q4.5959 13.7918 4.55171 13.8138Q4.50751 13.8357 4.4599 13.8486Q4.41229 13.8615 4.3631 13.8649Q4.31391 13.8683 4.26504 13.862Q4.21616 13.8557 4.16947 13.8401Q4.12278 13.8244 4.08008 13.7999L3.64648 13.5515Q3.64648 13.5511 3.64453 13.5508Q3.60202 13.5262 3.56513 13.4937Q3.52823 13.4612 3.49838 13.4222Q3.46853 13.3831 3.44686 13.339Q3.42519 13.2948 3.41254 13.2472Q3.39989 13.1997 3.39674 13.1505Q3.3936 13.1014 3.40008 13.0526Q3.40656 13.0037 3.42241 12.9571Q3.43827 12.9105 3.46289 12.8678L3.46289 12.8678Q3.48735 12.8252 3.51965 12.7882Q3.55195 12.7512 3.59085 12.7213Q3.62975 12.6913 3.67378 12.6695Q3.7178 12.6477 3.76525 12.6349Q3.8127 12.6221 3.86177 12.6187Q3.91084 12.6154 3.95964 12.6217Q4.00844 12.628 4.05511 12.6436Q4.10178 12.6593 4.14453 12.6837L4.57812 12.9323ZM6.3418 11.5245L6.59375 11.9573L6.16016 12.2078L5.91016 11.7749L5.91016 11.7749L6.16016 12.2078L5.72852 12.4583L5.47656 12.0255L5.91016 11.775L6.3418 11.5245ZM5.47656 12.0255Q5.45194 11.9829 5.43612 11.9363Q5.4203 11.8897 5.41389 11.8408Q5.40749 11.792 5.41074 11.7429Q5.41399 11.6937 5.42678 11.6462Q5.43956 11.5986 5.46139 11.5544Q5.48322 11.5102 5.51325 11.4711Q5.54328 11.432 5.58037 11.3995Q5.61745 11.367 5.66016 11.3423Q5.70267 11.3176 5.74917 11.3017Q5.79567 11.2858 5.84437 11.2794Q5.89307 11.2729 5.94209 11.276Q5.99112 11.2792 6.03859 11.2919Q6.08607 11.3046 6.13016 11.3263Q6.17425 11.3481 6.21327 11.378Q6.25229 11.4079 6.28473 11.4449Q6.31717 11.4819 6.3418 11.5245L6.59375 11.9572Q6.59375 11.9573 6.59375 11.9575Q6.61837 12.0002 6.63419 12.0468Q6.65001 12.0934 6.65641 12.1422Q6.66282 12.191 6.65957 12.2402Q6.65632 12.2893 6.64353 12.3369Q6.63074 12.3845 6.60891 12.4286Q6.58709 12.4728 6.55705 12.5119Q6.52702 12.551 6.48994 12.5835Q6.45286 12.616 6.41016 12.6406L6.41016 12.6406Q6.36764 12.6653 6.32113 12.6811Q6.27463 12.697 6.22593 12.7034Q6.17723 12.7099 6.12821 12.7067Q6.07918 12.7035 6.03171 12.6908Q5.98424 12.6781 5.94015 12.6564Q5.89606 12.6347 5.85705 12.6047Q5.81803 12.5748 5.78559 12.5378Q5.75314 12.5009 5.72852 12.4583L5.47656 12.0255ZM16.1914 5.82227L15.9414 5.38953L16.373 5.13904L16.625 5.57178L16.625 5.57178L16.373 5.13904L16.8066 4.88855L17.0566 5.32129L16.625 5.57178L16.1914 5.82227ZM17.0566 5.32129Q17.0813 5.36391 17.0971 5.41053Q17.113 5.45715 17.1195 5.50596Q17.1259 5.55478 17.1228 5.60392Q17.1196 5.65307 17.107 5.70065Q17.0944 5.74823 17.0727 5.79242Q17.051 5.83661 17.0212 5.87572Q16.9913 5.91482 16.9544 5.94733Q16.9175 5.97985 16.875 6.00452Q16.8323 6.02919 16.7856 6.04507Q16.7389 6.06095 16.69 6.06743Q16.6412 6.07392 16.592 6.07075Q16.5428 6.06758 16.4952 6.05489Q16.4476 6.0422 16.4034 6.02047Q16.3592 5.99873 16.3201 5.9688Q16.281 5.93886 16.2485 5.90188Q16.216 5.86489 16.1914 5.82227L15.9414 5.38965Q15.9168 5.34703 15.9009 5.30041Q15.8851 5.25379 15.8786 5.20498Q15.8721 5.15616 15.8753 5.10701Q15.8784 5.05787 15.8911 5.01029Q15.9037 4.96271 15.9254 4.91851Q15.947 4.87432 15.9769 4.83522Q16.0067 4.79612 16.0436 4.7636Q16.0805 4.73109 16.123 4.70642L16.123 4.7063Q16.1658 4.68163 16.2124 4.66575Q16.2591 4.64986 16.308 4.64338Q16.3569 4.6369 16.4061 4.64006Q16.4553 4.64323 16.5029 4.65592Q16.5505 4.66862 16.5947 4.69035Q16.6389 4.71208 16.678 4.74201Q16.7171 4.77195 16.7495 4.80894Q16.782 4.84593 16.8066 4.88855L17.0566 5.32129ZM25.8926 17.0739L10.8926 9.26135L11.123 8.81787L11.5664 9.04883L11.1055 9.93579L10.6621 9.70483L10.8926 9.26135L25.8926 17.0739L25.6621 17.5173L25.2188 17.2864L25.6797 16.3994L26.123 16.6304L25.8926 17.0739ZM26.3555 16.187Q26.3991 16.2098 26.4375 16.2406Q26.4759 16.2714 26.5074 16.3091Q26.539 16.3469 26.5626 16.39Q26.5862 16.4332 26.6009 16.4802Q26.6156 16.5271 26.6208 16.5761Q26.626 16.625 26.6216 16.6741Q26.6172 16.7231 26.6032 16.7704Q26.5893 16.8177 26.5664 16.8613L26.1055 17.7483Q26.0828 17.792 26.052 17.8304Q26.0212 17.8688 25.9835 17.9004Q25.9458 17.9321 25.9027 17.9558Q25.8596 17.9794 25.8126 17.9942Q25.7657 18.009 25.7168 18.0144Q25.6679 18.0197 25.6189 18.0154Q25.5698 18.0111 25.5226 17.9974Q25.4753 17.9836 25.4316 17.9608L10.4316 10.1483Q10.388 10.1256 10.3496 10.0947Q10.3112 10.0639 10.2795 10.0262Q10.2479 9.98844 10.2242 9.94526Q10.2005 9.90208 10.1856 9.85511Q10.1708 9.80814 10.1654 9.75918Q10.16 9.71023 10.1643 9.66117Q10.1686 9.61211 10.1823 9.56483Q10.196 9.51756 10.2188 9.47388L10.6797 8.58691Q10.7026 8.54323 10.7335 8.50483Q10.7645 8.46643 10.8024 8.43478Q10.8402 8.40313 10.8835 8.37945Q10.9268 8.35577 10.9739 8.34097Q11.021 8.32617 11.07 8.32082Q11.119 8.31546 11.1681 8.31976Q11.2172 8.32406 11.2645 8.33785Q11.3118 8.35164 11.3555 8.37439L26.3555 16.187ZM20.875 5.57178L31.5898 11.775L31.3398 12.2078L30.9062 11.9572L31.4082 11.0918L31.8398 11.3423L31.5898 11.775L20.875 5.57178L21.127 5.13904L21.5586 5.38965L21.0586 6.255L20.625 6.00452L20.875 5.57178ZM20.375 6.43726Q20.3323 6.41257 20.2952 6.38005Q20.2582 6.34753 20.2282 6.30842Q20.1983 6.26931 20.1766 6.22511Q20.1548 6.18092 20.1422 6.13334Q20.1295 6.08575 20.1265 6.03661Q20.1234 5.98747 20.1299 5.93866Q20.1365 5.88985 20.1525 5.84324Q20.1685 5.79664 20.1934 5.75403L20.6934 4.88855Q20.718 4.84593 20.7505 4.80894Q20.7829 4.77195 20.822 4.74202Q20.8611 4.71209 20.9053 4.69037Q20.9495 4.66864 20.9971 4.65596Q21.0447 4.64327 21.0939 4.64012Q21.1431 4.63696 21.192 4.64346Q21.2409 4.64995 21.2876 4.66584Q21.3342 4.68174 21.377 4.70642L32.0918 10.9095Q32.1343 10.9342 32.1712 10.9667Q32.2081 10.9993 32.2379 11.0384Q32.2678 11.0775 32.2895 11.1217Q32.3111 11.1659 32.3238 11.2135Q32.3364 11.261 32.3396 11.3102Q32.3427 11.3593 32.3363 11.4081Q32.3298 11.457 32.3139 11.5036Q32.2981 11.5502 32.2734 11.5928L31.7715 12.4583Q31.7469 12.5009 31.7144 12.5379Q31.682 12.5748 31.643 12.6048Q31.6039 12.6347 31.5598 12.6564Q31.5158 12.6782 31.4683 12.6908Q31.4208 12.7035 31.3718 12.7067Q31.3227 12.7098 31.274 12.7033Q31.2254 12.6968 31.1789 12.681Q31.1324 12.6651 31.0898 12.6404L20.375 6.43726ZM31.5898 11.775Q32.082 12.0598 32.4844 12.4646Q32.8867 12.8693 33.1719 13.3661L32.7363 13.6146L32.4883 13.1807L33.3555 12.6837L33.6055 13.1177L33.1719 13.3661Q32.8867 12.8694 32.4844 12.4646Q32.082 12.0598 31.5898 11.775L31.8398 11.3423L32.2734 11.5927L31.7715 12.4583L31.3398 12.2078L31.5898 11.775ZM31.0898 12.6405Q31.0471 12.6158 31.0101 12.5833Q30.973 12.5508 30.9429 12.5117Q30.9129 12.4726 30.8911 12.4285Q30.8693 12.3843 30.8565 12.3367Q30.8437 12.2891 30.8404 12.24Q30.8372 12.1908 30.8436 12.142Q30.85 12.0932 30.8658 12.0465Q30.8816 11.9999 30.9062 11.9573L31.4082 11.0918Q31.4328 11.0492 31.4653 11.0122Q31.4978 10.9752 31.5369 10.9453Q31.576 10.9153 31.6202 10.8936Q31.6644 10.8719 31.712 10.8592Q31.7596 10.8465 31.8088 10.8433Q31.858 10.8401 31.9068 10.8466Q31.9557 10.8531 32.0024 10.869Q32.0491 10.8849 32.0918 10.9095Q32.6973 11.2609 33.1934 11.7598Q33.6895 12.2581 34.0391 12.8691Q34.0635 12.9119 34.0791 12.9586Q34.0948 13.0053 34.101 13.0541Q34.1072 13.103 34.1038 13.1521Q34.1004 13.2012 34.0875 13.2488Q34.0745 13.2963 34.0526 13.3404Q34.0307 13.3845 34.0006 13.4234Q33.9705 13.4624 33.9333 13.4947Q33.8962 13.527 33.8535 13.5515L32.9863 14.0485Q32.9434 14.0729 32.8966 14.0886Q32.8497 14.1042 32.8008 14.1105Q32.7518 14.1168 32.7025 14.1134Q32.6533 14.11 32.6057 14.097Q32.5581 14.0841 32.5139 14.0622Q32.4698 14.0403 32.4308 14.0101Q32.3918 13.98 32.3595 13.9429Q32.3272 13.9058 32.3027 13.863Q31.8574 13.0854 31.0898 12.6405ZM33.1719 13.3661Q33.4551 13.8628 33.6035 14.4175Q33.75 14.972 33.75 15.5465L33.25 15.5463L33.25 15.0463L34.25 15.0466L34.25 15.5466L33.75 15.5465Q33.75 14.972 33.6035 14.4175Q33.4551 13.8628 33.1719 13.3661L33.6055 13.1176L33.8535 13.5514L32.9863 14.0485L32.7363 13.6146L33.1719 13.3661ZM32.3027 13.8633Q32.2783 13.8206 32.2627 13.7739Q32.247 13.7272 32.2408 13.6783Q32.2346 13.6295 32.238 13.5804Q32.2414 13.5312 32.2543 13.4837Q32.2673 13.4362 32.2892 13.3921Q32.3111 13.348 32.3412 13.309Q32.3713 13.2701 32.4085 13.2377Q32.4456 13.2054 32.4883 13.1809L33.3555 12.6837Q33.3984 12.6592 33.4452 12.6436Q33.492 12.6279 33.541 12.6216Q33.59 12.6153 33.6392 12.6187Q33.6885 12.6221 33.7361 12.635Q33.7837 12.6479 33.8278 12.6698Q33.872 12.6917 33.911 12.7218Q33.95 12.7519 33.9823 12.7891Q34.0146 12.8262 34.0391 12.8689Q34.3887 13.4795 34.5703 14.1609Q34.75 14.8417 34.75 15.5468Q34.75 15.5468 34.75 15.5468Q34.75 15.596 34.7404 15.6443Q34.7308 15.6926 34.7119 15.7381Q34.6931 15.7836 34.6657 15.8245Q34.6384 15.8655 34.6035 15.9003Q34.5687 15.9351 34.5278 15.9624Q34.4868 15.9898 34.4413 16.0086Q34.3958 16.0274 34.3475 16.037Q34.2992 16.0466 34.25 16.0466L33.25 16.0463Q33.25 16.0463 33.25 16.0463Q33.2008 16.0463 33.1525 16.0366Q33.1041 16.027 33.0587 16.0082Q33.0132 15.9893 32.9722 15.9619Q32.9313 15.9346 32.8964 15.8997Q32.8616 15.8649 32.8343 15.8239Q32.8069 15.783 32.7881 15.7375Q32.7692 15.692 32.7596 15.6437Q32.75 15.5954 32.75 15.5461Q32.75 14.6433 32.3027 13.8633ZM33.75 15.5465L33.75 25.7035L33.25 25.7035L33.25 25.2035L34.25 25.2035L34.25 25.7035L33.75 25.7035L33.75 15.5465L34.25 15.5465L34.25 16.0465L33.25 16.0465L33.25 15.5465L33.75 15.5465ZM32.75 15.5465Q32.75 15.4973 32.7596 15.449Q32.7692 15.4007 32.7881 15.3552Q32.8069 15.3097 32.8343 15.2687Q32.8616 15.2278 32.8964 15.193Q32.9313 15.1581 32.9722 15.1308Q33.0132 15.1034 33.0587 15.0846Q33.1041 15.0657 33.1525 15.0561Q33.2008 15.0465 33.25 15.0465L34.25 15.0465Q34.2992 15.0465 34.3475 15.0561Q34.3958 15.0657 34.4413 15.0846Q34.4868 15.1034 34.5278 15.1308Q34.5687 15.1581 34.6035 15.193Q34.6384 15.2278 34.6657 15.2687Q34.6931 15.3097 34.7119 15.3552Q34.7308 15.4007 34.7404 15.449Q34.75 15.4973 34.75 15.5465L34.75 25.7035Q34.75 25.7527 34.7404 25.801Q34.7308 25.8493 34.7119 25.8948Q34.6931 25.9403 34.6657 25.9813Q34.6384 26.0222 34.6035 26.057Q34.5687 26.0919 34.5278 26.1192Q34.4868 26.1466 34.4413 26.1654Q34.3958 26.1843 34.3475 26.1939Q34.2992 26.2035 34.25 26.2035L33.25 26.2035Q33.2008 26.2035 33.1525 26.1939Q33.1041 26.1843 33.0587 26.1654Q33.0132 26.1466 32.9722 26.1192Q32.9313 26.0919 32.8964 26.057Q32.8616 26.0222 32.8343 25.9813Q32.8069 25.9403 32.7881 25.8948Q32.7692 25.8493 32.7596 25.801Q32.75 25.7527 32.75 25.7035L32.75 15.5465ZM33.75 25.7035Q33.75 26.2778 33.6035 26.8324Q33.4551 27.387 33.1719 27.8838L32.7363 27.6353L32.9863 27.2014L33.8535 27.6985L33.6055 28.1323L33.1719 27.8838Q33.4551 27.387 33.6035 26.8324Q33.75 26.2778 33.75 25.7035L34.25 25.7034L34.25 26.2034L33.25 26.2036L33.25 25.7036L33.75 25.7035ZM32.75 25.7037Q32.75 25.7037 32.75 25.7037Q32.75 25.6545 32.7596 25.6062Q32.7692 25.5579 32.7881 25.5124Q32.8069 25.4669 32.8343 25.4259Q32.8616 25.385 32.8964 25.3501Q32.9313 25.3153 32.9722 25.2879Q33.0132 25.2606 33.0587 25.2417Q33.1041 25.2229 33.1525 25.2132Q33.2008 25.2036 33.25 25.2036L34.25 25.2034Q34.25 25.2034 34.25 25.2034Q34.2992 25.2033 34.3475 25.2129Q34.3958 25.2225 34.4413 25.2413Q34.4868 25.2602 34.5278 25.2875Q34.5687 25.3148 34.6035 25.3496Q34.6384 25.3844 34.6657 25.4254Q34.6931 25.4663 34.7119 25.5118Q34.7308 25.5573 34.7404 25.6056Q34.75 25.6539 34.75 25.7031Q34.75 26.4082 34.5703 27.089Q34.3887 27.7703 34.0391 28.3809Q34.0146 28.4236 33.9823 28.4607Q33.95 28.4979 33.911 28.528Q33.872 28.5581 33.8278 28.58Q33.7837 28.6019 33.7361 28.6148Q33.6885 28.6277 33.6392 28.6311Q33.59 28.6345 33.541 28.6282Q33.492 28.622 33.4452 28.6063Q33.3984 28.5906 33.3555 28.5662L32.4883 28.0691Q32.4456 28.0446 32.4085 28.0123Q32.3713 27.9799 32.3412 27.941Q32.3111 27.902 32.2892 27.8579Q32.2673 27.8138 32.2543 27.7663Q32.2414 27.7188 32.238 27.6696Q32.2346 27.6205 32.2408 27.5717Q32.247 27.5228 32.2627 27.4761Q32.2783 27.4294 32.3027 27.3867Q32.75 26.6066 32.75 25.7037ZM33.1719 27.8838Q32.8867 28.3806 32.4844 28.7854Q32.082 29.1901 31.5898 29.4749L31.3398 29.0421L31.7715 28.7917L32.2734 29.6572L31.8398 29.9077L31.5898 29.4749Q32.082 29.1901 32.4844 28.7854Q32.8867 28.3806 33.1719 27.8838L33.6055 28.1322L33.3574 28.5662L32.4883 28.0693L32.7363 27.6354L33.1719 27.8838ZM32.3027 27.387Q32.3272 27.3442 32.3595 27.3071Q32.3918 27.2699 32.4308 27.2398Q32.4698 27.2097 32.5139 27.1877Q32.5581 27.1658 32.6057 27.1529Q32.6533 27.1399 32.7025 27.1365Q32.7518 27.1331 32.8008 27.1394Q32.8497 27.1456 32.8966 27.1613Q32.9434 27.1769 32.9863 27.2014L33.8535 27.6984Q33.8962 27.7228 33.9333 27.7552Q33.9705 27.7875 34.0006 27.8265Q34.0307 27.8654 34.0526 27.9095Q34.0745 27.9536 34.0875 28.0011Q34.1004 28.0486 34.1038 28.0978Q34.1072 28.1469 34.101 28.1958Q34.0947 28.2446 34.0791 28.2913Q34.0635 28.338 34.0391 28.3807Q33.6895 28.9919 33.1934 29.4902Q32.6973 29.9891 32.0898 30.3405Q32.0473 30.3651 32.0008 30.381Q31.9543 30.3969 31.9056 30.4033Q31.8569 30.4098 31.8079 30.4066Q31.7589 30.4034 31.7114 30.3907Q31.6639 30.378 31.6198 30.3563Q31.5757 30.3346 31.5367 30.3046Q31.4977 30.2747 31.4653 30.2377Q31.4328 30.2007 31.4082 30.1581L30.9062 29.2925Q30.8816 29.2499 30.8658 29.2032Q30.85 29.1566 30.8436 29.1078Q30.8372 29.059 30.8404 29.0099Q30.8437 28.9607 30.8565 28.9132Q30.8693 28.8656 30.8911 28.8214Q30.9129 28.7772 30.9429 28.7381Q30.973 28.699 31.0101 28.6665Q31.0471 28.634 31.0898 28.6094Q31.8574 28.1646 32.3027 27.387ZM31.5898 29.4749L20.875 35.6781L20.625 35.2454L21.0586 34.9949L21.5586 35.8602L21.127 36.1108L20.875 35.6781L31.5898 29.4749L31.8398 29.9076L31.4082 30.1581L30.9062 29.2927L31.3398 29.0422L31.5898 29.4749ZM31.0898 28.6095Q31.1324 28.5848 31.1789 28.5689Q31.2254 28.553 31.274 28.5465Q31.3227 28.54 31.3718 28.5432Q31.4208 28.5463 31.4683 28.559Q31.5158 28.5717 31.5598 28.5934Q31.6039 28.6152 31.643 28.6451Q31.682 28.675 31.7144 28.712Q31.7469 28.749 31.7715 28.7916L32.2734 29.6571Q32.2981 29.6997 32.3139 29.7463Q32.3298 29.793 32.3363 29.8418Q32.3427 29.8906 32.3396 29.9397Q32.3364 29.9889 32.3238 30.0365Q32.3111 30.084 32.2895 30.1282Q32.2678 30.1724 32.2379 30.2115Q32.2081 30.2506 32.1712 30.2831Q32.1343 30.3157 32.0918 30.3403L21.377 36.5435Q21.3342 36.5681 21.2876 36.584Q21.2409 36.5999 21.192 36.6064Q21.1431 36.6129 21.0939 36.6098Q21.0447 36.6066 20.9971 36.5939Q20.9495 36.5812 20.9053 36.5595Q20.8611 36.5378 20.822 36.5079Q20.7829 36.4779 20.7505 36.4409Q20.718 36.404 20.6934 36.3613L20.1934 35.496Q20.1685 35.4534 20.1525 35.4067Q20.1365 35.3601 20.1299 35.3113Q20.1234 35.2625 20.1265 35.2133Q20.1295 35.1642 20.1422 35.1166Q20.1548 35.069 20.1766 35.0248Q20.1983 34.9806 20.2282 34.9415Q20.2582 34.9024 20.2952 34.8698Q20.3323 34.8373 20.375 34.8126L31.0898 28.6095ZM20.875 35.6781Q20.3906 35.9591 19.8496 36.1046Q19.3086 36.25 18.75 36.25L18.75 35.75L19.25 35.75L19.25 36.75L18.75 36.75L18.75 36.25Q19.3086 36.25 19.8496 36.1046Q20.3906 35.9591 20.875 35.6781L21.127 36.1108L20.6934 36.3613L20.1934 35.4958L20.625 35.2454L20.875 35.6781ZM20.375 34.8126Q20.4175 34.788 20.4641 34.7721Q20.5106 34.7562 20.5594 34.7497Q20.6081 34.7432 20.6573 34.7464Q20.7064 34.7496 20.754 34.7622Q20.8016 34.7749 20.8459 34.7967Q20.8901 34.8184 20.9293 34.8483Q20.9685 34.8783 21.0011 34.9153Q21.0338 34.9523 21.0586 34.9949L21.5586 35.8604Q21.5832 35.903 21.5991 35.9496Q21.6149 35.9962 21.6214 36.045Q21.6279 36.0938 21.6247 36.143Q21.6216 36.1921 21.6089 36.2397Q21.5963 36.2873 21.5746 36.3315Q21.553 36.3757 21.5231 36.4148Q21.4932 36.4539 21.4564 36.4864Q21.4195 36.5189 21.377 36.5436Q20.7773 36.8906 20.1094 37.0702Q19.4414 37.25 18.75 37.25Q18.7008 37.25 18.6525 37.2404Q18.6042 37.2308 18.5587 37.2119Q18.5132 37.1931 18.4722 37.1657Q18.4313 37.1384 18.3964 37.1036Q18.3616 37.0687 18.3343 37.0278Q18.3069 36.9868 18.2881 36.9413Q18.2692 36.8958 18.2596 36.8475Q18.25 36.7992 18.25 36.75L18.25 35.75Q18.25 35.7008 18.2596 35.6525Q18.2692 35.6042 18.2881 35.5587Q18.3069 35.5132 18.3343 35.4722Q18.3616 35.4313 18.3964 35.3964Q18.4313 35.3616 18.4722 35.3343Q18.5132 35.3069 18.5587 35.2881Q18.6042 35.2692 18.6525 35.2596Q18.7008 35.25 18.75 35.25Q19.6191 35.25 20.375 34.8126ZM18.75 36.25Q18.1914 36.25 17.6504 36.1046Q17.1094 35.9591 16.625 35.6781L16.875 35.2454L17.3066 35.4958L16.8066 36.3613L16.373 36.1108L16.625 35.6781Q17.1094 35.9591 17.6504 36.1046Q18.1914 36.25 18.75 36.25L18.75 36.75L18.25 36.75L18.25 35.75L18.75 35.75L18.75 36.25ZM18.75 35.25Q18.7992 35.25 18.8475 35.2596Q18.8958 35.2692 18.9413 35.2881Q18.9868 35.3069 19.0278 35.3343Q19.0687 35.3616 19.1036 35.3964Q19.1384 35.4313 19.1657 35.4722Q19.1931 35.5132 19.2119 35.5587Q19.2308 35.6042 19.2404 35.6525Q19.25 35.7008 19.25 35.75L19.25 36.75Q19.25 36.7992 19.2404 36.8475Q19.2308 36.8958 19.2119 36.9413Q19.1931 36.9868 19.1657 37.0278Q19.1384 37.0687 19.1036 37.1036Q19.0687 37.1384 19.0278 37.1657Q18.9868 37.1931 18.9413 37.2119Q18.8958 37.2308 18.8475 37.2404Q18.7992 37.25 18.75 37.25Q18.0586 37.25 17.3906 37.0702Q16.7227 36.8906 16.123 36.5436Q16.0805 36.5189 16.0436 36.4864Q16.0067 36.4539 15.9769 36.4148Q15.947 36.3757 15.9254 36.3315Q15.9037 36.2873 15.8911 36.2397Q15.8784 36.1921 15.8753 36.143Q15.8721 36.0938 15.8786 36.045Q15.8851 35.9962 15.9009 35.9496Q15.9168 35.903 15.9414 35.8604L16.4414 34.9949Q16.4662 34.9523 16.4989 34.9153Q16.5315 34.8783 16.5707 34.8483Q16.6099 34.8184 16.6541 34.7967Q16.6984 34.7749 16.746 34.7622Q16.7936 34.7495 16.8427 34.7464Q16.8919 34.7432 16.9406 34.7497Q16.9894 34.7562 17.0359 34.7721Q17.0825 34.788 17.125 34.8126Q17.8809 35.25 18.75 35.25ZM16.625 35.6781L5.91016 29.4749L6.16016 29.0422L6.59375 29.2927L6.0918 30.1581L5.66016 29.9076L5.91016 29.4749L16.625 35.6781L16.373 36.1108L15.9414 35.8602L16.4414 34.9949L16.875 35.2454L16.625 35.6781ZM17.125 34.8126Q17.1677 34.8373 17.2047 34.8698Q17.2418 34.9024 17.2717 34.9415Q17.3017 34.9806 17.3234 35.0248Q17.3452 35.069 17.3578 35.1166Q17.3705 35.1642 17.3735 35.2133Q17.3766 35.2625 17.3701 35.3113Q17.3635 35.3601 17.3475 35.4067Q17.3315 35.4534 17.3066 35.496L16.8066 36.3613Q16.782 36.404 16.7495 36.4409Q16.7171 36.4779 16.678 36.5079Q16.6389 36.5378 16.5947 36.5595Q16.5505 36.5812 16.5029 36.5939Q16.4553 36.6066 16.4061 36.6098Q16.3569 36.6129 16.308 36.6064Q16.2591 36.5999 16.2124 36.584Q16.1658 36.5681 16.123 36.5435L5.4082 30.3403Q5.36569 30.3156 5.3288 30.2831Q5.2919 30.2506 5.26205 30.2115Q5.2322 30.1724 5.21053 30.1282Q5.18886 30.084 5.17621 30.0364Q5.16356 29.9888 5.16041 29.9397Q5.15727 29.8905 5.16375 29.8417Q5.17023 29.7929 5.18608 29.7463Q5.20194 29.6997 5.22656 29.6571L5.72852 28.7916Q5.75314 28.749 5.78558 28.712Q5.81803 28.675 5.85704 28.6451Q5.89606 28.6152 5.94015 28.5934Q5.98425 28.5717 6.03172 28.559Q6.07919 28.5464 6.12822 28.5432Q6.17724 28.54 6.22594 28.5465Q6.27464 28.553 6.32114 28.5689Q6.36764 28.5848 6.41016 28.6095L17.125 34.8126ZM5.91016 29.4749Q5.41797 29.1901 5.01562 28.7854Q4.61328 28.3806 4.32812 27.8838L4.76367 27.6354L5.01172 28.0692L4.14258 28.5662L3.89453 28.1323L4.32812 27.8838Q4.61328 28.3806 5.01562 28.7854Q5.41797 29.1901 5.91016 29.4749L5.66016 29.9077L5.22656 29.6572L5.72852 28.7917L6.16016 29.0421L5.91016 29.4749ZM6.41016 28.6094Q6.45286 28.634 6.48994 28.6665Q6.52702 28.699 6.55705 28.7381Q6.58709 28.7772 6.60891 28.8214Q6.63074 28.8656 6.64353 28.9132Q6.65632 28.9607 6.65957 29.0099Q6.66282 29.059 6.65641 29.1078Q6.65001 29.1566 6.63419 29.2032Q6.61837 29.2499 6.59375 29.2925L6.0918 30.1581Q6.06717 30.2007 6.03469 30.2377Q6.00221 30.2747 5.96312 30.3046Q5.92403 30.3346 5.87983 30.3563Q5.83563 30.378 5.78802 30.3907Q5.74041 30.4034 5.69123 30.4066Q5.64204 30.4098 5.59316 30.4033Q5.54428 30.3968 5.4976 30.381Q5.45091 30.3651 5.4082 30.3405Q4.80273 29.9891 4.30664 29.4902Q3.81055 28.9919 3.46094 28.3807Q3.43651 28.338 3.42088 28.2913Q3.40525 28.2446 3.39902 28.1958Q3.39279 28.1469 3.3962 28.0978Q3.39962 28.0487 3.41254 28.0012Q3.42546 27.9536 3.4474 27.9096Q3.46933 27.8655 3.49944 27.8265Q3.52954 27.7875 3.56666 27.7552Q3.60378 27.7228 3.64648 27.6984L4.51367 27.2014Q4.55657 27.1769 4.60341 27.1613Q4.65025 27.1456 4.69923 27.1394Q4.74821 27.1331 4.79745 27.1365Q4.84669 27.1399 4.8943 27.1528Q4.94191 27.1657 4.98605 27.1877Q5.0302 27.2096 5.06919 27.2397Q5.10818 27.2698 5.1405 27.307Q5.17284 27.3441 5.19727 27.3868Q5.64258 28.1644 6.41016 28.6094ZM4.32812 27.8838Q4.04492 27.387 3.89648 26.8324Q3.75 26.2778 3.75 25.7035L4.25 25.7035L4.25 26.2035L3.25 26.2034L3.25 25.7034L3.75 25.7035Q3.75 26.2778 3.89648 26.8324Q4.04492 27.387 4.32812 27.8838L3.89453 28.1323L3.64648 27.6984L4.51367 27.2014L4.76367 27.6354L4.32812 27.8838ZM5.19727 27.3868Q5.19727 27.3868 5.19727 27.3868Q5.2217 27.4296 5.23733 27.4763Q5.25295 27.523 5.25918 27.5718Q5.26541 27.6207 5.262 27.6698Q5.25859 27.7189 5.24566 27.7665Q5.23274 27.814 5.21081 27.8581Q5.18887 27.9022 5.15877 27.9411Q5.12866 27.9801 5.09154 28.0124Q5.05442 28.0447 5.01172 28.0692L4.14258 28.5662Q4.09987 28.5906 4.05322 28.6063Q4.00657 28.6219 3.95777 28.6282Q3.90896 28.6345 3.85988 28.6311Q3.8108 28.6277 3.76333 28.6147Q3.71586 28.6018 3.67182 28.5799Q3.62778 28.558 3.58887 28.5278Q3.54995 28.4977 3.51766 28.4606Q3.48537 28.4235 3.46094 28.3807Q3.11133 27.7701 2.93164 27.089Q2.75 26.4082 2.75 25.7032Q2.75 25.654 2.75961 25.6057Q2.76921 25.5574 2.78806 25.5119Q2.80691 25.4664 2.83426 25.4255Q2.86162 25.3845 2.89645 25.3497Q2.93127 25.3149 2.97221 25.2876Q3.01316 25.2602 3.05866 25.2414Q3.10416 25.2225 3.15245 25.213Q3.20075 25.2034 3.25 25.2034L4.25 25.2035Q4.29925 25.2035 4.34755 25.2131Q4.39584 25.2227 4.44134 25.2416Q4.48684 25.2605 4.52778 25.2878Q4.56873 25.3152 4.60355 25.35Q4.63837 25.3849 4.66573 25.4258Q4.69309 25.4668 4.71194 25.5123Q4.73078 25.5578 4.74039 25.6061Q4.75 25.6544 4.75 25.7036Q4.75 26.6064 5.19727 27.3868ZM3.75 25.7035L3.75 15.5465L4.25 15.5465L4.25 16.0465L3.25 16.0465L3.25 15.5465L3.75 15.5465L3.75 25.7035L3.25 25.7035L3.25 25.2035L4.25 25.2035L4.25 25.7035L3.75 25.7035ZM4.75 25.7035Q4.75 25.7527 4.74039 25.801Q4.73078 25.8493 4.71194 25.8948Q4.69309 25.9403 4.66573 25.9813Q4.63837 26.0222 4.60355 26.057Q4.56873 26.0919 4.52778 26.1192Q4.48684 26.1466 4.44134 26.1654Q4.39584 26.1843 4.34755 26.1939Q4.29925 26.2035 4.25 26.2035L3.25 26.2035Q3.20075 26.2035 3.15245 26.1939Q3.10416 26.1843 3.05866 26.1654Q3.01316 26.1466 2.97221 26.1192Q2.93127 26.0919 2.89645 26.057Q2.86162 26.0222 2.83426 25.9813Q2.80691 25.9403 2.78806 25.8948Q2.76921 25.8493 2.75961 25.801Q2.75 25.7527 2.75 25.7035L2.75 15.5465Q2.75 15.4973 2.75961 15.449Q2.76921 15.4007 2.78806 15.3552Q2.80691 15.3097 2.83426 15.2687Q2.86162 15.2278 2.89645 15.193Q2.93127 15.1581 2.97221 15.1308Q3.01316 15.1034 3.05866 15.0846Q3.10416 15.0657 3.15245 15.0561Q3.20075 15.0465 3.25 15.0465L4.25 15.0465Q4.29925 15.0465 4.34755 15.0561Q4.39584 15.0657 4.44134 15.0846Q4.48684 15.1034 4.52778 15.1308Q4.56873 15.1581 4.60355 15.193Q4.63837 15.2278 4.66573 15.2687Q4.69309 15.3097 4.71194 15.3552Q4.73078 15.4007 4.74039 15.449Q4.75 15.4973 4.75 15.5465L4.75 25.7035ZM3.75 15.5465Q3.75 14.9722 3.89648 14.4175Q4.04492 13.8628 4.32812 13.3661L4.76367 13.6146L4.51367 14.0485L3.64648 13.5515L3.89453 13.1177L4.32812 13.3661Q4.04492 13.8629 3.89648 14.4175Q3.75 14.9722 3.75 15.5465L3.25 15.5465L3.25 15.0465L4.25 15.0464L4.25 15.5464L3.75 15.5465ZM4.75 15.5463Q4.75 15.5955 4.74039 15.6438Q4.73078 15.6921 4.71194 15.7376Q4.69309 15.7831 4.66573 15.8241Q4.63837 15.865 4.60355 15.8999Q4.56873 15.9347 4.52778 15.9621Q4.48684 15.9894 4.44134 16.0083Q4.39584 16.0271 4.34755 16.0368Q4.29925 16.0464 4.25 16.0464L3.25 16.0465Q3.20075 16.0465 3.15245 16.0369Q3.10416 16.0273 3.05866 16.0085Q3.01316 15.9897 2.97221 15.9623Q2.93127 15.935 2.89645 15.9001Q2.86162 15.8653 2.83426 15.8244Q2.80691 15.7835 2.78806 15.738Q2.76921 15.6925 2.75961 15.6442Q2.75 15.5959 2.75 15.5466Q2.75 14.8417 2.92969 14.1609Q3.11133 13.4796 3.46094 12.8691Q3.48537 12.8264 3.51766 12.7893Q3.54995 12.7521 3.58887 12.722Q3.62778 12.6919 3.67182 12.67Q3.71586 12.648 3.76333 12.6351Q3.8108 12.6222 3.85988 12.6188Q3.90896 12.6154 3.95777 12.6217Q4.00657 12.6279 4.05322 12.6436Q4.09987 12.6592 4.14258 12.6837L5.01172 13.1807Q5.01172 13.1807 5.01172 13.1807Q5.05442 13.2051 5.09154 13.2375Q5.12866 13.2698 5.15877 13.3088Q5.18887 13.3478 5.21081 13.3919Q5.23274 13.4359 5.24566 13.4835Q5.25859 13.531 5.262 13.5801Q5.26541 13.6292 5.25918 13.6781Q5.25295 13.7269 5.23733 13.7736Q5.2217 13.8203 5.19727 13.863Q4.75 14.6433 4.75 15.5463ZM4.32812 13.3661Q4.61328 12.8694 5.01562 12.4646Q5.41797 12.0598 5.91016 11.775L6.16016 12.2078L5.72852 12.4583L5.22656 11.5928L5.66016 11.3423L5.91016 11.775Q5.41797 12.0599 5.01562 12.4646Q4.61328 12.8694 4.32812 13.3661L3.89453 13.1176L4.14453 12.6837L5.01172 13.1808L4.76367 13.6146L4.32812 13.3661ZM5.19727 13.8632Q5.17264 13.9059 5.14016 13.943Q5.10768 13.9802 5.06859 14.0103Q5.0295 14.0404 4.9853 14.0623Q4.9411 14.0842 4.89349 14.0971Q4.84588 14.11 4.7967 14.1134Q4.74751 14.1168 4.69863 14.1105Q4.64975 14.1043 4.60307 14.0886Q4.55638 14.0729 4.51367 14.0485L3.64648 13.5515Q3.60378 13.527 3.56666 13.4947Q3.52954 13.4623 3.49944 13.4234Q3.46933 13.3844 3.4474 13.3403Q3.42546 13.2962 3.41254 13.2487Q3.39962 13.2012 3.3962 13.1521Q3.39279 13.1029 3.39902 13.0541Q3.40525 13.0052 3.42088 12.9586Q3.43651 12.9119 3.46094 12.8691Q3.81055 12.2579 4.30664 11.7598Q4.80273 11.2609 5.4082 10.9095Q5.45091 10.8849 5.4976 10.869Q5.54429 10.8531 5.59316 10.8466Q5.64204 10.8401 5.69123 10.8433Q5.74042 10.8465 5.78802 10.8592Q5.83563 10.8719 5.87983 10.8936Q5.92403 10.9153 5.96312 10.9453Q6.00221 10.9752 6.03469 11.0122Q6.06717 11.0492 6.0918 11.0918L6.59375 11.9573Q6.61837 11.9999 6.63419 12.0465Q6.65001 12.0931 6.65641 12.1419Q6.66282 12.1908 6.65957 12.2399Q6.65632 12.2891 6.64353 12.3366Q6.63074 12.3842 6.60891 12.4284Q6.58709 12.4726 6.55705 12.5117Q6.52702 12.5508 6.48994 12.5833Q6.45286 12.6158 6.41016 12.6405Q5.64258 13.0854 5.19727 13.8632ZM5.91016 11.775L16.625 5.57178L16.875 6.00452L16.4414 6.255L15.9414 5.38965L16.373 5.13904L16.625 5.57178L5.91016 11.775L5.66016 11.3423L6.0918 11.0918L6.59375 11.9572L6.16016 12.2078L5.91016 11.775ZM6.41016 12.6404Q6.36764 12.6651 6.32114 12.681Q6.27464 12.6968 6.22594 12.7033Q6.17724 12.7098 6.12822 12.7067Q6.07919 12.7035 6.03172 12.6908Q5.98424 12.6782 5.94015 12.6564Q5.89606 12.6347 5.85704 12.6048Q5.81803 12.5748 5.78558 12.5379Q5.75314 12.5009 5.72852 12.4583L5.22656 11.5928Q5.20194 11.5502 5.18608 11.5036Q5.17023 11.457 5.16375 11.4081Q5.15727 11.3593 5.16041 11.3102Q5.16356 11.261 5.17621 11.2135Q5.18886 11.1659 5.21053 11.1217Q5.2322 11.0775 5.26205 11.0384Q5.2919 10.9993 5.3288 10.9667Q5.36569 10.9342 5.4082 10.9095L16.123 4.70642Q16.1658 4.68174 16.2124 4.66584Q16.2591 4.64995 16.308 4.64346Q16.3569 4.63696 16.4061 4.64012Q16.4553 4.64327 16.5029 4.65596Q16.5505 4.66864 16.5947 4.69037Q16.6389 4.71209 16.678 4.74202Q16.7171 4.77195 16.7495 4.80894Q16.782 4.84593 16.8066 4.88855L17.3066 5.75403Q17.3315 5.79664 17.3475 5.84324Q17.3635 5.88985 17.3701 5.93866Q17.3766 5.98747 17.3735 6.03661Q17.3705 6.08575 17.3578 6.13334Q17.3451 6.18092 17.3234 6.22511Q17.3017 6.26931 17.2717 6.30842Q17.2418 6.34753 17.2047 6.38005Q17.1677 6.41257 17.125 6.43726L6.41016 12.6404ZM16.625 5.57178Q17.1094 5.29077 17.6504 5.14539Q18.1914 5 18.75 5L18.75 5.5L18.25 5.5L18.25 4.5L18.75 4.5L18.75 5Q18.1914 5 17.6504 5.14539Q17.1094 5.29077 16.625 5.57178L16.373 5.13904L16.8066 4.88855L17.3066 5.75403L16.875 6.00452L16.625 5.57178ZM17.125 6.43726Q17.0825 6.46193 17.0359 6.47781Q16.9894 6.49369 16.9406 6.50017Q16.8919 6.50665 16.8427 6.50349Q16.7936 6.50032 16.746 6.48763Q16.6984 6.47494 16.6541 6.45321Q16.6099 6.43147 16.5707 6.40154Q16.5315 6.3716 16.4989 6.33461Q16.4662 6.29763 16.4414 6.255L15.9414 5.38953Q15.9168 5.34691 15.9009 5.30029Q15.8851 5.25367 15.8786 5.20486Q15.8721 5.15604 15.8753 5.10689Q15.8784 5.05775 15.8911 5.01017Q15.9037 4.96258 15.9254 4.91839Q15.947 4.8742 15.9769 4.8351Q16.0067 4.79599 16.0436 4.76348Q16.0805 4.73097 16.123 4.7063Q16.7227 4.35925 17.3906 4.17969Q18.0586 4 18.75 4Q18.7992 4 18.8475 4.00961Q18.8958 4.01921 18.9413 4.03806Q18.9868 4.05691 19.0278 4.08426Q19.0687 4.11162 19.1036 4.14645Q19.1384 4.18127 19.1657 4.22221Q19.1931 4.26316 19.2119 4.30866Q19.2308 4.35415 19.2404 4.40245Q19.25 4.45075 19.25 4.5L19.25 5.5Q19.25 5.54924 19.2404 5.59754Q19.2308 5.64584 19.2119 5.69134Q19.1931 5.73684 19.1657 5.77778Q19.1384 5.81873 19.1036 5.85355Q19.0687 5.88837 19.0278 5.91573Q18.9868 5.94309 18.9413 5.96194Q18.8958 5.98078 18.8475 5.99039Q18.7992 6 18.75 6Q17.8809 6 17.125 6.43726ZM18.75 5Q19.3086 5 19.8496 5.14539Q20.3906 5.29077 20.875 5.57178L20.625 6.00452L20.1934 5.75403L20.6934 4.88855L21.127 5.13904L20.875 5.57178Q20.3906 5.29077 19.8496 5.14539Q19.3086 5 18.75 5L18.75 4.5L19.25 4.5L19.25 5.5L18.75 5.5L18.75 5ZM18.75 6Q18.7008 6 18.6525 5.99039Q18.6042 5.98078 18.5587 5.96194Q18.5132 5.94309 18.4722 5.91573Q18.4313 5.88837 18.3964 5.85355Q18.3616 5.81873 18.3343 5.77778Q18.3069 5.73684 18.2881 5.69134Q18.2692 5.64584 18.2596 5.59754Q18.25 5.54924 18.25 5.5L18.25 4.5Q18.25 4.45075 18.2596 4.40245Q18.2692 4.35415 18.2881 4.30866Q18.3069 4.26316 18.3343 4.22221Q18.3616 4.18127 18.3964 4.14645Q18.4313 4.11162 18.4722 4.08426Q18.5132 4.05691 18.5587 4.03806Q18.6042 4.01921 18.6525 4.00961Q18.7008 4 18.75 4Q19.4414 4 20.1094 4.17969Q20.7773 4.35938 21.377 4.7063Q21.4195 4.73097 21.4564 4.76348Q21.4932 4.79599 21.5231 4.8351Q21.553 4.8742 21.5746 4.91839Q21.5963 4.96258 21.6089 5.01017Q21.6216 5.05775 21.6247 5.10689Q21.6279 5.15604 21.6214 5.20486Q21.6149 5.25367 21.5991 5.30029Q21.5832 5.34691 21.5586 5.38953L21.0586 6.255Q21.0586 6.255 21.0586 6.255Q21.0338 6.29763 21.0011 6.33461Q20.9685 6.3716 20.9293 6.40154Q20.8901 6.43147 20.8459 6.45321Q20.8016 6.47494 20.754 6.48763Q20.7064 6.50032 20.6573 6.50349Q20.6081 6.50665 20.5594 6.50017Q20.5106 6.49369 20.4641 6.47781Q20.4175 6.46193 20.375 6.43726Q19.6191 6 18.75 6Z" fill="#000000" fill-opacity="1.000000" fill-rule="nonzero"/>
	<mask id="mask_152_1835" fill="white">
		<path id="Shape" d="M5.24805 13.316C5.00781 13.1788 4.70312 13.262 4.56641 13.5017C4.42969 13.7413 4.51172 14.0469 4.75195 14.184L5.24805 13.316ZM16.7441 20.4708L16.4961 20.9048L16.4961 20.9049L16.7441 20.4708ZM20.7559 20.4708L21.0039 20.9049L21.0039 20.9048L20.7559 20.4708ZM32.748 14.184C32.9883 14.0469 33.0703 13.7413 32.9336 13.5017C32.7969 13.262 32.4922 13.1788 32.252 13.316L32.748 14.184ZM19.25 21.7339C19.25 21.4578 19.0254 21.2339 18.75 21.2339C18.4746 21.2339 18.25 21.4578 18.25 21.7339L19.25 21.7339ZM18.25 36.25C18.25 36.5261 18.4746 36.75 18.75 36.75C19.0254 36.75 19.25 36.5261 19.25 36.25L18.25 36.25ZM4.75195 14.184L16.4961 20.9048L16.9922 20.0369L5.24805 13.316L4.75195 14.184ZM16.4961 20.9049C17.1875 21.2998 17.9609 21.5081 18.75 21.5081L18.75 20.5081C18.1387 20.5081 17.5352 20.3468 16.9922 20.0367L16.4961 20.9049ZM18.75 21.5081C19.5391 21.5081 20.3125 21.2998 21.0039 20.9049L20.5078 20.0367C19.9648 20.3468 19.3613 20.5081 18.75 20.5081L18.75 21.5081ZM21.0039 20.9048L32.748 14.184L32.252 13.316L20.5078 20.0369L21.0039 20.9048ZM18.25 21.7339L18.25 36.25L19.25 36.25L19.25 21.7339L18.25 21.7339Z" fill="" fill-opacity="1.000000" fill-rule="nonzero"/>
	</mask>
	<path id="Shape" d="M5 13.75Q5 13.75 5 13.75Q5 13.75 5 13.75L4.75195 14.184L4.31836 13.9357L4.81445 13.0677L5.24805 13.316L5 13.75ZM5.49609 12.8821Q5.5388 12.9065 5.57592 12.9389Q5.61304 12.9712 5.64314 13.0101Q5.67325 13.0491 5.69518 13.0932Q5.71712 13.1372 5.73004 13.1848Q5.74296 13.2323 5.74637 13.2814Q5.74979 13.3305 5.74356 13.3794Q5.73733 13.4282 5.7217 13.4749Q5.70607 13.5216 5.68164 13.5643L5.18555 14.4323Q5.16112 14.475 5.12882 14.5122Q5.09653 14.5493 5.05762 14.5795Q5.0187 14.6096 4.97467 14.6315Q4.93063 14.6535 4.88315 14.6664Q4.83568 14.6794 4.7866 14.6828Q4.73752 14.6862 4.68872 14.6799Q4.63991 14.6737 4.59326 14.658Q4.54661 14.6424 4.50391 14.6179Q4.32617 14.5171 4.20508 14.3562Q4.08594 14.201 4.03516 14.0126Q3.98438 13.824 4.00781 13.6304Q4.03125 13.4296 4.13281 13.2533Q4.23242 13.077 4.39453 12.9545Q4.54883 12.8364 4.73828 12.785Q4.92578 12.7338 5.11914 12.7571Q5.32031 12.7811 5.49609 12.8821ZM17.1777 20.7192L16.9297 21.1532L16.4961 20.9048L16.7441 20.4708L16.7441 20.4709L16.4961 20.9049L16.0625 20.6567L16.3105 20.2227L16.7441 20.4708L17.1777 20.7192ZM16.3105 20.2225Q16.335 20.1798 16.3673 20.1427Q16.3996 20.1055 16.4385 20.0754Q16.4774 20.0453 16.5214 20.0233Q16.5655 20.0013 16.6129 19.9884Q16.6604 19.9755 16.7095 19.972Q16.7586 19.9686 16.8074 19.9748Q16.8562 19.9811 16.9028 19.9967Q16.9495 20.0123 16.9922 20.0367Q17.0351 20.0612 17.0724 20.0935Q17.1096 20.1258 17.1398 20.1648Q17.17 20.2037 17.192 20.2478Q17.214 20.2919 17.2269 20.3394Q17.2399 20.3869 17.2432 20.4361Q17.2466 20.4852 17.2402 20.534Q17.2339 20.5829 17.2181 20.6296Q17.2024 20.6763 17.1777 20.719L16.9297 21.1531Q16.9297 21.1532 16.9297 21.1533Q16.9053 21.1961 16.873 21.2332Q16.8407 21.2704 16.8018 21.3005Q16.7628 21.3306 16.7188 21.3525Q16.6748 21.3745 16.6273 21.3874Q16.5798 21.4003 16.5307 21.4037Q16.4817 21.4071 16.4329 21.4009Q16.3841 21.3946 16.3374 21.379Q16.2908 21.3633 16.248 21.3389L16.248 21.3387Q16.2053 21.3143 16.1682 21.2819Q16.1311 21.2496 16.101 21.2107Q16.0709 21.1717 16.049 21.1276Q16.027 21.0835 16.0141 21.036Q16.0012 20.9885 15.9978 20.9394Q15.9944 20.8903 16.0006 20.8414Q16.0068 20.7926 16.0224 20.7459Q16.0381 20.6992 16.0625 20.6565L16.3105 20.2225ZM21.1895 20.2227L21.4375 20.6567L21.0039 20.9049L20.7559 20.4703L20.7559 20.4703L21.0039 20.9048L20.5703 21.1532L20.3223 20.7192L20.7559 20.4708L21.1895 20.2227ZM20.3223 20.719Q20.2976 20.6763 20.2819 20.6296Q20.2661 20.5829 20.2597 20.5341Q20.2534 20.4852 20.2568 20.4361Q20.2601 20.387 20.273 20.3395Q20.286 20.292 20.308 20.2479Q20.3299 20.2039 20.3602 20.1649Q20.3904 20.126 20.4276 20.0936Q20.4649 20.0613 20.5078 20.0369Q20.5505 20.0124 20.5972 19.9968Q20.6438 19.9811 20.6926 19.9749Q20.7414 19.9686 20.7905 19.9721Q20.8396 19.9755 20.8871 19.9884Q20.9345 20.0013 20.9786 20.0233Q21.0226 20.0452 21.0615 20.0754Q21.1004 20.1055 21.1327 20.1426Q21.165 20.1798 21.1895 20.2225L21.4375 20.6565Q21.4375 20.657 21.4375 20.6575Q21.4619 20.7003 21.4776 20.747Q21.4932 20.7937 21.4994 20.8426Q21.5056 20.8914 21.5022 20.9405Q21.4988 20.9897 21.4859 21.0371Q21.473 21.0846 21.451 21.1287Q21.4291 21.1727 21.399 21.2116Q21.3689 21.2505 21.3318 21.2827Q21.2947 21.315 21.252 21.3394L21.25 21.3395Q21.2073 21.3638 21.1606 21.3793Q21.114 21.3949 21.0653 21.401Q21.0166 21.4071 20.9676 21.4037Q20.9186 21.4002 20.8713 21.3872Q20.824 21.3742 20.7801 21.3522Q20.7362 21.3303 20.6975 21.3001Q20.6588 21.27 20.6267 21.2329Q20.5946 21.1958 20.5703 21.1531L20.3223 20.719ZM32.5 13.75L32.5 13.75Q32.5 13.75 32.5 13.75L32.5 13.75L32.5 13.7499L32.5 13.75L32.252 13.316L32.6855 13.0677L33.1816 13.9357L32.748 14.184L32.5 13.75ZM32.9961 14.6179Q32.9534 14.6424 32.9067 14.658Q32.8601 14.6737 32.8113 14.6799Q32.7625 14.6862 32.7134 14.6828Q32.6643 14.6794 32.6168 14.6664Q32.5694 14.6535 32.5253 14.6315Q32.4813 14.6096 32.4424 14.5795Q32.4035 14.5493 32.3712 14.5122Q32.3389 14.475 32.3145 14.4323L31.8184 13.5643Q31.7939 13.5216 31.7783 13.4749Q31.7627 13.4282 31.7564 13.3794Q31.7502 13.3305 31.7536 13.2814Q31.757 13.2323 31.77 13.1848Q31.7829 13.1372 31.8048 13.0932Q31.8268 13.0491 31.8569 13.0101Q31.887 12.9712 31.9241 12.9389Q31.9612 12.9065 32.0039 12.8821Q32.1797 12.7811 32.3809 12.7571Q32.5742 12.7338 32.7617 12.785Q32.9512 12.8364 33.1055 12.9545Q33.2676 13.077 33.3672 13.2533Q33.4688 13.4296 33.4922 13.6304Q33.5156 13.824 33.4648 14.0126Q33.4141 14.201 33.2949 14.3562Q33.1738 14.5171 32.9961 14.6179ZM18.75 21.7339L18.75 21.7339L18.75 21.7339L18.25 21.7339L18.25 21.2339L19.25 21.2339L19.25 21.7339L18.75 21.7339ZM19.75 21.7339Q19.75 21.7831 19.7404 21.8314Q19.7308 21.8797 19.7119 21.9252Q19.6931 21.9707 19.6657 22.0117Q19.6384 22.0526 19.6036 22.0874Q19.5687 22.1223 19.5278 22.1496Q19.4868 22.177 19.4413 22.1958Q19.3958 22.2147 19.3475 22.2243Q19.2992 22.2339 19.25 22.2339L18.25 22.2339Q18.2008 22.2339 18.1525 22.2243Q18.1042 22.2147 18.0587 22.1958Q18.0132 22.177 17.9722 22.1496Q17.9313 22.1223 17.8964 22.0874Q17.8616 22.0526 17.8343 22.0117Q17.8069 21.9707 17.7881 21.9252Q17.7692 21.8797 17.7596 21.8314Q17.75 21.7831 17.75 21.7339Q17.75 21.5308 17.8281 21.3445Q17.9043 21.1649 18.043 21.0267Q18.1816 20.8885 18.3613 20.8126Q18.5469 20.7339 18.75 20.7339Q18.9531 20.7339 19.1387 20.8126Q19.3184 20.8885 19.457 21.0267Q19.5957 21.1649 19.6719 21.3445Q19.75 21.5308 19.75 21.7339ZM18.75 36.25L18.75 36.25L18.75 36.25L19.25 36.25L19.25 36.75L18.25 36.75L18.25 36.25L18.75 36.25ZM17.75 36.25Q17.75 36.2008 17.7596 36.1525Q17.7692 36.1042 17.7881 36.0587Q17.8069 36.0132 17.8343 35.9722Q17.8616 35.9313 17.8964 35.8964Q17.9313 35.8616 17.9722 35.8343Q18.0132 35.8069 18.0587 35.7881Q18.1042 35.7692 18.1525 35.7596Q18.2008 35.75 18.25 35.75L19.25 35.75Q19.2992 35.75 19.3475 35.7596Q19.3958 35.7692 19.4413 35.7881Q19.4868 35.8069 19.5278 35.8343Q19.5687 35.8616 19.6036 35.8964Q19.6384 35.9313 19.6657 35.9722Q19.6931 36.0132 19.7119 36.0587Q19.7308 36.1042 19.7404 36.1525Q19.75 36.2008 19.75 36.25Q19.75 36.4531 19.6719 36.6394Q19.5957 36.819 19.457 36.9572Q19.3184 37.0952 19.1387 37.1713Q18.9531 37.25 18.75 37.25Q18.5469 37.25 18.3613 37.1713Q18.1816 37.0952 18.043 36.9572Q17.9043 36.819 17.8281 36.6394Q17.75 36.4531 17.75 36.25ZM5 13.75L16.7441 20.4708L16.4961 20.9048L16.0625 20.6565L16.5586 19.7886L16.9922 20.0369L16.7441 20.4708L5 13.75L5.24805 13.316L5.68164 13.5643L5.18555 14.4323L4.75195 14.184L5 13.75ZM4.50391 14.6179Q4.4612 14.5935 4.42408 14.5611Q4.38696 14.5288 4.35686 14.4899Q4.32675 14.4509 4.30482 14.4068Q4.28288 14.3628 4.26996 14.3152Q4.25704 14.2677 4.25362 14.2186Q4.25021 14.1695 4.25644 14.1206Q4.26267 14.0718 4.2783 14.0251Q4.29393 13.9784 4.31836 13.9357L4.81445 13.0677Q4.83888 13.025 4.87118 12.9878Q4.90347 12.9507 4.94238 12.9205Q4.98129 12.8904 5.02533 12.8684Q5.06937 12.8465 5.11685 12.8336Q5.16432 12.8206 5.2134 12.8172Q5.26248 12.8138 5.31128 12.8201Q5.36009 12.8263 5.40674 12.842Q5.45339 12.8576 5.49609 12.8821L17.2422 19.6029Q17.2849 19.6274 17.322 19.6597Q17.3591 19.692 17.3892 19.731Q17.4193 19.7699 17.4413 19.814Q17.4632 19.8581 17.4761 19.9056Q17.4891 19.9531 17.4925 20.0022Q17.4959 20.0513 17.4897 20.1002Q17.4834 20.149 17.4678 20.1957Q17.4522 20.2424 17.4277 20.2852L16.9297 21.1532Q16.9053 21.1959 16.873 21.2331Q16.8407 21.2702 16.8018 21.3004Q16.7628 21.3305 16.7188 21.3524Q16.6748 21.3744 16.6273 21.3873Q16.5798 21.4002 16.5307 21.4036Q16.4817 21.407 16.4329 21.4008Q16.3841 21.3945 16.3374 21.3789Q16.2908 21.3632 16.248 21.3387L4.50391 14.6179ZM16.7441 20.4708Q17.6836 21.0081 18.75 21.0081L18.75 21.5081L18.25 21.5081L18.25 20.5081L18.75 20.5081L18.75 21.0081Q17.6836 21.0081 16.7441 20.4708L16.9922 20.0367L17.4277 20.285L16.9297 21.1531L16.4961 20.9049L16.7441 20.4708ZM16.248 21.339Q16.2053 21.3145 16.1682 21.2822Q16.1311 21.2499 16.101 21.2109Q16.0709 21.172 16.049 21.1279Q16.027 21.0838 16.0141 21.0363Q16.0012 20.9888 15.9978 20.9397Q15.9944 20.8905 16.0006 20.8417Q16.0068 20.7929 16.0224 20.7462Q16.0381 20.6995 16.0625 20.6567L16.5586 19.7886Q16.583 19.7458 16.6153 19.7087Q16.6476 19.6715 16.6865 19.6414Q16.7254 19.6112 16.7695 19.5893Q16.8135 19.5673 16.861 19.5544Q16.9085 19.5414 16.9575 19.538Q17.0066 19.5346 17.0554 19.5408Q17.1042 19.547 17.1509 19.5627Q17.1975 19.5783 17.2402 19.6028Q17.9492 20.0081 18.75 20.0081Q18.7992 20.0081 18.8475 20.0177Q18.8958 20.0273 18.9413 20.0461Q18.9868 20.065 19.0278 20.0923Q19.0687 20.1197 19.1036 20.1545Q19.1384 20.1893 19.1657 20.2303Q19.1931 20.2712 19.2119 20.3167Q19.2308 20.3622 19.2404 20.4105Q19.25 20.4588 19.25 20.5081L19.25 21.5081Q19.25 21.5573 19.2404 21.6056Q19.2308 21.6539 19.2119 21.6994Q19.1931 21.7449 19.1657 21.7858Q19.1384 21.8268 19.1036 21.8616Q19.0687 21.8964 19.0278 21.9238Q18.9868 21.9511 18.9413 21.97Q18.8958 21.9888 18.8475 21.9984Q18.7992 22.0081 18.75 22.0081Q18.0938 22.0081 17.457 21.8375Q16.8223 21.6676 16.248 21.339ZM18.75 21.0081Q19.8164 21.0081 20.7559 20.4708L21.0039 20.9049L20.5703 21.1531L20.0723 20.2849L20.5078 20.0367L20.7559 20.4708Q19.8164 21.0081 18.75 21.0081L18.75 20.5081L19.25 20.5081L19.25 21.5081L18.75 21.5081L18.75 21.0081ZM18.75 22.0081Q18.7008 22.0081 18.6525 21.9984Q18.6042 21.9888 18.5587 21.97Q18.5132 21.9511 18.4722 21.9238Q18.4313 21.8964 18.3964 21.8616Q18.3616 21.8268 18.3343 21.7858Q18.3069 21.7449 18.2881 21.6994Q18.2692 21.6539 18.2596 21.6056Q18.25 21.5573 18.25 21.5081L18.25 20.5081Q18.25 20.4588 18.2596 20.4105Q18.2692 20.3622 18.2881 20.3167Q18.3069 20.2712 18.3343 20.2303Q18.3616 20.1893 18.3964 20.1545Q18.4313 20.1197 18.4722 20.0923Q18.5132 20.065 18.5587 20.0461Q18.6042 20.0273 18.6525 20.0177Q18.7008 20.0081 18.75 20.0081Q19.5508 20.0081 20.2598 19.6028Q20.3025 19.5783 20.3491 19.5627Q20.3958 19.547 20.4446 19.5408Q20.4934 19.5346 20.5425 19.538Q20.5915 19.5414 20.639 19.5544Q20.6865 19.5673 20.7305 19.5893Q20.7746 19.6112 20.8135 19.6414Q20.8524 19.6715 20.8847 19.7087Q20.917 19.7458 20.9414 19.7886L21.4375 20.6567Q21.4619 20.6995 21.4776 20.7462Q21.4932 20.7929 21.4994 20.8417Q21.5056 20.8906 21.5022 20.9397Q21.4988 20.9889 21.4859 21.0364Q21.473 21.0839 21.451 21.128Q21.4291 21.172 21.399 21.211Q21.3689 21.2499 21.3318 21.2822Q21.2947 21.3145 21.252 21.339Q20.6777 21.6676 20.043 21.8375Q19.4062 22.0081 18.75 22.0081ZM20.7559 20.4708L32.5 13.75L32.748 14.184L32.3145 14.4323L31.8184 13.5643L32.252 13.316L32.5 13.75L20.7559 20.4708L20.5078 20.0369L20.9414 19.7886L21.4375 20.6565L21.0039 20.9048L20.7559 20.4708ZM21.252 21.3387Q21.2092 21.3632 21.1626 21.3789Q21.1159 21.3945 21.0671 21.4008Q21.0183 21.407 20.9693 21.4036Q20.9202 21.4002 20.8727 21.3873Q20.8252 21.3744 20.7812 21.3524Q20.7372 21.3305 20.6982 21.3004Q20.6593 21.2702 20.627 21.2331Q20.5947 21.1959 20.5703 21.1532L20.0723 20.2852Q20.0478 20.2424 20.0322 20.1957Q20.0166 20.149 20.0103 20.1002Q20.0041 20.0513 20.0075 20.0022Q20.0109 19.9531 20.0239 19.9056Q20.0368 19.8581 20.0587 19.814Q20.0807 19.7699 20.1108 19.731Q20.1409 19.692 20.178 19.6597Q20.2151 19.6274 20.2578 19.6029L32.0039 12.8821Q32.0466 12.8576 32.0933 12.842Q32.1399 12.8263 32.1887 12.8201Q32.2375 12.8138 32.2866 12.8172Q32.3357 12.8206 32.3832 12.8336Q32.4306 12.8465 32.4747 12.8684Q32.5187 12.8904 32.5576 12.9205Q32.5965 12.9507 32.6288 12.9878Q32.6611 13.025 32.6855 13.0677L33.1816 13.9357Q33.2061 13.9784 33.2217 14.0251Q33.2373 14.0718 33.2436 14.1206Q33.2498 14.1695 33.2464 14.2186Q33.243 14.2677 33.23 14.3152Q33.2171 14.3628 33.1952 14.4068Q33.1732 14.4509 33.1431 14.4899Q33.113 14.5288 33.0759 14.5611Q33.0388 14.5935 32.9961 14.6179L21.252 21.3387ZM18.75 21.7339L18.75 36.25L18.25 36.25L18.25 35.75L19.25 35.75L19.25 36.25L18.75 36.25L18.75 21.7339L19.25 21.7339L19.25 22.2339L18.25 22.2339L18.25 21.7339L18.75 21.7339ZM17.75 21.7339Q17.75 21.6846 17.7596 21.6363Q17.7692 21.588 17.7881 21.5425Q17.8069 21.497 17.8343 21.4561Q17.8616 21.4152 17.8964 21.3803Q17.9313 21.3455 17.9722 21.3181Q18.0132 21.2908 18.0587 21.2719Q18.1042 21.2531 18.1525 21.2435Q18.2008 21.2339 18.25 21.2339L19.25 21.2339Q19.2992 21.2339 19.3475 21.2435Q19.3958 21.2531 19.4413 21.2719Q19.4868 21.2908 19.5278 21.3181Q19.5687 21.3455 19.6036 21.3803Q19.6384 21.4152 19.6657 21.4561Q19.6931 21.497 19.7119 21.5425Q19.7308 21.588 19.7404 21.6363Q19.75 21.6846 19.75 21.7339L19.75 36.25Q19.75 36.2992 19.7404 36.3475Q19.7308 36.3958 19.7119 36.4413Q19.6931 36.4868 19.6657 36.5278Q19.6384 36.5687 19.6036 36.6036Q19.5687 36.6384 19.5278 36.6657Q19.4868 36.6931 19.4413 36.7119Q19.3958 36.7308 19.3475 36.7404Q19.2992 36.75 19.25 36.75L18.25 36.75Q18.2008 36.75 18.1525 36.7404Q18.1042 36.7308 18.0587 36.7119Q18.0132 36.6931 17.9722 36.6657Q17.9313 36.6384 17.8964 36.6036Q17.8616 36.5687 17.8343 36.5278Q17.8069 36.4868 17.7881 36.4413Q17.7692 36.3958 17.7596 36.3475Q17.75 36.2992 17.75 36.25L17.75 21.7339Z" fill="#000000" fill-opacity="1.000000" fill-rule="nonzero"/>
</svg>
