<svg width="40.000000" height="40.000000" viewBox="0 0 40 40" fill="none" xmlns="http://www.w3.org/2000/svg" xmlns:xlink="http://www.w3.org/1999/xlink">
	<desc>
			Created with Pixso.
	</desc>
	<defs/>
	<rect id="Icon/safety" width="40.000000" height="40.000000" fill="#FFFFFF" fill-opacity="0"/>
	<path id="Path" d="M12.01 8.04C11.35 8.24 10.76 8.41 10.24 8.57C9.04 8.97 7.81 9.28 6.56 9.53C6.37 9.57 6.24 9.74 6.25 9.93L6.25 17.59C6.25 23.72 9.61 29.36 15.03 32.33L19.79 34.94C19.92 35.01 20.07 35.01 20.19 34.94L24.96 32.33C30.38 29.36 33.74 23.72 33.75 17.59L33.75 9.93C33.75 9.74 33.62 9.57 33.43 9.53C32.18 9.28 30.95 8.97 29.75 8.57C29.23 8.41 28.65 8.24 27.98 8.04C25.29 7.26 22.68 6.26 20.17 5.04C20.06 4.98 19.93 4.98 19.82 5.04C17.31 6.26 14.7 7.26 12.01 8.04Z" stroke="#161413" stroke-opacity="1.000000" stroke-width="1.000000"/>
	<path id="Path" d="M15.68 18.78L18.92 22.25L26.93 13.25L15.68 18.78Z" fill="#000000" fill-opacity="0" fill-rule="nonzero"/>
	<path id="Path" d="M15.68 18.78L18.92 22.25L26.93 13.25" stroke="#161413" stroke-opacity="1.000000" stroke-width="1.000000"/>
</svg>
