<svg width="40.000000" height="40.000000" viewBox="0 0 40 40" fill="none" xmlns="http://www.w3.org/2000/svg" xmlns:xlink="http://www.w3.org/1999/xlink">
	<desc>
			Created with Pixso.
	</desc>
	<defs/>
	<rect id="Icon/resistant" width="40.000000" height="40.000000" fill="#FFFFFF" fill-opacity="0"/>
	<path id="Path" d="M12.5 5C11.11 5 10 6.03 10 7.32L10 18.92C10 20.21 11.11 21.25 12.5 21.25L27.5 21.25C28.88 21.25 30 20.21 30 18.92L30 7.32C30 6.03 28.88 5 27.5 5L12.5 5Z" stroke="#000000" stroke-opacity="1.000000" stroke-width="1.000000" stroke-linejoin="round"/>
	<mask id="mask_152_1824" fill="white">
		<path id="Shape" d="M10 13C10.2754 13 10.5 12.7761 10.5 12.5C10.5 12.2239 10.2754 12 10 12L10 13ZM4.48242 13.2322L4.12891 12.8787L4.12891 12.8787L4.48242 13.2322ZM4.48242 28.0177L4.12891 28.3713L4.12891 28.3713L4.48242 28.0177ZM35.5176 13.2322L35.8711 12.8787L35.8711 12.8787L35.5176 13.2322ZM30 12C29.7246 12 29.5 12.2239 29.5 12.5C29.5 12.7761 29.7246 13 30 13L30 12ZM12.9902 28.848C13.0449 28.5773 12.8691 28.3138 12.5977 28.2598C12.3281 28.2056 12.0645 28.3811 12.0098 28.652L12.9902 28.848ZM10.7598 34.902C10.7051 35.1727 10.8809 35.4362 11.1523 35.4902C11.4219 35.5444 11.6855 35.3689 11.7402 35.098L10.7598 34.902ZM27.9902 28.652C27.9355 28.3811 27.6719 28.2056 27.4023 28.2598C27.1309 28.3138 26.9551 28.5773 27.0098 28.848L27.9902 28.652ZM28.2598 35.098C28.3145 35.3689 28.5781 35.5444 28.8477 35.4902C29.1191 35.4362 29.2949 35.1727 29.2402 34.902L28.2598 35.098ZM10 12L6.25 12L6.25 13L10 13L10 12ZM6.25 12C5.45508 12 4.69141 12.316 4.12891 12.8787L4.83594 13.5858C5.21094 13.2107 5.71875 13 6.25 13L6.25 12ZM4.12891 12.8787C3.56641 13.4413 3.25 14.2043 3.25 15L4.25 15C4.25 14.4696 4.46094 13.9608 4.83594 13.5858L4.12891 12.8787ZM3.25 15L3.25 26.25L4.25 26.25L4.25 15L3.25 15ZM3.25 26.25C3.25 27.0455 3.56641 27.8088 4.12891 28.3713L4.83594 27.6642C4.46094 27.2892 4.25 26.7804 4.25 26.25L3.25 26.25ZM4.12891 28.3713C4.69141 28.9338 5.45508 29.25 6.25 29.25L6.25 28.25C5.71875 28.25 5.21094 28.0392 4.83594 27.6642L4.12891 28.3713ZM6.25 29.25L33.75 29.25L33.75 28.25L6.25 28.25L6.25 29.25ZM33.75 29.25C34.5449 29.25 35.3086 28.9338 35.8711 28.3713L35.1641 27.6642C34.7891 28.0392 34.2812 28.25 33.75 28.25L33.75 29.25ZM35.8711 28.3713C36.4336 27.8088 36.75 27.0457 36.75 26.25L35.75 26.25C35.75 26.7804 35.5391 27.2892 35.1641 27.6642L35.8711 28.3713ZM36.75 26.25L36.75 15L35.75 15L35.75 26.25L36.75 26.25ZM36.75 15C36.75 14.2043 36.4336 13.4413 35.8711 12.8787L35.1641 13.5857C35.5391 13.9608 35.75 14.4696 35.75 15L36.75 15ZM35.8711 12.8787C35.3086 12.316 34.5449 12 33.75 12L33.75 13C34.2812 13 34.7891 13.2107 35.1641 13.5857L35.8711 12.8787ZM33.75 12L30 12L30 13L33.75 13L33.75 12ZM12.0098 28.652L10.7598 34.902L11.7402 35.098L12.9902 28.848L12.0098 28.652ZM27.0098 28.848L28.2598 35.098L29.2402 34.902L27.9902 28.652L27.0098 28.848Z" fill="" fill-opacity="1.000000" fill-rule="nonzero"/>
	</mask>
	<path id="Shape" d="M10 12.5L10 12.5Q10 12.5 10 12.5L10 12L10.5 12L10.5 13L10 13L10 12.5ZM10 13.5Q9.95075 13.5 9.90245 13.4904Q9.85415 13.4808 9.80866 13.4619Q9.76316 13.4431 9.72221 13.4157Q9.68127 13.3884 9.64645 13.3536Q9.61162 13.3187 9.58426 13.2778Q9.5569 13.2368 9.53806 13.1913Q9.51921 13.1458 9.50961 13.0975Q9.5 13.0492 9.5 13L9.5 12Q9.5 11.9508 9.50961 11.9025Q9.51921 11.8542 9.53806 11.8087Q9.5569 11.7632 9.58426 11.7222Q9.61162 11.6813 9.64645 11.6464Q9.68127 11.6116 9.72221 11.5843Q9.76316 11.5569 9.80866 11.5381Q9.85415 11.5192 9.90245 11.5096Q9.95075 11.5 10 11.5Q10.2031 11.5 10.3887 11.5787Q10.5684 11.6548 10.707 11.7928Q10.8457 11.931 10.9219 12.1106Q11 12.2969 11 12.5Q11 12.7031 10.9219 12.8894Q10.8457 13.069 10.707 13.2072Q10.5684 13.3452 10.3887 13.4213Q10.2031 13.5 10 13.5ZM4.12891 13.5858L3.77539 13.2322L4.12891 12.8787L4.48242 13.2322L4.48242 13.2322L4.12891 12.8787L4.48242 12.5251L4.83594 12.8787L4.48242 13.2322L4.12891 13.5858ZM4.83594 12.8787Q4.87076 12.9135 4.89811 12.9544Q4.92547 12.9954 4.94431 13.0409Q4.96316 13.0864 4.97276 13.1347Q4.98237 13.183 4.98237 13.2322Q4.98237 13.2815 4.97276 13.3298Q4.96316 13.3781 4.94431 13.4236Q4.92547 13.4691 4.89811 13.51Q4.87076 13.551 4.83594 13.5858Q4.80112 13.6206 4.76018 13.648Q4.71923 13.6753 4.67374 13.6942Q4.62825 13.713 4.57996 13.7226Q4.53166 13.7322 4.48242 13.7322Q4.43318 13.7322 4.38489 13.7226Q4.33659 13.713 4.2911 13.6942Q4.24561 13.6753 4.20467 13.648Q4.16372 13.6206 4.12891 13.5858L3.77539 13.2322Q3.74057 13.1974 3.71322 13.1564Q3.68586 13.1155 3.66702 13.07Q3.64817 13.0245 3.63857 12.9762Q3.62896 12.9279 3.62896 12.8787Q3.62896 12.8294 3.63857 12.7811Q3.64817 12.7328 3.66702 12.6873Q3.68586 12.6418 3.71322 12.6009Q3.74057 12.56 3.77539 12.5251L3.77539 12.5251Q3.77539 12.5251 3.77539 12.5251Q3.81021 12.4903 3.85115 12.4629Q3.89209 12.4356 3.93758 12.4167Q3.98308 12.3979 4.03137 12.3883Q4.07967 12.3787 4.12891 12.3787Q4.17815 12.3787 4.22644 12.3883Q4.27473 12.3979 4.32023 12.4167Q4.36572 12.4356 4.40666 12.4629Q4.4476 12.4903 4.48242 12.5251L4.83594 12.8787ZM4.83594 28.3712L4.48242 28.7249L4.12891 28.3713L4.48828 28.0234L4.48828 28.0234L4.12891 28.3713L3.77539 28.0178L4.12891 27.6642L4.48242 28.0177L4.83594 28.3712ZM4.12891 27.6642Q4.16372 27.6294 4.20467 27.602Q4.24561 27.5747 4.2911 27.5558Q4.33659 27.537 4.38489 27.5274Q4.43318 27.5178 4.48242 27.5178Q4.53166 27.5178 4.57996 27.5274Q4.62825 27.537 4.67374 27.5558Q4.71923 27.5747 4.76018 27.602Q4.80112 27.6294 4.83594 27.6642Q4.87076 27.699 4.89811 27.7399Q4.92547 27.7809 4.94431 27.8264Q4.96315 27.8719 4.97276 27.9202Q4.98237 27.9685 4.98237 28.0177Q4.98237 28.0669 4.97276 28.1152Q4.96315 28.1635 4.94431 28.209Q4.92547 28.2545 4.89811 28.2955Q4.87076 28.3364 4.83594 28.3712L4.48242 28.7249Q4.47852 28.7277 4.47656 28.7305Q4.44117 28.7647 4.39977 28.7914Q4.35838 28.8181 4.31257 28.8363Q4.26677 28.8544 4.21831 28.8632Q4.16986 28.8721 4.12062 28.8713Q4.07138 28.8705 4.02324 28.8601Q3.97511 28.8498 3.92993 28.8302Q3.88475 28.8106 3.84426 28.7826Q3.80377 28.7546 3.76953 28.7192L3.76953 28.7192Q3.73568 28.6842 3.70921 28.6433Q3.68275 28.6024 3.66468 28.5572Q3.6466 28.5119 3.6376 28.464Q3.6286 28.4162 3.62901 28.3674Q3.62941 28.3187 3.63922 28.2709Q3.64902 28.2232 3.66784 28.1782Q3.68667 28.1332 3.71381 28.0928Q3.74095 28.0523 3.77539 28.0178L4.12891 27.6642ZM35.1641 12.8787L35.5176 12.5251L35.8711 12.8787L35.5527 13.2648L35.5527 13.2648L35.8711 12.8787L36.2246 13.2323L35.8711 13.5858L35.5176 13.2322L35.1641 12.8787ZM35.8711 13.5858Q35.8363 13.6206 35.7953 13.648Q35.7544 13.6753 35.7089 13.6942Q35.6634 13.713 35.6151 13.7226Q35.5668 13.7322 35.5176 13.7322Q35.4683 13.7322 35.42 13.7226Q35.3717 13.713 35.3263 13.6941Q35.2808 13.6753 35.2398 13.6479Q35.1989 13.6205 35.1641 13.5857Q35.1292 13.5509 35.1019 13.5099Q35.0745 13.469 35.0557 13.4235Q35.0368 13.378 35.0272 13.3297Q35.0176 13.2814 35.0176 13.2322Q35.0176 13.1829 35.0272 13.1346Q35.0368 13.0863 35.0557 13.0409Q35.0745 12.9954 35.1019 12.9544Q35.1292 12.9135 35.1641 12.8787L35.5176 12.5251Q35.5502 12.4925 35.5882 12.4664Q35.6263 12.4403 35.6685 12.4216Q35.7108 12.4029 35.7557 12.3922Q35.8007 12.3816 35.8469 12.3793Q35.893 12.3771 35.9389 12.3834Q35.9847 12.3896 36.0286 12.4041Q36.0726 12.4187 36.1131 12.441Q36.1537 12.4633 36.1895 12.4927L36.1895 12.4927Q36.207 12.5081 36.2246 12.5251Q36.2594 12.56 36.2868 12.6009Q36.3141 12.6419 36.333 12.6874Q36.3518 12.7329 36.3614 12.7812Q36.371 12.8295 36.371 12.8787Q36.371 12.928 36.3614 12.9763Q36.3518 13.0246 36.333 13.0701Q36.3141 13.1156 36.2868 13.1565Q36.2594 13.1975 36.2246 13.2323L35.8711 13.5858ZM30 12.5L30 12.5Q30 12.5 30 12.5L30 13L29.5 13L29.5 12L30 12L30 12.5ZM30 11.5Q30.0492 11.5 30.0975 11.5096Q30.1458 11.5192 30.1913 11.5381Q30.2368 11.5569 30.2778 11.5843Q30.3187 11.6116 30.3536 11.6464Q30.3884 11.6813 30.4157 11.7222Q30.4431 11.7632 30.4619 11.8087Q30.4808 11.8542 30.4904 11.9025Q30.5 11.9508 30.5 12L30.5 13Q30.5 13.0492 30.4904 13.0975Q30.4808 13.1458 30.4619 13.1913Q30.4431 13.2368 30.4157 13.2778Q30.3884 13.3187 30.3536 13.3536Q30.3187 13.3884 30.2778 13.4157Q30.2368 13.4431 30.1913 13.4619Q30.1458 13.4808 30.0975 13.4904Q30.0492 13.5 30 13.5Q29.7969 13.5 29.6113 13.4213Q29.4316 13.3452 29.293 13.2072Q29.1543 13.069 29.0781 12.8894Q29 12.7031 29 12.5Q29 12.2969 29.0781 12.1106Q29.1543 11.931 29.293 11.7928Q29.4316 11.6548 29.6113 11.5787Q29.7969 11.5 30 11.5ZM12.5 28.75Q12.5 28.75 12.5 28.75Q12.5 28.75 12.5 28.75L12.0098 28.652L12.1074 28.1616L13.0879 28.3578L12.9902 28.848L12.5 28.75ZM13.4805 28.9462Q13.4708 28.9944 13.452 29.0399Q13.4331 29.0854 13.4058 29.1263Q13.3784 29.1672 13.3436 29.202Q13.3088 29.2368 13.2678 29.2641Q13.2269 29.2914 13.1814 29.3102Q13.1359 29.329 13.0876 29.3386Q13.0393 29.3481 12.9901 29.3481Q12.9409 29.348 12.8926 29.3384L11.9121 29.1422Q11.8638 29.1326 11.8183 29.1137Q11.7729 29.0948 11.7319 29.0674Q11.691 29.04 11.6562 29.0051Q11.6214 28.9703 11.5941 28.9293Q11.5667 28.8883 11.5479 28.8428Q11.5291 28.7973 11.5195 28.7489Q11.5099 28.7006 11.5099 28.6514Q11.5099 28.6021 11.5195 28.5538Q11.5586 28.3547 11.6738 28.1875Q11.7832 28.0264 11.9453 27.918Q12.1074 27.8096 12.2988 27.7703Q12.4961 27.7296 12.6953 27.7694Q12.8945 27.8092 13.0625 27.9231Q13.2246 28.0327 13.332 28.1953Q13.4414 28.3579 13.4805 28.5488Q13.5195 28.7469 13.4805 28.9462ZM11.25 35L11.25 35Q11.25 35 11.25 35L11.25 35L11.7402 35.098L11.6426 35.5884L10.6621 35.3922L10.7598 34.902L11.25 35ZM10.2695 34.8038Q10.2791 34.7555 10.298 34.7101Q10.3169 34.6646 10.3442 34.6237Q10.3716 34.5828 10.4064 34.548Q10.4412 34.5132 10.4822 34.4859Q10.5231 34.4586 10.5686 34.4398Q10.6141 34.421 10.6624 34.4114Q10.7107 34.4019 10.7599 34.4019Q10.8091 34.402 10.8574 34.4116L11.8379 34.6078Q11.8862 34.6174 11.9317 34.6363Q11.9771 34.6552 12.0181 34.6826Q12.059 34.71 12.0938 34.7449Q12.1286 34.7797 12.1559 34.8207Q12.1833 34.8617 12.2021 34.9072Q12.2209 34.9527 12.2305 35.0011Q12.2401 35.0494 12.2401 35.0986Q12.2401 35.1479 12.2305 35.1962Q12.1914 35.3953 12.0762 35.5625Q11.9668 35.7236 11.8047 35.832Q11.6426 35.9404 11.4512 35.9797Q11.2539 36.0204 11.0547 35.9806Q10.8555 35.9408 10.6875 35.8269Q10.5254 35.7173 10.418 35.5547Q10.3086 35.3921 10.2695 35.2012Q10.2305 35.0031 10.2695 34.8038ZM27.5 28.75L27.5 28.75Q27.5 28.75 27.5 28.75Q27.5 28.75 27.5 28.75L27.0098 28.848L26.9121 28.3578L27.8926 28.1616L27.9902 28.652L27.5 28.75ZM28.4805 28.5538Q28.4901 28.6021 28.4901 28.6514Q28.4901 28.7006 28.4805 28.7489Q28.4709 28.7973 28.4521 28.8428Q28.4333 28.8883 28.4059 28.9293Q28.3786 28.9703 28.3438 29.0051Q28.309 29.04 28.2681 29.0674Q28.2271 29.0948 28.1817 29.1137Q28.1362 29.1326 28.0879 29.1422L27.1074 29.3384Q27.0591 29.348 27.0099 29.3481Q26.9607 29.3481 26.9124 29.3386Q26.8641 29.329 26.8186 29.3102Q26.7731 29.2914 26.7322 29.2641Q26.6912 29.2368 26.6564 29.202Q26.6216 29.1672 26.5942 29.1263Q26.5669 29.0854 26.548 29.0399Q26.5292 28.9944 26.5195 28.9462Q26.4805 28.7469 26.5195 28.5488Q26.5586 28.3579 26.668 28.1953Q26.7754 28.0327 26.9375 27.9231Q27.1055 27.8092 27.3047 27.7694Q27.5039 27.7296 27.7012 27.7703Q27.8926 27.8096 28.0547 27.918Q28.2168 28.0264 28.3262 28.1875Q28.4414 28.3547 28.4805 28.5538ZM28.75 35Q28.75 35 28.75 35Q28.75 35 28.75 35L29.2402 34.902L29.3379 35.3922L28.3574 35.5884L28.2598 35.098L28.75 35ZM27.7695 35.1962Q27.7599 35.1479 27.7599 35.0986Q27.7599 35.0494 27.7695 35.0011Q27.7791 34.9527 27.7979 34.9072Q27.8167 34.8617 27.8441 34.8207Q27.8714 34.7797 27.9062 34.7449Q27.941 34.71 27.9819 34.6826Q28.0229 34.6552 28.0683 34.6363Q28.1138 34.6174 28.1621 34.6078L29.1426 34.4116Q29.1909 34.402 29.2401 34.4019Q29.2893 34.4019 29.3376 34.4114Q29.3859 34.421 29.4314 34.4398Q29.4769 34.4586 29.5178 34.4859Q29.5588 34.5132 29.5936 34.548Q29.6284 34.5828 29.6558 34.6237Q29.6831 34.6646 29.702 34.7101Q29.7208 34.7555 29.7305 34.8038Q29.7695 35.0031 29.7305 35.2012Q29.6914 35.3921 29.582 35.5547Q29.4746 35.7173 29.3125 35.8269Q29.1445 35.9408 28.9453 35.9806Q28.7461 36.0204 28.5488 35.9797Q28.3574 35.9404 28.1953 35.832Q28.0332 35.7236 27.9238 35.5625Q27.8086 35.3953 27.7695 35.1962ZM10 12.5L6.25 12.5L6.25 12L6.75 12L6.75 13L6.25 13L6.25 12.5L10 12.5L10 13L9.5 13L9.5 12L10 12L10 12.5ZM10 11.5Q10.0492 11.5 10.0975 11.5096Q10.1458 11.5192 10.1913 11.5381Q10.2368 11.5569 10.2778 11.5843Q10.3187 11.6116 10.3536 11.6464Q10.3884 11.6813 10.4157 11.7222Q10.4431 11.7632 10.4619 11.8087Q10.4808 11.8542 10.4904 11.9025Q10.5 11.9508 10.5 12L10.5 13Q10.5 13.0492 10.4904 13.0975Q10.4808 13.1458 10.4619 13.1913Q10.4431 13.2368 10.4157 13.2778Q10.3884 13.3187 10.3536 13.3536Q10.3187 13.3884 10.2778 13.4157Q10.2368 13.4431 10.1913 13.4619Q10.1458 13.4808 10.0975 13.4904Q10.0492 13.5 10 13.5L6.25 13.5Q6.20075 13.5 6.15245 13.4904Q6.10416 13.4808 6.05866 13.4619Q6.01316 13.4431 5.97221 13.4157Q5.93127 13.3884 5.89645 13.3536Q5.86162 13.3187 5.83426 13.2778Q5.80691 13.2368 5.78806 13.1913Q5.76921 13.1458 5.75961 13.0975Q5.75 13.0492 5.75 13L5.75 12Q5.75 11.9508 5.75961 11.9025Q5.76921 11.8542 5.78806 11.8087Q5.80691 11.7632 5.83426 11.7222Q5.86162 11.6813 5.89645 11.6464Q5.93127 11.6116 5.97222 11.5843Q6.01316 11.5569 6.05866 11.5381Q6.10416 11.5192 6.15245 11.5096Q6.20075 11.5 6.25 11.5L10 11.5ZM6.25 12.5Q5.75195 12.5 5.29297 12.6903Q4.83398 12.8806 4.48242 13.2322L4.12891 12.8787L4.48242 12.5251L5.18945 13.2322L4.83594 13.5858L4.48242 13.2322Q4.83398 12.8806 5.29297 12.6903Q5.75195 12.5 6.25 12.5L6.25 13L5.75 13L5.75 12L6.25 12L6.25 12.5ZM6.25 11.5Q6.29925 11.5 6.34755 11.5096Q6.39584 11.5192 6.44134 11.5381Q6.48684 11.5569 6.52778 11.5843Q6.56873 11.6116 6.60355 11.6464Q6.63837 11.6813 6.66573 11.7222Q6.69309 11.7632 6.71194 11.8087Q6.73078 11.8542 6.74039 11.9025Q6.75 11.9508 6.75 12L6.75 13Q6.75 13.0492 6.74039 13.0975Q6.73078 13.1458 6.71194 13.1913Q6.69309 13.2368 6.66573 13.2778Q6.63837 13.3187 6.60355 13.3536Q6.56873 13.3884 6.52778 13.4157Q6.48684 13.4431 6.44134 13.4619Q6.39584 13.4808 6.34754 13.4904Q6.29925 13.5 6.25 13.5Q5.95117 13.5 5.67578 13.6141Q5.40039 13.7284 5.18945 13.9393Q5.15463 13.9741 5.11369 14.0015Q5.07275 14.0289 5.02726 14.0477Q4.98177 14.0665 4.93347 14.0762Q4.88518 14.0858 4.83594 14.0858Q4.7867 14.0858 4.7384 14.0762Q4.69011 14.0665 4.64462 14.0477Q4.59912 14.0289 4.55818 14.0015Q4.51724 13.9741 4.48242 13.9393L3.77539 13.2322Q3.74057 13.1974 3.71322 13.1564Q3.68586 13.1155 3.66702 13.07Q3.64817 13.0245 3.63857 12.9762Q3.62896 12.9279 3.62896 12.8787Q3.62896 12.8294 3.63857 12.7811Q3.64817 12.7328 3.66702 12.6873Q3.68586 12.6418 3.71322 12.6009Q3.74057 12.56 3.77539 12.5251Q4.26758 12.0328 4.91016 11.7665Q5.55469 11.5 6.25 11.5ZM4.48242 13.2322Q4.13086 13.5839 3.93945 14.0433Q3.75 14.5027 3.75 15L3.25 15L3.25 14.5L4.25 14.5L4.25 15L3.75 15Q3.75 14.5027 3.93945 14.0433Q4.13086 13.5839 4.48242 13.2322L4.83594 13.5858L4.48242 13.9393L3.77539 13.2322L4.12891 12.8787L4.48242 13.2322ZM3.77539 12.5251Q3.81021 12.4903 3.85115 12.4629Q3.89209 12.4356 3.93758 12.4167Q3.98308 12.3979 4.03137 12.3883Q4.07967 12.3787 4.12891 12.3787Q4.17815 12.3787 4.22644 12.3883Q4.27473 12.3979 4.32023 12.4167Q4.36572 12.4356 4.40666 12.4629Q4.4476 12.4903 4.48242 12.5251L5.18945 13.2322Q5.22427 13.267 5.25163 13.308Q5.27898 13.3489 5.29783 13.3944Q5.31667 13.4399 5.32628 13.4882Q5.33588 13.5365 5.33588 13.5858Q5.33588 13.635 5.32628 13.6833Q5.31667 13.7316 5.29783 13.7771Q5.27898 13.8226 5.25163 13.8636Q5.22427 13.9045 5.18945 13.9393Q4.97852 14.1503 4.86328 14.426Q4.75 14.7017 4.75 15Q4.75 15.0492 4.74039 15.0975Q4.73078 15.1458 4.71194 15.1913Q4.69309 15.2368 4.66573 15.2778Q4.63837 15.3187 4.60355 15.3536Q4.56873 15.3884 4.52778 15.4157Q4.48684 15.4431 4.44134 15.4619Q4.39584 15.4808 4.34755 15.4904Q4.29925 15.5 4.25 15.5L3.25 15.5Q3.20075 15.5 3.15245 15.4904Q3.10416 15.4808 3.05866 15.4619Q3.01316 15.4431 2.97221 15.4157Q2.93127 15.3884 2.89645 15.3536Q2.86162 15.3187 2.83426 15.2778Q2.80691 15.2368 2.78806 15.1913Q2.76921 15.1458 2.75961 15.0975Q2.75 15.0492 2.75 15Q2.75 14.3038 3.01562 13.6606Q3.2832 13.0175 3.77539 12.5251ZM3.75 15L3.75 26.25L3.25 26.25L3.25 25.75L4.25 25.75L4.25 26.25L3.75 26.25L3.75 15L4.25 15L4.25 15.5L3.25 15.5L3.25 15L3.75 15ZM2.75 15Q2.75 14.9508 2.75961 14.9025Q2.76921 14.8542 2.78806 14.8087Q2.80691 14.7632 2.83426 14.7222Q2.86162 14.6813 2.89645 14.6464Q2.93127 14.6116 2.97221 14.5843Q3.01316 14.5569 3.05866 14.5381Q3.10416 14.5192 3.15245 14.5096Q3.20075 14.5 3.25 14.5L4.25 14.5Q4.29925 14.5 4.34755 14.5096Q4.39584 14.5192 4.44134 14.5381Q4.48684 14.5569 4.52778 14.5843Q4.56873 14.6116 4.60355 14.6464Q4.63837 14.6813 4.66573 14.7222Q4.69309 14.7632 4.71194 14.8087Q4.73078 14.8542 4.74039 14.9025Q4.75 14.9508 4.75 15L4.75 26.25Q4.75 26.2992 4.74039 26.3475Q4.73078 26.3958 4.71194 26.4413Q4.69309 26.4868 4.66573 26.5278Q4.63837 26.5687 4.60355 26.6036Q4.56873 26.6384 4.52778 26.6657Q4.48684 26.6931 4.44134 26.7119Q4.39584 26.7308 4.34755 26.7404Q4.29925 26.75 4.25 26.75L3.25 26.75Q3.20075 26.75 3.15245 26.7404Q3.10416 26.7308 3.05866 26.7119Q3.01316 26.6931 2.97221 26.6657Q2.93127 26.6384 2.89645 26.6036Q2.86162 26.5687 2.83426 26.5278Q2.80691 26.4868 2.78806 26.4413Q2.76921 26.3958 2.75961 26.3475Q2.75 26.2992 2.75 26.25L2.75 15ZM3.75 26.25Q3.75 26.7473 3.93945 27.2067Q4.13086 27.6663 4.48242 28.0177L4.12891 28.3713L3.77539 28.0178L4.48242 27.3107L4.83594 27.6642L4.48242 28.0177Q4.13086 27.6663 3.93945 27.2067Q3.75 26.7473 3.75 26.25L4.25 26.25L4.25 26.75L3.25 26.75L3.25 26.25L3.75 26.25ZM2.75 26.25Q2.75 26.2008 2.75961 26.1525Q2.76921 26.1042 2.78806 26.0587Q2.80691 26.0132 2.83426 25.9722Q2.86162 25.9313 2.89645 25.8964Q2.93127 25.8616 2.97221 25.8343Q3.01316 25.8069 3.05866 25.7881Q3.10416 25.7692 3.15245 25.7596Q3.20075 25.75 3.25 25.75L4.25 25.75Q4.29925 25.75 4.34755 25.7596Q4.39584 25.7692 4.44134 25.7881Q4.48684 25.8069 4.52778 25.8343Q4.56873 25.8616 4.60355 25.8964Q4.63837 25.9313 4.66573 25.9722Q4.69309 26.0132 4.71194 26.0587Q4.73078 26.1042 4.74039 26.1525Q4.75 26.2008 4.75 26.25Q4.75 26.5483 4.86328 26.8241Q4.97852 27.0997 5.18945 27.3105Q5.22427 27.3454 5.25163 27.3863Q5.27898 27.4272 5.29783 27.4727Q5.31667 27.5182 5.32628 27.5665Q5.33588 27.6148 5.33588 27.6641Q5.33588 27.7133 5.32628 27.7616Q5.31667 27.81 5.29783 27.8555Q5.27898 27.901 5.25163 27.9419Q5.22427 27.9829 5.18945 28.0177L4.48242 28.7249Q4.4476 28.7597 4.40666 28.7871Q4.36572 28.8144 4.32023 28.8333Q4.27474 28.8521 4.22644 28.8617Q4.17815 28.8714 4.12891 28.8714Q4.07967 28.8714 4.03137 28.8618Q3.98308 28.8522 3.93758 28.8333Q3.89209 28.8145 3.85115 28.7871Q3.81021 28.7598 3.77539 28.725Q3.2832 28.2327 3.01562 27.5894Q2.75 26.9462 2.75 26.25ZM4.48242 28.0177Q4.83398 28.3694 5.29297 28.5597Q5.75195 28.75 6.25 28.75L6.25 29.25L5.75 29.25L5.75 28.25L6.25 28.25L6.25 28.75Q5.75195 28.75 5.29297 28.5597Q4.83398 28.3694 4.48242 28.0177L4.83594 27.6642L5.18945 28.0177L4.48242 28.7249L4.12891 28.3713L4.48242 28.0177ZM3.77539 28.725Q3.74057 28.6902 3.71322 28.6492Q3.68586 28.6083 3.66702 28.5628Q3.64817 28.5173 3.63857 28.469Q3.62896 28.4207 3.62896 28.3714Q3.62896 28.3222 3.63857 28.2739Q3.64817 28.2256 3.66702 28.1801Q3.68586 28.1346 3.71322 28.0936Q3.74057 28.0527 3.77539 28.0178L4.48242 27.3107Q4.51724 27.2758 4.55818 27.2485Q4.59912 27.2211 4.64462 27.2022Q4.69011 27.1834 4.7384 27.1738Q4.7867 27.1642 4.83594 27.1642Q4.88518 27.1641 4.93347 27.1737Q4.98177 27.1833 5.02726 27.2022Q5.07275 27.221 5.11369 27.2484Q5.15463 27.2757 5.18945 27.3105Q5.40039 27.5216 5.67578 27.6357Q5.95117 27.75 6.25 27.75Q6.29925 27.75 6.34755 27.7596Q6.39584 27.7692 6.44134 27.7881Q6.48684 27.8069 6.52778 27.8343Q6.56873 27.8616 6.60355 27.8964Q6.63837 27.9313 6.66573 27.9722Q6.69309 28.0132 6.71194 28.0587Q6.73078 28.1042 6.74039 28.1525Q6.75 28.2008 6.75 28.25L6.75 29.25Q6.75 29.2992 6.74039 29.3475Q6.73078 29.3958 6.71194 29.4413Q6.69309 29.4868 6.66573 29.5278Q6.63837 29.5687 6.60355 29.6036Q6.56873 29.6384 6.52778 29.6657Q6.48684 29.6931 6.44134 29.7119Q6.39584 29.7308 6.34754 29.7404Q6.29925 29.75 6.25 29.75Q5.55469 29.75 4.91016 29.4835Q4.26758 29.2172 3.77539 28.725ZM6.25 28.75L33.75 28.75L33.75 29.25L33.25 29.25L33.25 28.25L33.75 28.25L33.75 28.75L6.25 28.75L6.25 28.25L6.75 28.25L6.75 29.25L6.25 29.25L6.25 28.75ZM6.25 29.75Q6.20075 29.75 6.15245 29.7404Q6.10416 29.7308 6.05866 29.7119Q6.01316 29.6931 5.97221 29.6657Q5.93127 29.6384 5.89645 29.6036Q5.86162 29.5687 5.83426 29.5278Q5.80691 29.4868 5.78806 29.4413Q5.76921 29.3958 5.75961 29.3475Q5.75 29.2992 5.75 29.25L5.75 28.25Q5.75 28.2008 5.75961 28.1525Q5.76921 28.1042 5.78806 28.0587Q5.80691 28.0132 5.83426 27.9722Q5.86162 27.9313 5.89645 27.8964Q5.93127 27.8616 5.97222 27.8343Q6.01316 27.8069 6.05866 27.7881Q6.10416 27.7692 6.15245 27.7596Q6.20075 27.75 6.25 27.75L33.75 27.75Q33.7992 27.75 33.8475 27.7596Q33.8958 27.7692 33.9413 27.7881Q33.9868 27.8069 34.0278 27.8343Q34.0687 27.8616 34.1035 27.8964Q34.1384 27.9313 34.1657 27.9722Q34.1931 28.0132 34.2119 28.0587Q34.2308 28.1042 34.2404 28.1525Q34.25 28.2008 34.25 28.25L34.25 29.25Q34.25 29.2992 34.2404 29.3475Q34.2308 29.3958 34.2119 29.4413Q34.1931 29.4868 34.1657 29.5278Q34.1384 29.5687 34.1035 29.6036Q34.0687 29.6384 34.0278 29.6657Q33.9868 29.6931 33.9413 29.7119Q33.8958 29.7308 33.8475 29.7404Q33.7992 29.75 33.75 29.75L6.25 29.75ZM33.75 28.75Q34.248 28.75 34.707 28.5597Q35.166 28.3694 35.5176 28.0177L35.8711 28.3713L35.5176 28.7249L34.8105 28.0177L35.1641 27.6642L35.5176 28.0177Q35.166 28.3694 34.707 28.5597Q34.248 28.75 33.75 28.75L33.75 28.25L34.25 28.25L34.25 29.25L33.75 29.25L33.75 28.75ZM33.75 29.75Q33.7008 29.75 33.6525 29.7404Q33.6042 29.7308 33.5587 29.7119Q33.5132 29.6931 33.4722 29.6657Q33.4313 29.6384 33.3964 29.6036Q33.3616 29.5687 33.3343 29.5278Q33.3069 29.4868 33.2881 29.4413Q33.2692 29.3958 33.2596 29.3475Q33.25 29.2992 33.25 29.25L33.25 28.25Q33.25 28.2008 33.2596 28.1525Q33.2692 28.1042 33.2881 28.0587Q33.3069 28.0132 33.3343 27.9722Q33.3616 27.9313 33.3964 27.8964Q33.4313 27.8616 33.4722 27.8343Q33.5132 27.8069 33.5587 27.7881Q33.6042 27.7692 33.6525 27.7596Q33.7008 27.75 33.75 27.75Q34.0488 27.75 34.3242 27.6357Q34.5996 27.5216 34.8105 27.3107Q34.8105 27.3107 34.8105 27.3107Q34.8454 27.2758 34.8863 27.2485Q34.9272 27.2211 34.9727 27.2023Q35.0182 27.1834 35.0665 27.1738Q35.1148 27.1642 35.1641 27.1642Q35.2133 27.1642 35.2616 27.1738Q35.3099 27.1834 35.3554 27.2023Q35.4009 27.2211 35.4418 27.2485Q35.4828 27.2758 35.5176 27.3107L36.2246 28.0177Q36.2594 28.0525 36.2868 28.0935Q36.3141 28.1344 36.333 28.1799Q36.3518 28.2254 36.3614 28.2737Q36.371 28.3221 36.371 28.3713Q36.371 28.4205 36.3614 28.4688Q36.3518 28.5171 36.333 28.5626Q36.3141 28.6081 36.2868 28.6491Q36.2594 28.69 36.2246 28.7249Q35.7324 29.217 35.0898 29.4835Q34.4453 29.75 33.75 29.75ZM35.5176 28.0177Q35.8691 27.6661 36.0605 27.2067Q36.25 26.7472 36.25 26.25L36.75 26.25L36.75 26.75L35.75 26.75L35.75 26.25L36.25 26.25Q36.25 26.7472 36.0605 27.2067Q35.8691 27.6661 35.5176 28.0177L35.1641 27.6642L35.5176 27.3107L36.2246 28.0177L35.8711 28.3713L35.5176 28.0177ZM36.2246 28.7249Q36.1898 28.7597 36.1488 28.787Q36.1079 28.8144 36.0624 28.8332Q36.0169 28.8521 35.9686 28.8617Q35.9203 28.8713 35.8711 28.8713Q35.8219 28.8713 35.7736 28.8617Q35.7253 28.8521 35.6798 28.8332Q35.6343 28.8144 35.5933 28.787Q35.5524 28.7597 35.5176 28.7249L34.8105 28.0177Q34.8105 28.0177 34.8105 28.0177Q34.7757 27.9829 34.7484 27.9419Q34.721 27.901 34.7022 27.8555Q34.6833 27.81 34.6737 27.7617Q34.6641 27.7134 34.6641 27.6642Q34.6641 27.6149 34.6737 27.5666Q34.6833 27.5184 34.7022 27.4729Q34.721 27.4274 34.7484 27.3864Q34.7757 27.3455 34.8105 27.3107Q35.0215 27.0997 35.1367 26.824Q35.25 26.5483 35.25 26.25Q35.25 26.2008 35.2596 26.1525Q35.2692 26.1042 35.2881 26.0587Q35.3069 26.0132 35.3343 25.9722Q35.3616 25.9313 35.3964 25.8964Q35.4313 25.8616 35.4722 25.8343Q35.5132 25.8069 35.5587 25.7881Q35.6042 25.7692 35.6525 25.7596Q35.7008 25.75 35.75 25.75L36.75 25.75Q36.7992 25.75 36.8475 25.7596Q36.8958 25.7692 36.9413 25.7881Q36.9868 25.8069 37.0278 25.8343Q37.0687 25.8616 37.1036 25.8964Q37.1384 25.9313 37.1657 25.9722Q37.1931 26.0132 37.2119 26.0587Q37.2308 26.1042 37.2404 26.1525Q37.25 26.2008 37.25 26.25Q37.25 26.9462 36.9844 27.5895Q36.7168 28.2327 36.2246 28.7249ZM36.25 26.25L36.25 15L36.75 15L36.75 15.5L35.75 15.5L35.75 15L36.25 15L36.25 26.25L35.75 26.25L35.75 25.75L36.75 25.75L36.75 26.25L36.25 26.25ZM37.25 26.25Q37.25 26.2992 37.2404 26.3475Q37.2308 26.3958 37.2119 26.4413Q37.1931 26.4868 37.1657 26.5278Q37.1384 26.5687 37.1036 26.6036Q37.0687 26.6384 37.0278 26.6657Q36.9868 26.6931 36.9413 26.7119Q36.8958 26.7308 36.8475 26.7404Q36.7992 26.75 36.75 26.75L35.75 26.75Q35.7008 26.75 35.6525 26.7404Q35.6042 26.7308 35.5587 26.7119Q35.5132 26.6931 35.4722 26.6657Q35.4313 26.6384 35.3964 26.6036Q35.3616 26.5687 35.3343 26.5278Q35.3069 26.4868 35.2881 26.4413Q35.2692 26.3958 35.2596 26.3475Q35.25 26.2992 35.25 26.25L35.25 15Q35.25 14.9508 35.2596 14.9025Q35.2692 14.8542 35.2881 14.8087Q35.3069 14.7632 35.3343 14.7222Q35.3616 14.6813 35.3964 14.6464Q35.4313 14.6116 35.4722 14.5843Q35.5132 14.5569 35.5587 14.5381Q35.6042 14.5192 35.6525 14.5096Q35.7008 14.5 35.75 14.5L36.75 14.5Q36.7992 14.5 36.8475 14.5096Q36.8958 14.5192 36.9413 14.5381Q36.9868 14.5569 37.0278 14.5843Q37.0687 14.6116 37.1036 14.6464Q37.1384 14.6813 37.1657 14.7222Q37.1931 14.7632 37.2119 14.8087Q37.2308 14.8542 37.2404 14.9025Q37.25 14.9508 37.25 15L37.25 26.25ZM36.25 15Q36.25 14.5028 36.0605 14.0433Q35.8691 13.5839 35.5176 13.2322L35.8711 12.8787L36.2246 13.2323L35.5176 13.9393L35.1641 13.5857L35.5176 13.2322Q35.8691 13.5839 36.0605 14.0433Q36.25 14.5028 36.25 15L35.75 15L35.75 14.5L36.75 14.5L36.75 15L36.25 15ZM37.25 15Q37.25 15.0492 37.2404 15.0975Q37.2308 15.1458 37.2119 15.1913Q37.1931 15.2368 37.1657 15.2778Q37.1384 15.3187 37.1036 15.3536Q37.0687 15.3884 37.0278 15.4157Q36.9868 15.4431 36.9413 15.4619Q36.8958 15.4808 36.8475 15.4904Q36.7992 15.5 36.75 15.5L35.75 15.5Q35.7008 15.5 35.6525 15.4904Q35.6042 15.4808 35.5587 15.4619Q35.5132 15.4431 35.4722 15.4157Q35.4313 15.3884 35.3964 15.3536Q35.3616 15.3187 35.3343 15.2778Q35.3069 15.2368 35.2881 15.1913Q35.2692 15.1458 35.2596 15.0975Q35.25 15.0492 35.25 15Q35.25 14.7017 35.1367 14.426Q35.0215 14.1503 34.8105 13.9392Q34.7757 13.9044 34.7484 13.8634Q34.721 13.8225 34.7022 13.777Q34.6833 13.7315 34.6737 13.6832Q34.6641 13.6349 34.6641 13.5857Q34.6641 13.5365 34.6737 13.4882Q34.6833 13.4399 34.7022 13.3944Q34.721 13.3489 34.7484 13.3079Q34.7757 13.267 34.8105 13.2322L35.5176 12.5251Q35.5524 12.4903 35.5933 12.463Q35.6343 12.4356 35.6798 12.4168Q35.7253 12.3979 35.7736 12.3883Q35.8218 12.3787 35.8711 12.3787Q35.9203 12.3787 35.9686 12.3883Q36.0169 12.3979 36.0624 12.4168Q36.1079 12.4356 36.1488 12.463Q36.1898 12.4903 36.2246 12.5251Q36.7168 13.0175 36.9844 13.6605Q37.25 14.3038 37.25 15ZM35.5176 13.2322Q35.166 12.8806 34.707 12.6903Q34.248 12.5 33.75 12.5L33.75 12L34.25 12L34.25 13L33.75 13L33.75 12.5Q34.248 12.5 34.707 12.6903Q35.166 12.8806 35.5176 13.2322L35.1641 13.5857L34.8105 13.2322L35.5176 12.5251L35.8711 12.8787L35.5176 13.2322ZM36.2246 12.5251Q36.2594 12.56 36.2868 12.6009Q36.3141 12.6419 36.333 12.6874Q36.3518 12.7329 36.3614 12.7812Q36.371 12.8295 36.371 12.8787Q36.371 12.928 36.3614 12.9763Q36.3518 13.0246 36.333 13.0701Q36.3141 13.1156 36.2868 13.1565Q36.2594 13.1975 36.2246 13.2323L35.5176 13.9393Q35.4828 13.9741 35.4418 14.0015Q35.4009 14.0289 35.3554 14.0477Q35.3099 14.0665 35.2616 14.0762Q35.2133 14.0858 35.1641 14.0858Q35.1148 14.0858 35.0665 14.0762Q35.0182 14.0665 34.9727 14.0477Q34.9272 14.0289 34.8863 14.0015Q34.8454 13.9741 34.8105 13.9393Q34.5996 13.7284 34.3242 13.6141Q34.0488 13.5 33.75 13.5Q33.7008 13.5 33.6525 13.4904Q33.6042 13.4808 33.5587 13.4619Q33.5132 13.4431 33.4722 13.4157Q33.4313 13.3884 33.3964 13.3536Q33.3616 13.3187 33.3343 13.2778Q33.3069 13.2368 33.2881 13.1913Q33.2692 13.1458 33.2596 13.0975Q33.25 13.0492 33.25 13L33.25 12Q33.25 11.9508 33.2596 11.9025Q33.2692 11.8542 33.2881 11.8087Q33.3069 11.7632 33.3343 11.7222Q33.3616 11.6813 33.3964 11.6464Q33.4313 11.6116 33.4722 11.5843Q33.5132 11.5569 33.5587 11.5381Q33.6042 11.5192 33.6525 11.5096Q33.7008 11.5 33.75 11.5Q34.4453 11.5 35.0898 11.7664Q35.7324 12.0328 36.2246 12.5251ZM33.75 12.5L30 12.5L30 12L30.5 12L30.5 13L30 13L30 12.5L33.75 12.5L33.75 13L33.25 13L33.25 12L33.75 12L33.75 12.5ZM33.75 11.5Q33.7992 11.5 33.8475 11.5096Q33.8958 11.5192 33.9413 11.5381Q33.9868 11.5569 34.0278 11.5843Q34.0687 11.6116 34.1035 11.6464Q34.1384 11.6813 34.1657 11.7222Q34.1931 11.7632 34.2119 11.8087Q34.2308 11.8542 34.2404 11.9025Q34.25 11.9508 34.25 12L34.25 13Q34.25 13.0492 34.2404 13.0975Q34.2308 13.1458 34.2119 13.1913Q34.1931 13.2368 34.1657 13.2778Q34.1384 13.3187 34.1035 13.3536Q34.0687 13.3884 34.0278 13.4157Q33.9868 13.4431 33.9413 13.4619Q33.8958 13.4808 33.8475 13.4904Q33.7992 13.5 33.75 13.5L30 13.5Q29.9508 13.5 29.9025 13.4904Q29.8542 13.4808 29.8087 13.4619Q29.7632 13.4431 29.7222 13.4157Q29.6813 13.3884 29.6464 13.3536Q29.6116 13.3187 29.5843 13.2778Q29.5569 13.2368 29.5381 13.1913Q29.5192 13.1458 29.5096 13.0975Q29.5 13.0492 29.5 13L29.5 12Q29.5 11.9508 29.5096 11.9025Q29.5192 11.8542 29.5381 11.8087Q29.5569 11.7632 29.5843 11.7222Q29.6116 11.6813 29.6464 11.6464Q29.6813 11.6116 29.7222 11.5843Q29.7632 11.5569 29.8087 11.5381Q29.8542 11.5192 29.9025 11.5096Q29.9508 11.5 30 11.5L33.75 11.5ZM12.5 28.75L11.25 35L10.7598 34.902L10.8574 34.4116L11.8379 34.6078L11.7402 35.098L11.25 35L12.5 28.75L12.9902 28.848L12.8926 29.3384L11.9121 29.1422L12.0098 28.652L12.5 28.75ZM11.5195 28.5538Q11.5291 28.5055 11.548 28.4601Q11.5669 28.4146 11.5942 28.3737Q11.6216 28.3328 11.6564 28.298Q11.6912 28.2632 11.7322 28.2359Q11.7731 28.2086 11.8186 28.1898Q11.8641 28.171 11.9124 28.1614Q11.9607 28.1519 12.0099 28.1519Q12.0591 28.152 12.1074 28.1616L13.0879 28.3578Q13.1362 28.3674 13.1817 28.3863Q13.2271 28.4052 13.2681 28.4326Q13.309 28.46 13.3438 28.4949Q13.3786 28.5297 13.4059 28.5707Q13.4333 28.6117 13.4521 28.6572Q13.4709 28.7027 13.4805 28.7511Q13.4901 28.7994 13.4901 28.8486Q13.4901 28.8979 13.4805 28.9462L12.2305 35.1962Q12.2208 35.2444 12.202 35.2899Q12.1831 35.3354 12.1558 35.3763Q12.1284 35.4172 12.0936 35.452Q12.0588 35.4868 12.0178 35.5141Q11.9769 35.5414 11.9314 35.5602Q11.8859 35.579 11.8376 35.5886Q11.7893 35.5981 11.7401 35.5981Q11.6909 35.598 11.6426 35.5884L10.6621 35.3922Q10.6138 35.3826 10.5683 35.3637Q10.5229 35.3448 10.4819 35.3174Q10.441 35.29 10.4062 35.2551Q10.3714 35.2203 10.3441 35.1793Q10.3167 35.1383 10.2979 35.0928Q10.2791 35.0473 10.2695 34.9989Q10.2599 34.9506 10.2599 34.9014Q10.2599 34.8521 10.2695 34.8038L11.5195 28.5538ZM27.5 28.75L28.75 35L28.2598 35.098L28.1621 34.6078L29.1426 34.4116L29.2402 34.902L28.75 35L27.5 28.75L27.9902 28.652L28.0879 29.1422L27.1074 29.3384L27.0098 28.848L27.5 28.75ZM26.5195 28.9462Q26.5099 28.8979 26.5099 28.8486Q26.5099 28.7994 26.5195 28.7511Q26.5291 28.7027 26.5479 28.6572Q26.5667 28.6117 26.5941 28.5707Q26.6214 28.5297 26.6562 28.4949Q26.691 28.46 26.7319 28.4326Q26.7729 28.4052 26.8183 28.3863Q26.8638 28.3674 26.9121 28.3578L27.8926 28.1616Q27.9409 28.152 27.9901 28.1519Q28.0393 28.1519 28.0876 28.1614Q28.1359 28.171 28.1814 28.1898Q28.2269 28.2086 28.2678 28.2359Q28.3088 28.2632 28.3436 28.298Q28.3784 28.3328 28.4058 28.3737Q28.4331 28.4146 28.452 28.4601Q28.4708 28.5055 28.4805 28.5538L29.7305 34.8038Q29.7401 34.8521 29.7401 34.9014Q29.7401 34.9506 29.7305 34.9989Q29.7209 35.0473 29.7021 35.0928Q29.6833 35.1383 29.6559 35.1793Q29.6286 35.2203 29.5938 35.2551Q29.559 35.29 29.5181 35.3174Q29.4771 35.3448 29.4317 35.3637Q29.3862 35.3826 29.3379 35.3922L28.3574 35.5884Q28.3091 35.598 28.2599 35.5981Q28.2107 35.5981 28.1624 35.5886Q28.1141 35.579 28.0686 35.5602Q28.0231 35.5414 27.9822 35.5141Q27.9412 35.4868 27.9064 35.452Q27.8716 35.4172 27.8442 35.3763Q27.8169 35.3354 27.798 35.2899Q27.7791 35.2444 27.7695 35.1962L26.5195 28.9462Z" fill="#000000" fill-opacity="1.000000" fill-rule="nonzero"/>
</svg>
