<svg width="40.000000" height="40.000000" viewBox="0 0 40 40" fill="none" xmlns="http://www.w3.org/2000/svg" xmlns:xlink="http://www.w3.org/1999/xlink">
	<desc>
			Created with Pixso.
	</desc>
	<defs/>
	<rect id="Icon/custom" width="40.000000" height="40.000000" fill="#FFFFFF" fill-opacity="0"/>
	<path id="Path" d="M32.26 20C32.65 20 33.03 20.15 33.31 20.42C33.59 20.69 33.75 21.06 33.75 21.44L33.75 32.3C33.75 32.68 33.59 33.05 33.31 33.32C33.03 33.59 32.65 33.75 32.26 33.75L13.31 33.75C9.41 33.75 6.25 30.66 6.25 26.87C6.25 23.08 9.41 20 13.31 20L32.26 20Z" stroke="#000000" stroke-opacity="1.000000" stroke-width="1.000000" stroke-linejoin="round"/>
	<path id="Path" d="M16.25 26.25C16.25 24.86 15.13 23.75 13.75 23.75C12.36 23.75 11.25 24.86 11.25 26.25C11.25 27.63 12.36 28.75 13.75 28.75C15.13 28.75 16.25 27.63 16.25 26.25Z" stroke="#000000" stroke-opacity="1.000000" stroke-width="1.000000" stroke-linejoin="round"/>
	<mask id="mask_152_1801" fill="white">
		<path id="Shape" d="M10.709 27.0912C10.9863 27.0912 11.209 26.8673 11.209 26.5912C11.209 26.3151 10.9863 26.0912 10.709 26.0912L10.709 27.0912ZM6.25391 26.0912C5.97656 26.0912 5.75391 26.3151 5.75391 26.5912C5.75391 26.8673 5.97656 27.0912 6.25391 27.0912L6.25391 26.0912ZM16.2539 26.0912C15.9766 26.0912 15.7539 26.3151 15.7539 26.5912C15.7539 26.8673 15.9766 27.0912 16.2539 27.0912L16.2539 26.0912ZM33.75 27.0912C34.0254 27.0912 34.25 26.8673 34.25 26.5912C34.25 26.3151 34.0254 26.0912 33.75 26.0912L33.75 27.0912ZM7.96289 32.0048C8.15625 32.2013 8.47266 32.2035 8.66992 32.0095C8.86523 31.8157 8.86914 31.499 8.67383 31.3025L7.96289 32.0048ZM6.78711 29.3309L7.25 29.1418L7.25 29.1418L6.78711 29.3309ZM6.78711 23.8513L7.25 24.0405L7.25 24.0405L6.78711 23.8513ZM8.31836 21.5287L8.67383 21.8799L8.67383 21.8799L8.31836 21.5287ZM21.7188 7.94202L22.0742 8.29309L22.0762 8.29285L21.7188 7.94202ZM23.3398 7.61487L23.5332 7.15393L23.5332 7.15393L23.3398 7.61487ZM23.8223 7.94202L23.4668 8.29297L23.4668 8.29309L23.8223 7.94202ZM31.7051 15.9343L32.0605 15.5833L32.0605 15.5831L31.7051 15.9343ZM31.7051 18.0653L32.0605 18.4165L32.0605 18.4164L31.7051 18.0653ZM30.002 19.0812C29.8066 19.2778 29.8086 19.5944 30.0059 19.7883C30.2031 19.9822 30.5195 19.98 30.7129 19.7834L30.002 19.0812ZM20.0156 19.0812C19.8223 19.2778 19.8242 19.5944 20.0215 19.7883C20.2168 19.9822 20.5332 19.98 20.7285 19.7834L20.0156 19.0812ZM28.1191 12.2893C28.3125 12.0927 28.3105 11.7761 28.1152 11.5822C27.918 11.3883 27.6016 11.3904 27.4062 11.587L28.1191 12.2893ZM10.709 26.0912L6.25391 26.0912L6.25391 27.0912L10.709 27.0912L10.709 26.0912ZM16.2539 27.0912L33.75 27.0912L33.75 26.0912L16.2539 26.0912L16.2539 27.0912ZM8.67383 31.3025C8.06445 30.6844 7.58008 29.9503 7.25 29.1418L6.32422 29.52C6.70508 30.4489 7.25977 31.2932 7.96289 32.0048L8.67383 31.3025ZM7.25 29.1418C6.91992 28.3334 6.75 27.4667 6.75 26.5912L5.75 26.5912C5.75 27.5961 5.94531 28.5913 6.32422 29.52L7.25 29.1418ZM6.75 26.5912C6.75 25.7157 6.91992 24.849 7.25 24.0405L6.32422 23.6622C5.94531 24.5911 5.75 25.5862 5.75 26.5912L6.75 26.5912ZM7.25 24.0405C7.58008 23.2321 8.06445 22.4979 8.67383 21.8799L7.96289 21.1776C7.25977 21.8892 6.70508 22.7334 6.32422 23.6622L7.25 24.0405ZM8.67383 21.8799L22.0742 8.29309L21.3633 7.59094L7.96289 21.1776L8.67383 21.8799ZM22.0762 8.29285C22.168 8.19958 22.2754 8.12598 22.3945 8.07581L22.0078 7.15393C21.7656 7.25549 21.5469 7.40417 21.3633 7.59119L22.0762 8.29285ZM22.3945 8.07581C22.5137 8.02576 22.6426 8 22.7715 8L22.7715 7C22.5078 7 22.25 7.05237 22.0078 7.15393L22.3945 8.07581ZM22.7715 8C22.9004 8 23.0273 8.02576 23.1465 8.07581L23.5332 7.15393C23.293 7.05237 23.0332 7 22.7715 7L22.7715 8ZM23.1465 8.07581C23.2656 8.12598 23.375 8.19958 23.4668 8.29297L24.1777 7.59106C23.9941 7.40417 23.7754 7.25549 23.5332 7.15393L23.1465 8.07581ZM23.4668 8.29309L31.3496 16.2854L32.0605 15.5831L24.1777 7.59094L23.4668 8.29309ZM31.3496 16.2853C31.5352 16.4738 31.6406 16.7306 31.6406 16.9999L32.6406 16.9999C32.6406 16.4698 32.4336 15.9602 32.0605 15.5833L31.3496 16.2853ZM31.6406 16.9999C31.6406 17.2692 31.5352 17.526 31.3496 17.7144L32.0605 18.4164C32.4336 18.0396 32.6406 17.5298 32.6406 16.9999L31.6406 16.9999ZM31.3496 17.7142L30.002 19.0812L30.7129 19.7834L32.0605 18.4165L31.3496 17.7142ZM20.7285 19.7834L28.1191 12.2893L27.4062 11.587L20.0156 19.0812L20.7285 19.7834Z" fill="" fill-opacity="1.000000" fill-rule="nonzero"/>
	</mask>
	<path id="Shape" d="M10.709 26.5912L10.709 26.5912L10.709 26.5912L10.709 26.0912L11.209 26.0912L11.209 27.0912L10.709 27.0912L10.709 26.5912ZM10.709 27.5912Q10.6597 27.5912 10.6114 27.5816Q10.5631 27.572 10.5176 27.5531Q10.4721 27.5343 10.4312 27.5069Q10.3903 27.4796 10.3554 27.4447Q10.3206 27.4099 10.2932 27.369Q10.2659 27.328 10.247 27.2825Q10.2282 27.237 10.2186 27.1887Q10.209 27.1404 10.209 27.0912L10.209 26.0912Q10.209 26.0419 10.2186 25.9936Q10.2282 25.9453 10.247 25.8998Q10.2659 25.8543 10.2932 25.8134Q10.3206 25.7725 10.3554 25.7376Q10.3903 25.7028 10.4312 25.6754Q10.4721 25.6481 10.5176 25.6292Q10.5631 25.6104 10.6114 25.6008Q10.6597 25.5912 10.709 25.5912Q10.9121 25.5912 11.0996 25.6699Q11.2793 25.7458 11.416 25.884Q11.5547 26.0222 11.6309 26.2018Q11.709 26.3881 11.709 26.5912Q11.709 26.7943 11.6309 26.9806Q11.5547 27.1602 11.416 27.2982Q11.2793 27.4364 11.0996 27.5123Q10.9121 27.5912 10.709 27.5912ZM6.25391 26.5912Q6.25391 26.5912 6.25391 26.5912L6.25391 26.5912L6.25391 27.0912L5.75391 27.0912L5.75391 26.0912L6.25391 26.0912L6.25391 26.5912ZM6.25391 25.5912Q6.30315 25.5912 6.35145 25.6008Q6.39975 25.6104 6.44525 25.6292Q6.49074 25.6481 6.53169 25.6755Q6.57264 25.7028 6.60746 25.7376Q6.64228 25.7725 6.66964 25.8134Q6.697 25.8543 6.71585 25.8998Q6.73469 25.9453 6.7443 25.9936Q6.75391 26.0419 6.75391 26.0912L6.75391 27.0912Q6.75391 27.1404 6.7443 27.1887Q6.73469 27.237 6.71585 27.2825Q6.697 27.328 6.66964 27.369Q6.64228 27.4099 6.60746 27.4447Q6.57264 27.4796 6.53169 27.5069Q6.49074 27.5343 6.44525 27.5531Q6.39975 27.572 6.35145 27.5816Q6.30315 27.5912 6.25391 27.5912Q6.05078 27.5912 5.86328 27.5123Q5.68359 27.4364 5.54492 27.2982Q5.4082 27.1602 5.33203 26.9806Q5.25391 26.7943 5.25391 26.5912Q5.25391 26.3881 5.33203 26.2018Q5.4082 26.0222 5.54492 25.884Q5.68359 25.7458 5.86328 25.6699Q6.05078 25.5912 6.25391 25.5912ZM16.2539 26.5912L16.2539 26.5912L16.2539 26.5912L16.2539 27.0912L15.7539 27.0912L15.7539 26.0912L16.2539 26.0912L16.2539 26.5912ZM16.2539 25.5912Q16.3032 25.5912 16.3514 25.6008Q16.3997 25.6104 16.4452 25.6292Q16.4907 25.6481 16.5317 25.6755Q16.5726 25.7028 16.6075 25.7376Q16.6423 25.7725 16.6696 25.8134Q16.697 25.8543 16.7158 25.8998Q16.7347 25.9453 16.7443 25.9936Q16.7539 26.0419 16.7539 26.0912L16.7539 27.0912Q16.7539 27.1404 16.7443 27.1887Q16.7347 27.237 16.7158 27.2825Q16.697 27.328 16.6696 27.369Q16.6423 27.4099 16.6075 27.4447Q16.5726 27.4796 16.5317 27.5069Q16.4907 27.5343 16.4452 27.5531Q16.3997 27.572 16.3514 27.5816Q16.3032 27.5912 16.2539 27.5912Q16.0508 27.5912 15.8633 27.5123Q15.6836 27.4364 15.5469 27.2982Q15.4082 27.1602 15.332 26.9806Q15.2539 26.7943 15.2539 26.5912Q15.2539 26.3881 15.332 26.2018Q15.4082 26.0222 15.5469 25.884Q15.6836 25.7458 15.8633 25.6699Q16.0508 25.5912 16.2539 25.5912ZM33.75 26.5912L33.75 26.5912L33.75 26.5912L33.75 26.0912L34.25 26.0912L34.25 27.0912L33.75 27.0912L33.75 26.5912ZM33.75 27.5912Q33.7008 27.5912 33.6525 27.5816Q33.6042 27.572 33.5587 27.5531Q33.5132 27.5343 33.4722 27.5069Q33.4313 27.4796 33.3964 27.4447Q33.3616 27.4099 33.3343 27.369Q33.3069 27.328 33.2881 27.2825Q33.2692 27.237 33.2596 27.1887Q33.25 27.1404 33.25 27.0912L33.25 26.0912Q33.25 26.0419 33.2596 25.9936Q33.2692 25.9453 33.2881 25.8998Q33.3069 25.8543 33.3343 25.8134Q33.3616 25.7725 33.3964 25.7376Q33.4313 25.7028 33.4722 25.6754Q33.5132 25.6481 33.5587 25.6292Q33.6042 25.6104 33.6525 25.6008Q33.7008 25.5912 33.75 25.5912Q33.9531 25.5912 34.1387 25.6699Q34.3184 25.7458 34.457 25.884Q34.5957 26.0222 34.6719 26.2018Q34.75 26.3881 34.75 26.5912Q34.75 26.7943 34.6719 26.9806Q34.5957 27.1602 34.457 27.2982Q34.3184 27.4364 34.1387 27.5123Q33.9531 27.5912 33.75 27.5912ZM8.31836 31.6536Q8.31836 31.6536 8.31836 31.6536L8.31836 31.6536L8.67383 31.3025L9.02539 31.6584L8.31445 32.3607L7.96289 32.0048L8.31836 31.6536ZM7.60742 32.3558Q7.5728 32.3208 7.54566 32.2796Q7.51853 32.2385 7.49994 32.1929Q7.48135 32.1473 7.47201 32.0989Q7.46267 32.0505 7.46294 32.0013Q7.46322 31.9521 7.47309 31.9038Q7.48296 31.8556 7.50206 31.8102Q7.52115 31.7649 7.54873 31.7241Q7.57632 31.6834 7.61133 31.6488L8.32422 30.9465Q8.35923 30.9119 8.40032 30.8849Q8.44141 30.8578 8.48701 30.8392Q8.53261 30.8207 8.58095 30.8114Q8.6293 30.8021 8.67854 30.8025Q8.72778 30.8028 8.77602 30.8127Q8.82427 30.8227 8.86965 30.8418Q8.91504 30.861 8.95583 30.8886Q8.99662 30.9162 9.03125 30.9513Q9.17383 31.0959 9.24805 31.2839Q9.32031 31.4651 9.31836 31.6604Q9.31641 31.8558 9.24219 32.036Q9.16602 32.2229 9.02148 32.3655Q8.87695 32.5082 8.6875 32.5829Q8.50781 32.6549 8.3125 32.6536Q8.11523 32.6522 7.93555 32.5778Q7.75 32.5005 7.60742 32.3558ZM6.59766 28.8682L7.06055 28.679L7.25 29.1418L6.77734 29.3044L6.77734 29.3044L7.25 29.1418L7.43945 29.6047L6.97656 29.7938L6.78711 29.3309L6.59766 28.8682ZM6.97656 29.7938Q6.93097 29.8124 6.88262 29.8218Q6.83426 29.8312 6.785 29.8309Q6.73574 29.8307 6.68747 29.8209Q6.63919 29.811 6.59376 29.7919Q6.54833 29.7729 6.50748 29.7453Q6.46664 29.7178 6.43195 29.6828Q6.39727 29.6478 6.37007 29.6067Q6.34288 29.5656 6.32422 29.52Q6.30556 29.4744 6.29615 29.4261Q6.28675 29.3778 6.28695 29.3285Q6.28716 29.2793 6.29697 29.231Q6.30679 29.1828 6.32583 29.1374Q6.34488 29.092 6.37242 29.0512Q6.39996 29.0104 6.43494 28.9757Q6.46992 28.9411 6.51099 28.9139Q6.55206 28.8868 6.59766 28.8682L7.06055 28.679Q7.07422 28.6736 7.08789 28.6689Q7.13444 28.6529 7.18322 28.6463Q7.23199 28.6397 7.28111 28.6428Q7.33023 28.6458 7.3778 28.6584Q7.42538 28.6709 7.46959 28.6925Q7.5138 28.7141 7.55293 28.744Q7.59207 28.7738 7.62464 28.8107Q7.65721 28.8476 7.68195 28.8901Q7.70669 28.9327 7.72266 28.9792L7.72266 28.9794Q7.73816 29.0242 7.74493 29.0712Q7.75171 29.1182 7.74952 29.1656Q7.74733 29.213 7.73625 29.2591Q7.72518 29.3052 7.70561 29.3484Q7.68604 29.3917 7.65867 29.4304Q7.63131 29.4692 7.59713 29.5021Q7.56295 29.535 7.52318 29.5609Q7.4834 29.5868 7.43945 29.6047L6.97656 29.7938ZM6.97656 23.3885L7.43945 23.5776L7.25 24.0405L6.77734 23.8779L6.77734 23.8779L7.25 24.0405L7.06055 24.5033L6.59766 24.3142L6.78711 23.8513L6.97656 23.3885ZM6.59766 24.3142Q6.55206 24.2956 6.51099 24.2684Q6.46992 24.2413 6.43494 24.2066Q6.39996 24.172 6.37242 24.1311Q6.34487 24.0903 6.32583 24.0449Q6.30679 23.9995 6.29698 23.9513Q6.28716 23.903 6.28695 23.8538Q6.28675 23.8045 6.29615 23.7562Q6.30556 23.7078 6.32422 23.6622Q6.34288 23.6166 6.37007 23.5756Q6.39727 23.5345 6.43195 23.4995Q6.46664 23.4645 6.50748 23.4369Q6.54833 23.4094 6.59376 23.3903Q6.63919 23.3713 6.68747 23.3614Q6.73574 23.3516 6.785 23.3514Q6.83426 23.3511 6.88262 23.3605Q6.93097 23.3699 6.97656 23.3885L7.43945 23.5776Q7.4834 23.5956 7.52318 23.6215Q7.56295 23.6474 7.59713 23.6803Q7.63131 23.7132 7.65867 23.7519Q7.68604 23.7907 7.70561 23.8339Q7.72518 23.8771 7.73625 23.9232Q7.74733 23.9694 7.74952 24.0168Q7.75171 24.0642 7.74493 24.1111Q7.73816 24.1581 7.72266 24.203L7.72266 24.203Q7.71875 24.2164 7.71289 24.2296Q7.69423 24.2752 7.66704 24.3163Q7.63984 24.3573 7.60515 24.3923Q7.57047 24.4273 7.52962 24.4548Q7.48878 24.4824 7.44335 24.5015Q7.39792 24.5205 7.34964 24.5304Q7.30137 24.5402 7.25211 24.5404Q7.20285 24.5407 7.15449 24.5313Q7.10614 24.5219 7.06055 24.5033L6.59766 24.3142ZM8.66992 21.1727L9.02539 21.5239L8.67383 21.8799L8.31641 21.5306L8.31641 21.5305L8.67383 21.8799L8.32422 22.2358L7.9668 21.8848L8.31836 21.5287L8.66992 21.1727ZM7.9668 21.8846Q7.93179 21.8501 7.9042 21.8093Q7.87662 21.7686 7.85752 21.7232Q7.83843 21.6778 7.82856 21.6296Q7.81868 21.5814 7.81841 21.5321Q7.81814 21.4829 7.82748 21.4345Q7.83682 21.3862 7.85541 21.3406Q7.874 21.2949 7.90113 21.2538Q7.92826 21.2127 7.96289 21.1776Q7.99752 21.1426 8.03831 21.1149Q8.0791 21.0873 8.12449 21.0681Q8.16987 21.049 8.21811 21.039Q8.26635 21.0291 8.3156 21.0287Q8.36484 21.0284 8.41318 21.0377Q8.46153 21.0469 8.50713 21.0655Q8.55272 21.084 8.59382 21.1111Q8.63491 21.1382 8.66992 21.1727L9.02539 21.5238Q9.06027 21.5583 9.08778 21.5989Q9.1153 21.6395 9.13438 21.6847Q9.15347 21.7299 9.16341 21.778Q9.17335 21.826 9.17376 21.8751Q9.17416 21.9242 9.16503 21.9724Q9.15589 22.0207 9.13755 22.0662Q9.11922 22.1118 9.09239 22.1529Q9.06555 22.194 9.03125 22.2291L9.03125 22.2291Q9.03125 22.2301 9.03125 22.231Q8.99662 22.266 8.95583 22.2937Q8.91504 22.3213 8.86965 22.3404Q8.82427 22.3596 8.77602 22.3695Q8.72778 22.3795 8.67854 22.3798Q8.6293 22.3802 8.58095 22.3709Q8.53261 22.3616 8.48701 22.3431Q8.44141 22.3246 8.40032 22.2975Q8.35923 22.2704 8.32422 22.2358L7.9668 21.8846ZM22.0703 7.58606L22.4258 7.93713L22.0742 8.29309L21.7188 7.94214L21.7188 7.94189L22.0762 8.29285L21.7246 8.64905L21.3691 8.29822L21.7188 7.94202L22.0703 7.58606ZM21.3672 8.29797Q21.3322 8.26341 21.3046 8.22268Q21.277 8.18195 21.2579 8.13661Q21.2388 8.09127 21.2289 8.04307Q21.219 7.99486 21.2188 7.94564Q21.2185 7.89642 21.2278 7.84808Q21.2372 7.79974 21.2558 7.75412Q21.2744 7.70851 21.3015 7.66738Q21.3286 7.62625 21.3633 7.59119Q21.3977 7.5561 21.4384 7.52844Q21.479 7.50077 21.5243 7.48158Q21.5696 7.46239 21.6177 7.45242Q21.6659 7.44244 21.7152 7.44207Q21.7644 7.4417 21.8128 7.45093Q21.8612 7.46017 21.9069 7.47867Q21.9526 7.49717 21.9939 7.52422Q22.0351 7.55126 22.0703 7.58582L22.4258 7.93665Q22.4258 7.93665 22.4258 7.93677Q22.461 7.97133 22.4888 8.01208Q22.5165 8.05282 22.5358 8.09818Q22.5551 8.14353 22.5651 8.19176Q22.5751 8.23998 22.5755 8.28922Q22.576 8.33846 22.5667 8.38682Q22.5575 8.43519 22.539 8.48082Q22.5205 8.52645 22.4934 8.56759Q22.4663 8.60873 22.4316 8.6438L22.4316 8.64404Q22.4316 8.64417 22.4316 8.64429Q22.397 8.67935 22.3562 8.70698Q22.3154 8.73462 22.27 8.75377Q22.2247 8.77293 22.1764 8.78286Q22.1282 8.79279 22.0789 8.79312Q22.0297 8.79345 21.9813 8.78417Q21.933 8.77489 21.8874 8.75635Q21.8418 8.73781 21.8007 8.71072Q21.7596 8.68364 21.7246 8.64905L21.3672 8.29797ZM22.8789 7.42114L23.0723 6.96021L23.5332 7.15393L23.3379 7.61377L23.3379 7.61377L23.5332 7.15393L23.9941 7.34766L23.8008 7.80859L23.3398 7.61487L22.8789 7.42114ZM23.8008 7.80872Q23.7817 7.8541 23.7542 7.8949Q23.7267 7.93569 23.6917 7.97032Q23.6567 8.00495 23.6157 8.03209Q23.5746 8.05923 23.5291 8.07783Q23.4835 8.09643 23.4352 8.10578Q23.3868 8.11513 23.3376 8.11487Q23.2884 8.11461 23.2401 8.10475Q23.1919 8.09489 23.1465 8.07581Q23.1011 8.05673 23.0603 8.02915Q23.0195 8.00158 22.9848 7.96658Q22.9501 7.93158 22.923 7.89049Q22.8958 7.84941 22.8772 7.80381Q22.8585 7.75822 22.8492 7.70987Q22.8398 7.66153 22.84 7.61228Q22.8402 7.56304 22.85 7.51479Q22.8599 7.46654 22.8789 7.42114L23.0723 6.96021Q23.0742 6.95886 23.0742 6.95752Q23.0935 6.91223 23.1212 6.87158Q23.1489 6.83094 23.184 6.7965Q23.2192 6.76206 23.2604 6.73515Q23.3016 6.70824 23.3473 6.68989Q23.393 6.67155 23.4415 6.66247Q23.4899 6.65339 23.5392 6.65393Q23.5885 6.65447 23.6368 6.66461Q23.6851 6.67475 23.7305 6.69409L23.7305 6.69421Q23.7756 6.71349 23.8161 6.74117Q23.8565 6.76885 23.8909 6.80387Q23.9252 6.8389 23.952 6.87993Q23.9789 6.92097 23.9972 6.96645Q24.0156 7.01193 24.0247 7.06012Q24.0339 7.10831 24.0335 7.15737Q24.0331 7.20643 24.0232 7.25449Q24.0132 7.30255 23.9941 7.34778L23.8008 7.80872ZM24.1738 8.2981L23.8164 8.64905L23.4668 8.29297L23.8223 7.94275L23.8242 7.94287L23.4668 8.29309L23.1152 7.93713L23.4707 7.58606L23.8223 7.94202L24.1738 8.2981ZM23.4707 7.58594Q23.5059 7.55138 23.5472 7.52432Q23.5884 7.49727 23.6341 7.47875Q23.6798 7.46024 23.7282 7.45098Q23.7766 7.44172 23.8258 7.44207Q23.8751 7.44242 23.9233 7.45236Q23.9714 7.4623 24.0167 7.48146Q24.062 7.50062 24.1027 7.52825Q24.1433 7.55589 24.1777 7.59094Q24.2124 7.626 24.2395 7.66713Q24.2666 7.70826 24.2852 7.75388Q24.3038 7.79951 24.3131 7.84787Q24.3225 7.89623 24.3222 7.94547Q24.3219 7.99471 24.3121 8.04294Q24.3022 8.09117 24.2831 8.13653Q24.264 8.18189 24.2364 8.22264Q24.2088 8.2634 24.1738 8.29797L23.8184 8.64905Q23.8164 8.64954 23.8164 8.65002Q23.7812 8.68452 23.74 8.71149Q23.6987 8.73846 23.653 8.75688Q23.6073 8.77529 23.5589 8.78444Q23.5105 8.79359 23.4613 8.79312Q23.412 8.79265 23.3638 8.78259Q23.3156 8.77252 23.2704 8.75324Q23.2251 8.73396 23.1844 8.70622Q23.1438 8.67847 23.1094 8.64331L23.1094 8.64319Q23.0749 8.60809 23.048 8.56696Q23.021 8.52582 23.0026 8.48022Q22.9841 8.43462 22.975 8.38631Q22.9658 8.338 22.9662 8.28883Q22.9666 8.23965 22.9766 8.1915Q22.9866 8.14334 23.0057 8.09806Q23.0249 8.05277 23.0526 8.01209Q23.0802 7.97141 23.1152 7.93689L23.4707 7.58594ZM31.3535 15.5782L31.7109 15.2272L32.0605 15.5833L31.707 15.9351L31.7051 15.9349L32.0605 15.5831L32.4121 15.9392L32.0566 16.2903L31.7051 15.9343L31.3535 15.5782ZM32.0566 16.2904Q32.0216 16.325 31.9805 16.352Q31.9394 16.3791 31.8938 16.3976Q31.8482 16.4161 31.7999 16.4254Q31.7516 16.4346 31.7023 16.4343Q31.6531 16.4339 31.6048 16.424Q31.5566 16.414 31.5112 16.3949Q31.4658 16.3757 31.425 16.3481Q31.3842 16.3204 31.3496 16.2854Q31.315 16.2503 31.2879 16.2092Q31.2607 16.1681 31.2421 16.1224Q31.2235 16.0768 31.2142 16.0285Q31.2049 15.9801 31.2051 15.9308Q31.2054 15.8816 31.2153 15.8334Q31.2251 15.7851 31.2442 15.7397Q31.2633 15.6944 31.2909 15.6536Q31.3185 15.6128 31.3535 15.5782L31.7109 15.2272Q31.746 15.1926 31.787 15.1656Q31.8281 15.1385 31.8736 15.12Q31.9191 15.1015 31.9674 15.0922Q32.0156 15.0829 32.0647 15.0832Q32.1138 15.0835 32.1619 15.0934Q32.2099 15.1032 32.2551 15.1223Q32.3003 15.1414 32.341 15.1689Q32.3816 15.1965 32.416 15.2314L32.416 15.2316Q32.418 15.2319 32.418 15.2323Q32.4524 15.2674 32.4793 15.3085Q32.5063 15.3497 32.5247 15.3953Q32.5431 15.4409 32.5523 15.4893Q32.5615 15.5376 32.5611 15.5869Q32.5606 15.6361 32.5507 15.6843Q32.5407 15.7326 32.5215 15.7779Q32.5024 15.8233 32.4747 15.864Q32.4471 15.9048 32.4121 15.9393L32.0566 16.2904ZM32.0566 17.7094L32.4121 18.0605L32.0605 18.4165L31.707 18.0629L31.707 18.0629L32.0605 18.4164L31.7109 18.7725L31.3535 18.4214L31.7051 18.0653L32.0566 17.7094ZM31.3535 18.4214Q31.3185 18.3868 31.2909 18.3461Q31.2633 18.3053 31.2442 18.2599Q31.2251 18.2146 31.2153 18.1663Q31.2054 18.1181 31.2051 18.0689Q31.2049 18.0196 31.2142 17.9713Q31.2235 17.9229 31.2421 17.8773Q31.2607 17.8317 31.2878 17.7905Q31.315 17.7494 31.3496 17.7144Q31.3842 17.6793 31.425 17.6516Q31.4658 17.624 31.5112 17.6048Q31.5566 17.5856 31.6048 17.5757Q31.6531 17.5657 31.7023 17.5654Q31.7516 17.565 31.7999 17.5743Q31.8482 17.5836 31.8938 17.6021Q31.9394 17.6206 31.9805 17.6477Q32.0216 17.6748 32.0566 17.7094L32.4121 18.0604Q32.4141 18.0616 32.4141 18.0629Q32.4489 18.0977 32.4762 18.1386Q32.5036 18.1796 32.5224 18.2251Q32.5413 18.2706 32.5509 18.3189Q32.5605 18.3672 32.5605 18.4164Q32.5605 18.4657 32.5509 18.514Q32.5413 18.5623 32.5224 18.6078Q32.5036 18.6533 32.4762 18.6942Q32.4489 18.7352 32.4141 18.77L32.4141 18.77Q32.3795 18.8047 32.339 18.832Q32.2984 18.8592 32.2532 18.8781Q32.2081 18.8969 32.1602 18.9066Q32.1122 18.9163 32.0633 18.9164Q32.0144 18.9166 31.9664 18.9073Q31.9183 18.8979 31.873 18.8794Q31.8276 18.8609 31.7867 18.8339Q31.7458 18.8069 31.7109 18.7725L31.3535 18.4214ZM30.3574 19.4324Q30.3574 19.4324 30.3574 19.4324L30.3574 19.4324L30.7129 19.7834L30.3613 20.1394L29.6504 19.4373L30.002 19.0812L30.3574 19.4324ZM29.6445 18.7301Q29.6792 18.695 29.7199 18.6674Q29.7607 18.6398 29.8061 18.6206Q29.8515 18.6015 29.8998 18.5915Q29.948 18.5816 29.9972 18.5812Q30.0465 18.5809 30.0948 18.5902Q30.1432 18.5994 30.1888 18.618Q30.2344 18.6365 30.2755 18.6636Q30.3166 18.6906 30.3516 18.7252L31.0645 19.4275Q31.0995 19.4621 31.127 19.5028Q31.1546 19.5436 31.1737 19.5889Q31.1928 19.6343 31.2027 19.6825Q31.2126 19.7308 31.2128 19.78Q31.2131 19.8292 31.2038 19.8776Q31.1944 19.926 31.1758 19.9716Q31.1572 20.0172 31.1301 20.0583Q31.103 20.0995 31.0684 20.1345Q30.9258 20.2792 30.7402 20.3564Q30.5586 20.4309 30.3633 20.4323Q30.168 20.4336 29.9883 20.3616Q29.7988 20.2869 29.6543 20.1443Q29.5098 20.0017 29.4336 19.8147Q29.3594 19.6346 29.3574 19.4392Q29.3555 19.2439 29.4277 19.0626Q29.502 18.8748 29.6445 18.7301ZM20.3711 19.4324Q20.3711 19.4324 20.3711 19.4324L20.3711 19.4324L20.7285 19.7834L20.377 20.1394L19.6641 19.4373L20.0156 19.0812L20.3711 19.4324ZM19.6602 18.7301Q19.6602 18.7301 19.6602 18.7301Q19.6948 18.695 19.7356 18.6674Q19.7764 18.6398 19.8218 18.6206Q19.8671 18.6014 19.9154 18.5915Q19.9636 18.5816 20.0129 18.5812Q20.0621 18.5809 20.1104 18.5902Q20.1588 18.5994 20.2044 18.618Q20.25 18.6365 20.2911 18.6636Q20.3322 18.6906 20.3672 18.7252L21.0781 19.4275Q21.1133 19.4621 21.1411 19.5028Q21.1689 19.5436 21.1881 19.5889Q21.2074 19.6343 21.2175 19.6825Q21.2275 19.7308 21.2279 19.78Q21.2283 19.8292 21.2191 19.8776Q21.2098 19.926 21.1913 19.9716Q21.1728 20.0172 21.1457 20.0583Q21.1186 20.0995 21.084 20.1345Q20.9414 20.2792 20.7539 20.3564Q20.5742 20.4309 20.3789 20.4323Q20.1836 20.4336 20.002 20.3616Q19.8145 20.2869 19.6699 20.1443Q19.5254 20.0017 19.4473 19.8147Q19.373 19.6346 19.3711 19.4392Q19.3711 19.2438 19.4414 19.0626Q19.5176 18.8748 19.6602 18.7301ZM27.7637 11.9381Q27.7637 11.9381 27.7637 11.9381L27.7637 11.9381L27.4062 11.587L27.7578 11.2311L28.4707 11.9332L28.1191 12.2893L27.7637 11.9381ZM28.4746 12.6404Q28.4402 12.6754 28.3995 12.7031Q28.3589 12.7307 28.3136 12.7499Q28.2683 12.769 28.2201 12.779Q28.172 12.7889 28.1227 12.7893Q28.0735 12.7896 28.0251 12.7803Q27.9767 12.771 27.931 12.7525Q27.8853 12.734 27.844 12.7069Q27.8028 12.6798 27.7676 12.6453L27.0566 11.943Q27.0214 11.9084 26.9937 11.8677Q26.9659 11.8269 26.9466 11.7815Q26.9273 11.7362 26.9173 11.688Q26.9073 11.6397 26.9069 11.5905Q26.9065 11.5412 26.9157 11.4929Q26.9249 11.4445 26.9434 11.3989Q26.962 11.3533 26.9891 11.3122Q27.0162 11.271 27.0508 11.236Q27.1934 11.0913 27.3809 11.014Q27.5605 10.9396 27.7559 10.9382Q27.9512 10.9368 28.1328 11.0088Q28.3203 11.0835 28.4648 11.2262Q28.6094 11.3688 28.6875 11.5557Q28.7617 11.7358 28.7637 11.9313Q28.7637 12.1266 28.6934 12.3077Q28.6172 12.4957 28.4746 12.6404ZM10.709 26.5912L6.25391 26.5912L6.25391 26.0912L6.75391 26.0912L6.75391 27.0912L6.25391 27.0912L6.25391 26.5912L10.709 26.5912L10.709 27.0912L10.209 27.0912L10.209 26.0912L10.709 26.0912L10.709 26.5912ZM10.709 25.5912Q10.7582 25.5912 10.8065 25.6008Q10.8548 25.6104 10.9003 25.6292Q10.9458 25.6481 10.9868 25.6755Q11.0277 25.7028 11.0625 25.7376Q11.0974 25.7725 11.1247 25.8134Q11.1521 25.8543 11.1709 25.8998Q11.1898 25.9453 11.1994 25.9936Q11.209 26.0419 11.209 26.0912L11.209 27.0912Q11.209 27.1404 11.1994 27.1887Q11.1898 27.237 11.1709 27.2825Q11.1521 27.328 11.1247 27.369Q11.0974 27.4099 11.0625 27.4447Q11.0277 27.4796 10.9868 27.5069Q10.9458 27.5343 10.9003 27.5531Q10.8548 27.572 10.8065 27.5816Q10.7582 27.5912 10.709 27.5912L6.25391 27.5912Q6.20466 27.5912 6.15636 27.5816Q6.10806 27.572 6.06256 27.5531Q6.01707 27.5343 5.97612 27.5069Q5.93517 27.4796 5.90035 27.4447Q5.86553 27.4099 5.83817 27.369Q5.81081 27.328 5.79197 27.2825Q5.77312 27.237 5.76351 27.1887Q5.75391 27.1404 5.75391 27.0912L5.75391 26.0912Q5.75391 26.0419 5.76351 25.9936Q5.77312 25.9453 5.79197 25.8998Q5.81081 25.8543 5.83817 25.8134Q5.86553 25.7725 5.90035 25.7376Q5.93517 25.7028 5.97612 25.6754Q6.01707 25.6481 6.06256 25.6292Q6.10806 25.6104 6.15636 25.6008Q6.20466 25.5912 6.25391 25.5912L10.709 25.5912ZM16.2539 26.5912L33.75 26.5912L33.75 27.0912L33.25 27.0912L33.25 26.0912L33.75 26.0912L33.75 26.5912L16.2539 26.5912L16.2539 26.0912L16.7539 26.0912L16.7539 27.0912L16.2539 27.0912L16.2539 26.5912ZM16.2539 27.5912Q16.2047 27.5912 16.1564 27.5816Q16.1081 27.572 16.0626 27.5531Q16.0171 27.5343 15.9761 27.5069Q15.9352 27.4796 15.9004 27.4447Q15.8655 27.4099 15.8382 27.369Q15.8108 27.328 15.792 27.2825Q15.7731 27.237 15.7635 27.1887Q15.7539 27.1404 15.7539 27.0912L15.7539 26.0912Q15.7539 26.0419 15.7635 25.9936Q15.7731 25.9453 15.792 25.8998Q15.8108 25.8543 15.8382 25.8134Q15.8655 25.7725 15.9004 25.7376Q15.9352 25.7028 15.9761 25.6754Q16.0171 25.6481 16.0626 25.6292Q16.1081 25.6104 16.1564 25.6008Q16.2047 25.5912 16.2539 25.5912L33.75 25.5912Q33.7992 25.5912 33.8475 25.6008Q33.8958 25.6104 33.9413 25.6292Q33.9868 25.6481 34.0278 25.6755Q34.0687 25.7028 34.1035 25.7376Q34.1384 25.7725 34.1657 25.8134Q34.1931 25.8543 34.2119 25.8998Q34.2308 25.9453 34.2404 25.9936Q34.25 26.0419 34.25 26.0912L34.25 27.0912Q34.25 27.1404 34.2404 27.1887Q34.2308 27.237 34.2119 27.2825Q34.1931 27.328 34.1657 27.369Q34.1384 27.4099 34.1035 27.4447Q34.0687 27.4796 34.0278 27.5069Q33.9868 27.5343 33.9413 27.5531Q33.8958 27.572 33.8475 27.5816Q33.7992 27.5912 33.75 27.5912L16.2539 27.5912ZM8.31836 31.6536Q7.32422 30.6466 6.78711 29.3309L7.25 29.1418L7.43945 29.6047L6.51367 29.9829L6.32422 29.52L6.78711 29.3309Q7.32422 30.6466 8.31836 31.6536L7.96289 32.0048L7.61133 31.6488L8.32422 30.9465L8.67383 31.3025L8.31836 31.6536ZM9.03125 30.9513Q9.06568 30.9864 9.09262 31.0275Q9.11957 31.0686 9.13798 31.1142Q9.15639 31.1599 9.16558 31.2082Q9.17476 31.2566 9.17435 31.3059Q9.17394 31.3551 9.16396 31.4033Q9.15398 31.4516 9.13481 31.497Q9.11564 31.5423 9.08802 31.5831Q9.0604 31.6239 9.02539 31.6584L8.31445 32.3607Q8.27925 32.3953 8.238 32.4224Q8.19676 32.4494 8.15106 32.468Q8.10536 32.4865 8.05696 32.4958Q8.00856 32.505 7.95932 32.5047Q7.91008 32.5044 7.86189 32.4944Q7.8137 32.4845 7.76842 32.4653Q7.72313 32.4462 7.68249 32.4185Q7.64185 32.3909 7.60742 32.3558Q6.47461 31.208 5.86133 29.7092Q5.86133 29.7092 5.86133 29.7092Q5.84267 29.6636 5.83326 29.6153Q5.82385 29.5669 5.82406 29.5177Q5.82427 29.4684 5.83408 29.4202Q5.8439 29.3719 5.86294 29.3265Q5.88199 29.2811 5.90953 29.2403Q5.93707 29.1995 5.97205 29.1648Q6.00703 29.1302 6.0481 29.103Q6.08917 29.0759 6.13477 29.0573L7.06055 28.679Q7.10614 28.6603 7.15449 28.651Q7.20285 28.6416 7.25211 28.6418Q7.30137 28.6421 7.34964 28.6519Q7.39792 28.6618 7.44335 28.6808Q7.48878 28.6999 7.52962 28.7275Q7.57047 28.755 7.60515 28.79Q7.63984 28.825 7.66704 28.8661Q7.69423 28.9072 7.71289 28.9528Q8.17578 30.0852 9.03125 30.9513ZM6.78711 29.3309Q6.25 28.0153 6.25 26.5912L6.75 26.5912L6.75 27.0912L5.75 27.0912L5.75 26.5912L6.25 26.5912Q6.25 28.0153 6.78711 29.3309L6.32422 29.52L6.13477 29.0573L7.06055 28.679L7.25 29.1418L6.78711 29.3309ZM7.71289 28.9528Q7.73155 28.9983 7.74096 29.0467Q7.75036 29.095 7.75015 29.1443Q7.74995 29.1935 7.74013 29.2417Q7.73032 29.29 7.71128 29.3354Q7.69223 29.3808 7.66469 29.4216Q7.63715 29.4624 7.60217 29.4971Q7.56719 29.5318 7.52612 29.5589Q7.48504 29.5861 7.43945 29.6047L6.51367 29.9829Q6.46808 30.0015 6.41973 30.0109Q6.37137 30.0203 6.32211 30.02Q6.27285 30.0198 6.22457 30.01Q6.1763 30.0001 6.13087 29.9811Q6.08544 29.962 6.04459 29.9345Q6.00375 29.9069 5.96906 29.8719Q5.93438 29.8369 5.90718 29.7959Q5.87999 29.7548 5.86133 29.7092Q5.25 28.2117 5.25 26.5912Q5.25 26.5419 5.25961 26.4936Q5.26921 26.4453 5.28806 26.3998Q5.30691 26.3543 5.33426 26.3134Q5.36162 26.2725 5.39645 26.2376Q5.43127 26.2028 5.47221 26.1754Q5.51316 26.1481 5.55866 26.1292Q5.60416 26.1104 5.65245 26.1008Q5.70075 26.0912 5.75 26.0912L6.75 26.0912Q6.79925 26.0912 6.84754 26.1008Q6.89584 26.1104 6.94134 26.1292Q6.98684 26.1481 7.02778 26.1754Q7.06873 26.2028 7.10355 26.2376Q7.13837 26.2725 7.16573 26.3134Q7.19309 26.3543 7.21194 26.3998Q7.23078 26.4453 7.24039 26.4936Q7.25 26.5419 7.25 26.5912Q7.25 27.8188 7.71289 28.9528ZM6.25 26.5912Q6.25 25.1671 6.78711 23.8513L7.25 24.0405L7.06055 24.5033L6.13477 24.1251L6.32422 23.6622L6.78711 23.8513Q6.25 25.1671 6.25 26.5912L5.75 26.5912L5.75 26.0912L6.75 26.0912L6.75 26.5912L6.25 26.5912ZM7.25 26.5912Q7.25 26.6404 7.24039 26.6887Q7.23078 26.737 7.21194 26.7825Q7.19309 26.828 7.16573 26.869Q7.13837 26.9099 7.10355 26.9447Q7.06873 26.9796 7.02778 27.0069Q6.98684 27.0343 6.94134 27.0531Q6.89584 27.072 6.84754 27.0816Q6.79925 27.0912 6.75 27.0912L5.75 27.0912Q5.70075 27.0912 5.65245 27.0816Q5.60416 27.072 5.55866 27.0531Q5.51316 27.0343 5.47221 27.0069Q5.43127 26.9796 5.39645 26.9447Q5.36162 26.9099 5.33426 26.869Q5.30691 26.828 5.28806 26.7825Q5.26921 26.737 5.25961 26.6887Q5.25 26.6404 5.25 26.5912Q5.25 24.9707 5.86133 23.4731Q5.87999 23.4276 5.90718 23.3865Q5.93438 23.3454 5.96906 23.3104Q6.00375 23.2754 6.04459 23.2478Q6.08544 23.2203 6.13087 23.2012Q6.1763 23.1821 6.22457 23.1723Q6.27285 23.1625 6.32211 23.1622Q6.37137 23.162 6.41973 23.1713Q6.46808 23.1807 6.51367 23.1993L7.43945 23.5776Q7.43945 23.5776 7.43945 23.5776Q7.48504 23.5963 7.52612 23.6234Q7.56719 23.6506 7.60217 23.6852Q7.63715 23.7199 7.66469 23.7607Q7.69223 23.8015 7.71128 23.8469Q7.73032 23.8923 7.74013 23.9406Q7.74995 23.9888 7.75015 24.0381Q7.75036 24.0873 7.74096 24.1357Q7.73155 24.184 7.71289 24.2296Q7.25 25.3635 7.25 26.5912ZM6.78711 23.8513Q7.32422 22.5358 8.31836 21.5287L8.67383 21.8799L8.32422 22.2358L7.61133 21.5336L7.96289 21.1776L8.31836 21.5287Q7.32422 22.5358 6.78711 23.8513L6.32422 23.6622L6.51367 23.1993L7.43945 23.5776L7.25 24.0405L6.78711 23.8513ZM7.71289 24.2296Q7.69423 24.2752 7.66704 24.3163Q7.63984 24.3573 7.60515 24.3923Q7.57047 24.4273 7.52962 24.4548Q7.48878 24.4824 7.44335 24.5015Q7.39792 24.5205 7.34964 24.5304Q7.30137 24.5402 7.25211 24.5404Q7.20285 24.5407 7.15449 24.5313Q7.10614 24.5219 7.06055 24.5033L6.13477 24.1251Q6.08917 24.1065 6.0481 24.0793Q6.00703 24.0522 5.97205 24.0175Q5.93707 23.9829 5.90952 23.9421Q5.88199 23.9012 5.86294 23.8558Q5.8439 23.8104 5.83408 23.7622Q5.82427 23.7139 5.82406 23.6647Q5.82385 23.6154 5.83326 23.5671Q5.84267 23.5187 5.86133 23.4731Q6.47461 21.9744 7.60742 20.8264Q7.60742 20.8264 7.60742 20.8264Q7.64185 20.7914 7.68249 20.7637Q7.72313 20.7361 7.76842 20.7169Q7.8137 20.6978 7.86189 20.6878Q7.91008 20.6779 7.95932 20.6776Q8.00856 20.6772 8.05696 20.6865Q8.10536 20.6958 8.15106 20.7144Q8.19676 20.7329 8.238 20.76Q8.27925 20.7871 8.31445 20.8217L9.02539 21.5239Q9.0604 21.5585 9.08802 21.5993Q9.11564 21.64 9.13481 21.6854Q9.15398 21.7307 9.16396 21.779Q9.17394 21.8272 9.17435 21.8764Q9.17475 21.9257 9.16557 21.974Q9.15639 22.0224 9.13798 22.068Q9.11957 22.1136 9.09262 22.1548Q9.06568 22.1959 9.03125 22.231Q8.17578 23.0972 7.71289 24.2296ZM8.31836 21.5287L21.7188 7.94202L22.0742 8.29309L21.7246 8.64905L21.0117 7.9469L21.3633 7.59094L21.7188 7.94202L8.31836 21.5287L7.96289 21.1776L8.31445 20.8217L9.02539 21.5238L8.67383 21.8799L8.31836 21.5287ZM9.03125 22.231Q8.99662 22.266 8.95583 22.2937Q8.91504 22.3213 8.86965 22.3404Q8.82427 22.3596 8.77602 22.3695Q8.72778 22.3795 8.67854 22.3798Q8.6293 22.3802 8.58095 22.3709Q8.53261 22.3616 8.48701 22.3431Q8.44141 22.3246 8.40032 22.2975Q8.35923 22.2704 8.32422 22.2358L7.61133 21.5336Q7.57632 21.499 7.54873 21.4582Q7.52115 21.4175 7.50206 21.3721Q7.48296 21.3268 7.47309 21.2785Q7.46321 21.2303 7.46294 21.1811Q7.46267 21.1318 7.47201 21.0835Q7.48135 21.0351 7.49994 20.9895Q7.51853 20.9439 7.54566 20.9027Q7.5728 20.8616 7.60742 20.8265L21.0078 7.23975Q21.0422 7.20469 21.0829 7.17705Q21.1235 7.14941 21.1688 7.13026Q21.2141 7.11111 21.2623 7.10117Q21.3105 7.09124 21.3597 7.09091Q21.4089 7.09058 21.4573 7.09986Q21.5057 7.10914 21.5514 7.12768Q21.5971 7.14622 21.6384 7.17331Q21.6796 7.2004 21.7148 7.23499L22.4258 7.93713Q22.4608 7.97171 22.4884 8.01247Q22.516 8.05322 22.5352 8.09859Q22.5544 8.14395 22.5644 8.19219Q22.5743 8.24042 22.5747 8.28967Q22.5751 8.33892 22.566 8.38729Q22.5568 8.43566 22.5384 8.4813Q22.52 8.52693 22.493 8.56807Q22.4661 8.60922 22.4316 8.64429L9.03125 22.231ZM21.7188 7.94202Q21.9277 7.72974 22.2012 7.61487L22.3945 8.07581L21.9336 8.26953L21.5469 7.34766L22.0078 7.15393L22.2012 7.61487Q21.9277 7.72974 21.7188 7.94202L21.3633 7.59119L21.7129 7.23499L22.4258 7.93665L22.0762 8.29285L21.7188 7.94202ZM22.4316 8.6438Q22.397 8.67888 22.3562 8.70655Q22.3154 8.73421 22.27 8.7534Q22.2247 8.77258 22.1764 8.78255Q22.1282 8.79251 22.0789 8.79288Q22.0297 8.79324 21.9813 8.78399Q21.933 8.77474 21.8874 8.75624Q21.8418 8.73773 21.8007 8.71067Q21.7596 8.68361 21.7246 8.64905L21.0117 7.94739Q20.9767 7.91283 20.9491 7.8721Q20.9215 7.83136 20.9023 7.78601Q20.8831 7.74065 20.8731 7.69243Q20.8632 7.6442 20.8628 7.59495Q20.8624 7.5457 20.8715 7.49732Q20.8807 7.44895 20.8991 7.4033Q20.9175 7.35765 20.9445 7.31649Q20.9714 7.27533 21.0059 7.24023Q21.3555 6.8855 21.8145 6.69299Q21.8599 6.67391 21.9081 6.66406Q21.9563 6.6542 22.0056 6.65394Q22.0548 6.65369 22.1031 6.66305Q22.1515 6.6724 22.197 6.69101Q22.2426 6.70962 22.2836 6.73677Q22.3247 6.76392 22.3597 6.79856Q22.3946 6.8332 22.4222 6.874Q22.4497 6.91481 22.4688 6.96021L22.8555 7.88208Q22.8747 7.92748 22.8847 7.97573Q22.8947 8.02398 22.8951 8.07322Q22.8955 8.12246 22.8863 8.17081Q22.8771 8.21916 22.8586 8.26475Q22.8401 8.31035 22.813 8.35143Q22.7859 8.39252 22.7514 8.42752Q22.7168 8.46252 22.676 8.49009Q22.6352 8.51766 22.5898 8.53674Q22.5 8.5741 22.4316 8.6438ZM22.2012 7.61487Q22.4746 7.5 22.7715 7.5L22.7715 8L22.2715 8L22.2715 7L22.7715 7L22.7715 7.5Q22.4746 7.5 22.2012 7.61487L22.0078 7.15393L22.4688 6.96021L22.8555 7.88208L22.3945 8.07581L22.2012 7.61487ZM22.5898 8.53674Q22.5444 8.55582 22.4962 8.56568Q22.4479 8.57554 22.3986 8.57579Q22.3493 8.57605 22.3008 8.56669Q22.2524 8.55733 22.2067 8.53872Q22.161 8.52011 22.1198 8.49296Q22.0786 8.46582 22.0434 8.43118Q22.0083 8.39654 21.9806 8.35573Q21.9528 8.31493 21.9336 8.26953L21.5469 7.34766Q21.5278 7.30226 21.518 7.25401Q21.5082 7.20576 21.508 7.15652Q21.5077 7.10727 21.5171 7.05892Q21.5265 7.01058 21.5452 6.96498Q21.5638 6.91939 21.591 6.8783Q21.6181 6.83722 21.6528 6.80222Q21.6874 6.76721 21.7282 6.73964Q21.7691 6.71207 21.8145 6.69299Q22.2734 6.5 22.7715 6.5Q22.8207 6.5 22.869 6.50961Q22.9173 6.51921 22.9628 6.53806Q23.0083 6.5569 23.0493 6.58426Q23.0902 6.61162 23.125 6.64645Q23.1599 6.68127 23.1872 6.72221Q23.2146 6.76316 23.2334 6.80866Q23.2523 6.85415 23.2619 6.90245Q23.2715 6.95075 23.2715 7L23.2715 8Q23.2715 8.04924 23.2619 8.09754Q23.2523 8.14584 23.2334 8.19134Q23.2146 8.23684 23.1872 8.27778Q23.1599 8.31873 23.125 8.35355Q23.0902 8.38837 23.0493 8.41573Q23.0083 8.44309 22.9628 8.46194Q22.9173 8.48078 22.869 8.49039Q22.8207 8.5 22.7715 8.5Q22.6758 8.5 22.5898 8.53674ZM22.7715 7.5Q23.0664 7.5 23.3398 7.61487L23.1465 8.07581L22.6855 7.88208L23.0723 6.96021L23.5332 7.15393L23.3398 7.61487Q23.0664 7.5 22.7715 7.5L22.7715 7L23.2715 7L23.2715 8L22.7715 8L22.7715 7.5ZM22.7715 8.5Q22.7222 8.5 22.6739 8.49039Q22.6256 8.48078 22.5801 8.46194Q22.5346 8.44309 22.4937 8.41573Q22.4528 8.38837 22.4179 8.35355Q22.3831 8.31873 22.3557 8.27778Q22.3284 8.23684 22.3095 8.19134Q22.2907 8.14584 22.2811 8.09754Q22.2715 8.04924 22.2715 8L22.2715 7Q22.2715 6.95075 22.2811 6.90245Q22.2907 6.85415 22.3095 6.80866Q22.3284 6.76316 22.3557 6.72221Q22.3831 6.68127 22.4179 6.64645Q22.4528 6.61162 22.4937 6.58426Q22.5346 6.5569 22.5801 6.53806Q22.6256 6.51921 22.6739 6.50961Q22.7222 6.5 22.7715 6.5Q23.2676 6.5 23.7266 6.69299Q23.772 6.71207 23.8128 6.73964Q23.8536 6.76721 23.8882 6.80222Q23.9229 6.83722 23.9501 6.8783Q23.9772 6.91939 23.9959 6.96498Q24.0145 7.01058 24.0239 7.05892Q24.0333 7.10727 24.033 7.15652Q24.0328 7.20576 24.023 7.25401Q24.0132 7.30226 23.9941 7.34766L23.6074 8.26953Q23.5884 8.31493 23.5608 8.35573Q23.5333 8.39654 23.4983 8.43118Q23.4634 8.46582 23.4223 8.49297Q23.3813 8.52011 23.3357 8.53872Q23.2901 8.55733 23.2418 8.56669Q23.1935 8.57605 23.1442 8.57579Q23.095 8.57554 23.0468 8.56568Q22.9985 8.55582 22.9531 8.53674Q22.8652 8.5 22.7715 8.5ZM23.3398 7.61487Q23.6133 7.72974 23.8223 7.94202L23.4668 8.29297L23.1152 7.93689L23.8281 7.23499L24.1777 7.59106L23.8223 7.94202Q23.6133 7.72974 23.3398 7.61487L23.5332 7.15393L23.9941 7.34778L23.6074 8.26965L23.1465 8.07581L23.3398 7.61487ZM22.9531 8.53674Q22.9077 8.51765 22.8669 8.49007Q22.8261 8.46249 22.7915 8.42747Q22.7568 8.39246 22.7296 8.35137Q22.7025 8.31027 22.6838 8.26467Q22.6652 8.21906 22.6558 8.17071Q22.6464 8.12236 22.6466 8.07311Q22.6469 8.02386 22.6567 7.97561Q22.6665 7.92736 22.6855 7.88196L23.0723 6.96021Q23.0915 6.91481 23.1192 6.874Q23.1469 6.8332 23.1821 6.79856Q23.2172 6.76392 23.2585 6.73677Q23.2997 6.70962 23.3454 6.69101Q23.3911 6.6724 23.4395 6.66305Q23.4879 6.65369 23.5373 6.65394Q23.5866 6.6542 23.6348 6.66406Q23.6831 6.67391 23.7285 6.69299Q24.1855 6.8855 24.5352 7.24011Q24.5696 7.27518 24.5965 7.31632Q24.6235 7.35746 24.6419 7.40309Q24.6603 7.44872 24.6695 7.49708Q24.6787 7.54545 24.6782 7.59469Q24.6778 7.64393 24.6679 7.69215Q24.6579 7.74038 24.6387 7.78573Q24.6195 7.83109 24.5919 7.87183Q24.5643 7.91258 24.5293 7.94714L23.8164 8.64905Q23.7814 8.68363 23.7403 8.71069Q23.6992 8.73776 23.6536 8.75628Q23.608 8.7748 23.5597 8.78406Q23.5113 8.79332 23.4621 8.79296Q23.4128 8.79261 23.3646 8.78265Q23.3164 8.77269 23.271 8.75351Q23.2256 8.73433 23.1848 8.70667Q23.144 8.679 23.1094 8.64392Q23.041 8.5741 22.9531 8.53674ZM23.8223 7.94202L31.7051 15.9343L31.3496 16.2854L30.998 15.9294L31.7109 15.2272L32.0605 15.5831L31.7051 15.9343L23.8223 7.94202L24.1777 7.59094L24.5293 7.9469L23.8184 8.64905L23.4668 8.29309L23.8223 7.94202ZM23.1113 8.64429Q23.0767 8.60922 23.0496 8.56807Q23.0224 8.52693 23.0038 8.4813Q22.9853 8.43566 22.9759 8.38729Q22.9666 8.33892 22.9668 8.28967Q22.9671 8.24042 22.977 8.19219Q22.9869 8.14395 23.006 8.09859Q23.0251 8.05322 23.0526 8.01247Q23.0802 7.97171 23.1152 7.93713L23.8281 7.23499Q23.8631 7.2004 23.9042 7.17331Q23.9453 7.14622 23.9909 7.12768Q24.0365 7.10914 24.0849 7.09986Q24.1332 7.09058 24.1825 7.09091Q24.2317 7.09124 24.2799 7.10117Q24.3282 7.11111 24.3736 7.13026Q24.419 7.14941 24.4597 7.17705Q24.5005 7.20469 24.5352 7.23975L32.418 15.2321Q32.418 15.2321 32.418 15.2321Q32.4524 15.2671 32.4793 15.3082Q32.5063 15.3494 32.5247 15.395Q32.5431 15.4406 32.5523 15.489Q32.5615 15.5374 32.5611 15.5866Q32.5606 15.6359 32.5507 15.6841Q32.5407 15.7323 32.5215 15.7777Q32.5024 15.8231 32.4747 15.8639Q32.4471 15.9046 32.4121 15.9392L31.7012 16.6414Q31.666 16.6759 31.6247 16.703Q31.5835 16.7301 31.5378 16.7486Q31.4921 16.7671 31.4437 16.7764Q31.3953 16.7857 31.346 16.7853Q31.2968 16.785 31.2486 16.7751Q31.2004 16.7651 31.1551 16.746Q31.1099 16.7268 31.0692 16.6992Q31.0286 16.6715 30.9941 16.6365L23.1113 8.64429ZM31.7051 15.9343Q31.9141 16.1462 32.0273 16.4232Q32.1406 16.7001 32.1406 16.9999L31.6406 16.9999L31.6406 16.4999L32.6406 16.4999L32.6406 16.9999L32.1406 16.9999Q32.1406 16.7001 32.0273 16.4232Q31.9141 16.1462 31.7051 15.9343L32.0605 15.5833L32.4121 15.9393L31.7012 16.6414L31.3496 16.2853L31.7051 15.9343ZM30.9941 16.6364Q30.9595 16.6013 30.9324 16.5601Q30.9052 16.519 30.8867 16.4734Q30.8681 16.4277 30.8587 16.3794Q30.8494 16.331 30.8497 16.2817Q30.8499 16.2325 30.8598 16.1843Q30.8697 16.136 30.8888 16.0907Q30.9079 16.0453 30.9354 16.0045Q30.963 15.9638 30.998 15.9292L31.7109 15.2272Q31.7459 15.1926 31.787 15.1655Q31.8281 15.1385 31.8737 15.12Q31.9193 15.1015 31.9677 15.0922Q32.016 15.0829 32.0653 15.0833Q32.1145 15.0837 32.1627 15.0936Q32.211 15.1036 32.2564 15.1227Q32.3018 15.1419 32.3426 15.1696Q32.3833 15.1972 32.418 15.2323Q32.7656 15.5851 32.9531 16.0452Q33.1406 16.5038 33.1406 16.9999Q33.1406 17.0491 33.131 17.0974Q33.1214 17.1457 33.1026 17.1912Q33.0837 17.2367 33.0564 17.2777Q33.029 17.3186 32.9942 17.3534Q32.9594 17.3883 32.9184 17.4156Q32.8775 17.443 32.832 17.4618Q32.7865 17.4807 32.7382 17.4903Q32.6899 17.4999 32.6406 17.4999L31.6406 17.4999Q31.5914 17.4999 31.5431 17.4903Q31.4948 17.4807 31.4493 17.4618Q31.4038 17.443 31.3628 17.4156Q31.3219 17.3883 31.2871 17.3534Q31.2522 17.3186 31.2249 17.2777Q31.1975 17.2367 31.1787 17.1912Q31.1598 17.1457 31.1502 17.0974Q31.1406 17.0491 31.1406 16.9999Q31.1406 16.7858 30.9941 16.6364ZM32.1406 16.9999Q32.1406 17.2996 32.0273 17.5765Q31.9141 17.8534 31.7051 18.0653L31.3496 17.7144L31.7012 17.3583L32.4121 18.0604L32.0605 18.4164L31.7051 18.0653Q31.9141 17.8534 32.0273 17.5765Q32.1406 17.2996 32.1406 16.9999L32.6406 16.9999L32.6406 17.4999L31.6406 17.4999L31.6406 16.9999L32.1406 16.9999ZM31.1406 16.9999Q31.1406 16.9506 31.1502 16.9023Q31.1598 16.854 31.1787 16.8085Q31.1975 16.763 31.2249 16.7221Q31.2522 16.6811 31.2871 16.6463Q31.3219 16.6115 31.3628 16.5841Q31.4038 16.5568 31.4493 16.5379Q31.4948 16.5191 31.5431 16.5095Q31.5914 16.4999 31.6406 16.4999L32.6406 16.4999Q32.6899 16.4999 32.7382 16.5095Q32.7865 16.5191 32.832 16.5379Q32.8775 16.5568 32.9184 16.5841Q32.9594 16.6115 32.9942 16.6463Q33.029 16.6811 33.0564 16.7221Q33.0837 16.763 33.1026 16.8085Q33.1214 16.854 33.131 16.9023Q33.1406 16.9506 33.1406 16.9999Q33.1406 17.4958 32.9531 17.9546Q32.7656 18.4147 32.418 18.7675Q32.3833 18.8025 32.3425 18.8302Q32.3018 18.8578 32.2564 18.877Q32.211 18.8962 32.1627 18.9061Q32.1145 18.9161 32.0653 18.9164Q32.016 18.9168 31.9677 18.9075Q31.9193 18.8982 31.8737 18.8797Q31.8281 18.8612 31.787 18.8341Q31.7459 18.807 31.7109 18.7725L30.998 18.0703Q30.963 18.0357 30.9354 17.995Q30.9079 17.9542 30.8888 17.9089Q30.8697 17.8635 30.8598 17.8153Q30.8499 17.767 30.8497 17.7178Q30.8494 17.6686 30.8587 17.6202Q30.8681 17.5718 30.8867 17.5262Q30.9052 17.4806 30.9324 17.4395Q30.9595 17.3983 30.9941 17.3633Q31.1406 17.214 31.1406 16.9999ZM31.7051 18.0653L30.3574 19.4324L30.002 19.0812L30.3516 18.7252L31.0645 19.4275L30.7129 19.7834L30.3574 19.4324L31.7051 18.0653L32.0605 18.4165L31.7109 18.7725L30.998 18.0702L31.3496 17.7142L31.7051 18.0653ZM30.9941 17.3632Q31.0286 17.3281 31.0692 17.3005Q31.1098 17.2728 31.1551 17.2537Q31.2004 17.2345 31.2486 17.2246Q31.2968 17.2146 31.346 17.2143Q31.3953 17.2139 31.4437 17.2232Q31.4921 17.2325 31.5378 17.251Q31.5835 17.2696 31.6247 17.2966Q31.666 17.3237 31.7012 17.3583L32.4121 18.0605Q32.4471 18.0951 32.4747 18.1359Q32.5024 18.1766 32.5215 18.222Q32.5407 18.2674 32.5507 18.3156Q32.5606 18.3638 32.5611 18.413Q32.5615 18.4623 32.5523 18.5107Q32.5431 18.559 32.5247 18.6046Q32.5063 18.6503 32.4793 18.6914Q32.4524 18.7325 32.418 18.7676L31.0684 20.1345Q31.0339 20.1696 30.9933 20.1972Q30.9526 20.2249 30.9074 20.244Q30.8621 20.2632 30.8139 20.2731Q30.7657 20.2831 30.7165 20.2834Q30.6672 20.2837 30.6188 20.2745Q30.5704 20.2652 30.5247 20.2467Q30.479 20.2281 30.4378 20.2011Q30.3965 20.174 30.3613 20.1394L29.6504 19.4373Q29.6154 19.4027 29.5878 19.3619Q29.5601 19.3211 29.541 19.2758Q29.5218 19.2304 29.5118 19.1822Q29.5018 19.1339 29.5014 19.0847Q29.501 19.0354 29.5102 18.987Q29.5194 18.9387 29.5378 18.8931Q29.5562 18.8474 29.5832 18.8063Q29.6101 18.7652 29.6445 18.7301L30.9941 17.3632ZM20.3711 19.4324L27.7637 11.9381L28.1191 12.2893L27.7676 12.6453L27.0566 11.943L27.4062 11.587L27.7637 11.9381L20.3711 19.4324L20.0156 19.0812L20.3672 18.7252L21.0781 19.4275L20.7285 19.7834L20.3711 19.4324ZM21.084 20.1345Q21.084 20.1345 21.084 20.1345Q21.0494 20.1696 21.0086 20.1972Q20.9678 20.2249 20.9224 20.244Q20.877 20.2632 20.8288 20.2731Q20.7805 20.2831 20.7313 20.2834Q20.682 20.2837 20.6337 20.2745Q20.5853 20.2652 20.5397 20.2467Q20.4941 20.2281 20.4531 20.2011Q20.412 20.174 20.377 20.1394L19.6641 19.4373Q19.6291 19.4027 19.6015 19.3619Q19.5739 19.3211 19.5548 19.2758Q19.5357 19.2304 19.5258 19.1822Q19.5159 19.1339 19.5157 19.0847Q19.5154 19.0354 19.5247 18.987Q19.5341 18.9387 19.5527 18.8931Q19.5713 18.8474 19.5984 18.8063Q19.6255 18.7652 19.6602 18.7301L27.0508 11.236Q27.0508 11.236 27.0508 11.236Q27.0854 11.2009 27.1262 11.1733Q27.167 11.1456 27.2124 11.1265Q27.2578 11.1073 27.306 11.0974Q27.3542 11.0874 27.4035 11.0871Q27.4527 11.0867 27.5011 11.096Q27.5494 11.1053 27.595 11.1238Q27.6406 11.1424 27.6817 11.1694Q27.7228 11.1965 27.7578 11.2311L28.4707 11.9332Q28.5057 11.9678 28.5333 12.0086Q28.5609 12.0493 28.58 12.0947Q28.5991 12.1401 28.6089 12.1883Q28.6188 12.2366 28.6191 12.2858Q28.6194 12.3351 28.61 12.3834Q28.6007 12.4318 28.5821 12.4774Q28.5635 12.5231 28.5364 12.5642Q28.5092 12.6053 28.4746 12.6404L21.084 20.1345Z" fill="#000000" fill-opacity="1.000000" fill-rule="nonzero"/>
	<mask id="mask_152_1806" fill="white">
		<path id="Shape" d="M13.125 34.25C13.4004 34.25 13.625 34.0261 13.625 33.75C13.625 33.4739 13.4004 33.25 13.125 33.25L13.125 34.25ZM8.26367 31.6819L7.90625 32.0308L7.90625 32.0308L8.26367 31.6819ZM6.67383 6.68542L7.03125 7.03418L7.03125 7.03418L6.67383 6.68542ZM19.5762 6.68542L19.2188 7.03418L19.2188 7.03418L19.5762 6.68542ZM19.5 9.64294C19.5 9.91907 19.7246 10.1429 20 10.1429C20.2754 10.1429 20.5 9.91907 20.5 9.64294L19.5 9.64294ZM13.625 6.875C13.625 6.59888 13.4004 6.375 13.125 6.375C12.8496 6.375 12.625 6.59888 12.625 6.875L13.625 6.875ZM12.625 16.25C12.625 16.5261 12.8496 16.75 13.125 16.75C13.4004 16.75 13.625 16.5261 13.625 16.25L12.625 16.25ZM13.125 33.25C11.4395 33.25 9.81836 32.5621 8.62109 31.3331L7.90625 32.0308C9.28711 33.4501 11.1641 34.25 13.125 34.25L13.125 33.25ZM8.62109 31.3331C7.42383 30.1036 6.75 28.4335 6.75 26.6892L5.75 26.6892C5.75 28.6902 6.52344 30.6118 7.90625 32.0308L8.62109 31.3331ZM6.75 26.6892L6.75 7.73645L5.75 7.73645L5.75 26.6892L6.75 26.6892ZM6.75 7.73645C6.75 7.47058 6.85352 7.21826 7.03125 7.03418L6.31641 6.33655C5.95117 6.71008 5.75 7.21387 5.75 7.73645L6.75 7.73645ZM7.03125 7.03418C7.21094 6.85059 7.45117 6.75 7.69727 6.75L7.69727 5.75C7.17578 5.75 6.67969 5.96265 6.31641 6.33655L7.03125 7.03418ZM7.69727 6.75L18.5527 6.75L18.5527 5.75L7.69727 5.75L7.69727 6.75ZM18.5527 6.75C18.7988 6.75 19.0391 6.85059 19.2188 7.03418L19.9336 6.33655C19.5703 5.96265 19.0742 5.75 18.5527 5.75L18.5527 6.75ZM19.2188 7.03418C19.3965 7.21826 19.5 7.47058 19.5 7.73645L20.5 7.73645C20.5 7.21387 20.2988 6.71008 19.9336 6.33655L19.2188 7.03418ZM19.5 7.73645L19.5 9.64294L20.5 9.64294L20.5 7.73645L19.5 7.73645ZM12.625 6.875L12.625 16.25L13.625 16.25L13.625 6.875L12.625 6.875Z" fill="" fill-opacity="1.000000" fill-rule="nonzero"/>
	</mask>
	<path id="Shape" d="M13.125 33.75L13.125 33.75L13.125 33.75L13.125 33.25L13.625 33.25L13.625 34.25L13.125 34.25L13.125 33.75ZM13.125 34.75Q13.0758 34.75 13.0275 34.7404Q12.9792 34.7308 12.9337 34.7119Q12.8882 34.6931 12.8472 34.6657Q12.8063 34.6384 12.7714 34.6035Q12.7366 34.5687 12.7093 34.5278Q12.6819 34.4868 12.6631 34.4413Q12.6442 34.3958 12.6346 34.3475Q12.625 34.2992 12.625 34.25L12.625 33.25Q12.625 33.2008 12.6346 33.1525Q12.6442 33.1041 12.6631 33.0587Q12.6819 33.0132 12.7093 32.9722Q12.7366 32.9313 12.7714 32.8964Q12.8063 32.8616 12.8472 32.8343Q12.8882 32.8069 12.9337 32.7881Q12.9792 32.7692 13.0275 32.7596Q13.0758 32.75 13.125 32.75Q13.3281 32.75 13.5137 32.8287Q13.6934 32.9048 13.832 33.0428Q13.9707 33.181 14.0469 33.3606Q14.125 33.5469 14.125 33.75Q14.125 33.9531 14.0469 34.1394Q13.9707 34.319 13.832 34.4572Q13.6934 34.5952 13.5137 34.6713Q13.3281 34.75 13.125 34.75ZM8.61328 32.0402L8.25391 32.3889L7.90625 32.0308L7.90625 31.5308L7.90625 31.5308L7.90625 32.0308L7.55664 31.6725L7.91406 31.3237L8.26367 31.6819L8.61328 32.0402ZM7.91406 31.3237Q7.94946 31.2894 7.99085 31.2626Q8.03225 31.2357 8.07805 31.2175Q8.12386 31.1993 8.17231 31.1903Q8.22076 31.1813 8.27001 31.182Q8.31925 31.1826 8.36738 31.1929Q8.41552 31.2031 8.4607 31.2226Q8.50587 31.242 8.54636 31.2699Q8.58685 31.2978 8.62109 31.3331Q8.65553 31.3684 8.68243 31.4097Q8.70933 31.451 8.72767 31.4968Q8.74602 31.5425 8.75509 31.591Q8.76416 31.6394 8.76362 31.6886Q8.76307 31.7379 8.75293 31.786Q8.74279 31.8342 8.72345 31.8794Q8.7041 31.9247 8.67629 31.9652Q8.64848 32.0058 8.61328 32.0402L8.25391 32.3889Q8.1844 32.4571 8.09417 32.4939Q8.00393 32.5308 7.90625 32.5308L7.90625 32.5308Q7.8051 32.5308 7.71158 32.4914Q7.61805 32.452 7.54688 32.3795Q7.51263 32.3442 7.48592 32.3029Q7.4592 32.2616 7.44104 32.2159Q7.42288 32.1702 7.41396 32.1217Q7.40505 32.0733 7.40573 32.0241Q7.40641 31.9748 7.41666 31.9267Q7.4269 31.8785 7.44632 31.8333Q7.46574 31.788 7.49359 31.7474Q7.52144 31.7068 7.55664 31.6725L7.91406 31.3237ZM7.02344 6.32715L7.38086 6.67603L7.03125 7.03418L6.67383 6.68518L6.67383 6.68518L7.03125 7.03418L6.68359 7.39246L6.32422 7.04358L6.67383 6.68542L7.02344 6.32715ZM6.32422 7.04358Q6.28902 7.00923 6.26121 6.96866Q6.2334 6.92808 6.21405 6.88284Q6.19471 6.83761 6.18457 6.78944Q6.17443 6.74128 6.17388 6.69204Q6.17334 6.6428 6.18241 6.59437Q6.19148 6.54595 6.20982 6.5002Q6.22816 6.45446 6.25507 6.41315Q6.28197 6.37184 6.31641 6.33655Q6.35065 6.30127 6.39114 6.27338Q6.43162 6.24548 6.4768 6.22603Q6.52198 6.20659 6.57012 6.19634Q6.61825 6.1861 6.66749 6.18544Q6.71673 6.18479 6.76519 6.19375Q6.81364 6.20271 6.85945 6.22095Q6.90525 6.23918 6.94665 6.26599Q6.98804 6.2928 7.02344 6.32715L7.38086 6.6759Q7.38086 6.67603 7.38086 6.67615Q7.41606 6.71053 7.44391 6.75113Q7.47175 6.79174 7.49117 6.83699Q7.51059 6.88225 7.52084 6.93043Q7.53109 6.9786 7.53177 7.02784Q7.53245 7.07708 7.52354 7.1255Q7.51462 7.17391 7.49646 7.21964Q7.4783 7.26536 7.45158 7.30664Q7.42487 7.34793 7.39062 7.38318L7.39062 7.3833Q7.35618 7.41854 7.31554 7.44639Q7.2749 7.47425 7.22962 7.49367Q7.18433 7.51308 7.13615 7.5233Q7.08796 7.53352 7.03873 7.53416Q6.98949 7.5348 6.9411 7.52583Q6.8927 7.51686 6.847 7.49862Q6.8013 7.48039 6.76005 7.45359Q6.7188 7.42679 6.68359 7.39246L6.32422 7.04358ZM19.9258 7.04358L19.5664 7.39246L19.2188 7.03418L19.5742 6.68286L19.5742 6.68286L19.2188 7.03418L18.8691 6.67603L19.2266 6.32715L19.5762 6.68542L19.9258 7.04358ZM19.2266 6.32715Q19.262 6.2928 19.3034 6.26599Q19.3447 6.23918 19.3906 6.22095Q19.4364 6.20271 19.4848 6.19375Q19.5333 6.18479 19.5825 6.18544Q19.6317 6.1861 19.6799 6.19634Q19.728 6.20659 19.7732 6.22604Q19.8184 6.24548 19.8589 6.27338Q19.8994 6.30127 19.9336 6.33655Q19.968 6.37183 19.9949 6.41314Q20.0218 6.45445 20.0402 6.5002Q20.0585 6.54595 20.0676 6.59437Q20.0767 6.64279 20.0761 6.69203Q20.0756 6.74128 20.0654 6.78944Q20.0553 6.8376 20.0359 6.88284Q20.0166 6.92808 19.9888 6.96866Q19.961 7.00923 19.9258 7.04358L19.5664 7.39246Q19.5313 7.42665 19.4902 7.45337Q19.4491 7.4801 19.4036 7.49833Q19.3581 7.51656 19.3099 7.5256Q19.2617 7.53465 19.2127 7.53417Q19.1636 7.53368 19.1156 7.52369Q19.0675 7.51369 19.0223 7.49456Q18.9771 7.47544 18.9365 7.44791Q18.8959 7.42038 18.8613 7.3855L18.8613 7.3855Q18.8613 7.38428 18.8594 7.38306Q18.8251 7.34777 18.7984 7.30646Q18.7717 7.26515 18.7535 7.2194Q18.7354 7.17366 18.7265 7.12523Q18.7176 7.07681 18.7182 7.02757Q18.7189 6.97833 18.7292 6.93016Q18.7394 6.882 18.7588 6.83676Q18.7782 6.79152 18.8061 6.75095Q18.8339 6.71037 18.8691 6.67603L19.2266 6.32715ZM20 9.64294L20 9.64294L20 9.64294L20.5 9.64294L20.5 10.1429L19.5 10.1429L19.5 9.64294L20 9.64294ZM19 9.64294Q19 9.5937 19.0096 9.5454Q19.0192 9.4971 19.0381 9.4516Q19.0569 9.4061 19.0843 9.36516Q19.1116 9.32421 19.1464 9.28939Q19.1813 9.25457 19.2222 9.22721Q19.2632 9.19985 19.3087 9.181Q19.3542 9.16216 19.4025 9.15255Q19.4508 9.14294 19.5 9.14294L20.5 9.14294Q20.5492 9.14294 20.5975 9.15255Q20.6458 9.16216 20.6913 9.181Q20.7368 9.19985 20.7778 9.22721Q20.8187 9.25457 20.8536 9.28939Q20.8884 9.32421 20.9157 9.36516Q20.9431 9.4061 20.9619 9.4516Q20.9808 9.4971 20.9904 9.5454Q21 9.5937 21 9.64294Q21 9.84607 20.9219 10.0323Q20.8457 10.2118 20.707 10.35Q20.5684 10.4882 20.3887 10.5641Q20.2031 10.6429 20 10.6429Q19.7969 10.6429 19.6113 10.5641Q19.4316 10.4882 19.293 10.35Q19.1543 10.2118 19.0781 10.0323Q19 9.84607 19 9.64294ZM13.125 6.875Q13.125 6.875 13.125 6.875L13.125 6.875L12.625 6.875L12.625 6.375L13.625 6.375L13.625 6.875L13.125 6.875ZM14.125 6.875Q14.125 6.92424 14.1154 6.97254Q14.1058 7.02084 14.0869 7.06634Q14.0681 7.11184 14.0407 7.15278Q14.0134 7.19373 13.9786 7.22855Q13.9437 7.26337 13.9028 7.29073Q13.8618 7.31809 13.8163 7.33694Q13.7708 7.35578 13.7225 7.36539Q13.6742 7.375 13.625 7.375L12.625 7.375Q12.5758 7.375 12.5275 7.36539Q12.4792 7.35578 12.4337 7.33694Q12.3882 7.31809 12.3472 7.29073Q12.3063 7.26337 12.2714 7.22855Q12.2366 7.19373 12.2093 7.15278Q12.1819 7.11184 12.1631 7.06634Q12.1442 7.02084 12.1346 6.97254Q12.125 6.92424 12.125 6.875Q12.125 6.67188 12.2031 6.4856Q12.2793 6.30603 12.418 6.16785Q12.5566 6.02979 12.7363 5.95374Q12.9219 5.875 13.125 5.875Q13.3281 5.875 13.5137 5.95374Q13.6934 6.02979 13.832 6.16785Q13.9707 6.30603 14.0469 6.4856Q14.125 6.67188 14.125 6.875ZM13.125 16.25L13.125 16.25L13.125 16.25L13.625 16.25L13.625 16.75L12.625 16.75L12.625 16.25L13.125 16.25ZM12.125 16.25Q12.125 16.2008 12.1346 16.1525Q12.1442 16.1042 12.1631 16.0587Q12.1819 16.0132 12.2093 15.9722Q12.2366 15.9313 12.2714 15.8964Q12.3063 15.8616 12.3472 15.8343Q12.3882 15.8069 12.4337 15.7881Q12.4792 15.7692 12.5275 15.7596Q12.5758 15.75 12.625 15.75L13.625 15.75Q13.6742 15.75 13.7225 15.7596Q13.7708 15.7692 13.8163 15.7881Q13.8618 15.8069 13.9028 15.8343Q13.9437 15.8616 13.9786 15.8964Q14.0134 15.9313 14.0407 15.9722Q14.0681 16.0132 14.0869 16.0587Q14.1058 16.1042 14.1154 16.1525Q14.125 16.2008 14.125 16.25Q14.125 16.4531 14.0469 16.6394Q13.9707 16.819 13.832 16.9572Q13.6934 17.0952 13.5137 17.1713Q13.3281 17.25 13.125 17.25Q12.9219 17.25 12.7363 17.1713Q12.5566 17.0952 12.418 16.9572Q12.2793 16.819 12.2031 16.6394Q12.125 16.4531 12.125 16.25ZM13.125 33.75Q11.7578 33.75 10.4941 33.2125Q9.23047 32.675 8.26367 31.6819L8.62109 31.3331L8.9707 31.6914L8.25391 32.3889L7.90625 32.0308L8.26367 31.6819Q9.23047 32.675 10.4941 33.2125Q11.7578 33.75 13.125 33.75L13.125 34.25L12.625 34.25L12.625 33.25L13.125 33.25L13.125 33.75ZM13.125 32.75Q13.1742 32.75 13.2225 32.7596Q13.2708 32.7692 13.3163 32.7881Q13.3618 32.8069 13.4028 32.8343Q13.4437 32.8616 13.4786 32.8964Q13.5134 32.9313 13.5407 32.9722Q13.5681 33.0132 13.5869 33.0587Q13.6058 33.1041 13.6154 33.1525Q13.625 33.2008 13.625 33.25L13.625 34.25Q13.625 34.2992 13.6154 34.3475Q13.6058 34.3958 13.5869 34.4413Q13.5681 34.4868 13.5407 34.5278Q13.5134 34.5687 13.4786 34.6035Q13.4437 34.6384 13.4028 34.6657Q13.3618 34.6931 13.3163 34.7119Q13.2708 34.7308 13.2225 34.7404Q13.1742 34.75 13.125 34.75Q11.5527 34.75 10.1035 34.1327Q8.6543 33.5166 7.54688 32.3795Q7.51263 32.3442 7.48592 32.3029Q7.4592 32.2616 7.44104 32.2159Q7.42288 32.1702 7.41396 32.1217Q7.40505 32.0733 7.40573 32.0241Q7.40641 31.9748 7.41666 31.9267Q7.4269 31.8785 7.44632 31.8333Q7.46574 31.788 7.49359 31.7474Q7.52144 31.7068 7.55664 31.6725L8.27344 30.9749Q8.30864 30.9405 8.34988 30.9137Q8.39113 30.8869 8.43683 30.8687Q8.48253 30.8504 8.53093 30.8415Q8.57933 30.8325 8.62857 30.8331Q8.67781 30.8338 8.726 30.844Q8.77419 30.8543 8.81947 30.8737Q8.86476 30.8932 8.90539 30.9211Q8.94604 30.949 8.98047 30.9843Q9.80664 31.8335 10.8848 32.2924Q11.9609 32.75 13.125 32.75ZM8.26367 31.6819Q7.29688 30.6888 6.77344 29.3912Q6.25 28.0938 6.25 26.6892L6.75 26.6892L6.75 27.1892L5.75 27.1892L5.75 26.6892L6.25 26.6892Q6.25 28.0936 6.77344 29.3912Q7.29688 30.6887 8.26367 31.6819L7.90625 32.0308L7.55664 31.6725L8.27344 30.9749L8.62109 31.3331L8.26367 31.6819ZM8.98047 30.9843Q9.01471 31.0195 9.04142 31.0609Q9.06814 31.1022 9.0863 31.1479Q9.10447 31.1937 9.11338 31.2421Q9.12229 31.2905 9.12161 31.3398Q9.12093 31.389 9.11068 31.4372Q9.10044 31.4854 9.08102 31.5306Q9.0616 31.5759 9.03375 31.6165Q9.00591 31.657 8.9707 31.6914L8.25391 32.3889Q8.2187 32.4233 8.17746 32.4501Q8.13621 32.4769 8.09051 32.4952Q8.04481 32.5134 7.99641 32.5224Q7.94801 32.5313 7.89877 32.5307Q7.84953 32.53 7.80134 32.5198Q7.75315 32.5095 7.70787 32.4901Q7.66259 32.4706 7.62195 32.4427Q7.58131 32.4148 7.54688 32.3795Q6.44336 31.2454 5.8457 29.7653Q5.25 28.2877 5.25 26.6892Q5.25 26.64 5.25961 26.5917Q5.26921 26.5434 5.28806 26.4979Q5.30691 26.4524 5.33426 26.4114Q5.36162 26.3705 5.39645 26.3357Q5.43127 26.3008 5.47221 26.2735Q5.51316 26.2461 5.55866 26.2273Q5.60416 26.2084 5.65245 26.1988Q5.70075 26.1892 5.75 26.1892L6.75 26.1892Q6.79925 26.1892 6.84754 26.1988Q6.89584 26.2084 6.94134 26.2273Q6.98684 26.2461 7.02778 26.2735Q7.06873 26.3008 7.10355 26.3357Q7.13837 26.3705 7.16573 26.4114Q7.19309 26.4524 7.21194 26.4979Q7.23078 26.5434 7.24039 26.5917Q7.25 26.64 7.25 26.6892Q7.25 27.8997 7.70117 29.0172Q8.15039 30.1322 8.98047 30.9843ZM6.25 26.6892L6.25 7.73645L6.75 7.73645L6.75 8.23645L5.75 8.23645L5.75 7.73645L6.25 7.73645L6.25 26.6892L5.75 26.6892L5.75 26.1892L6.75 26.1892L6.75 26.6892L6.25 26.6892ZM7.25 26.6892Q7.25 26.7385 7.24039 26.7868Q7.23078 26.8351 7.21194 26.8805Q7.19309 26.926 7.16573 26.967Q7.13837 27.0079 7.10355 27.0428Q7.06873 27.0776 7.02778 27.1049Q6.98684 27.1323 6.94134 27.1511Q6.89584 27.17 6.84754 27.1796Q6.79925 27.1892 6.75 27.1892L5.75 27.1892Q5.70075 27.1892 5.65245 27.1796Q5.60416 27.17 5.55866 27.1511Q5.51316 27.1323 5.47221 27.1049Q5.43127 27.0776 5.39645 27.0428Q5.36162 27.0079 5.33426 26.967Q5.30691 26.926 5.28806 26.8805Q5.26921 26.8351 5.25961 26.7868Q5.25 26.7385 5.25 26.6892L5.25 7.73645Q5.25 7.6872 5.25961 7.63891Q5.26921 7.5906 5.28806 7.54511Q5.30691 7.49961 5.33426 7.45866Q5.36162 7.41772 5.39645 7.3829Q5.43127 7.34807 5.47221 7.32071Q5.51316 7.29335 5.55866 7.27451Q5.60416 7.25566 5.65245 7.24606Q5.70075 7.23645 5.75 7.23645L6.75 7.23645Q6.79925 7.23645 6.84754 7.24606Q6.89584 7.25566 6.94134 7.27451Q6.98684 7.29335 7.02778 7.32071Q7.06873 7.34807 7.10355 7.3829Q7.13837 7.41772 7.16573 7.45866Q7.19309 7.49961 7.21194 7.54511Q7.23078 7.5906 7.24039 7.6389Q7.25 7.6872 7.25 7.73645L7.25 26.6892ZM6.25 7.73645Q6.25 7.4408 6.35938 7.1676Q6.4707 6.89441 6.67383 6.68542L7.03125 7.03418L6.68359 7.39246L5.9668 6.69482L6.31641 6.33655L6.67383 6.68542Q6.4707 6.89453 6.35938 7.1676Q6.25 7.4408 6.25 7.73645L5.75 7.73645L5.75 7.23645L6.75 7.23645L6.75 7.73645L6.25 7.73645ZM7.25 7.73645Q7.25 7.7857 7.24039 7.83399Q7.23078 7.88229 7.21194 7.92779Q7.19309 7.97329 7.16573 8.01423Q7.13837 8.05518 7.10355 8.09Q7.06873 8.12482 7.02778 8.15218Q6.98684 8.17954 6.94134 8.19839Q6.89584 8.21723 6.84754 8.22684Q6.79925 8.23645 6.75 8.23645L5.75 8.23645Q5.70075 8.23645 5.65245 8.22684Q5.60416 8.21723 5.55866 8.19839Q5.51316 8.17954 5.47221 8.15218Q5.43127 8.12482 5.39645 8.09Q5.36162 8.05518 5.33426 8.01423Q5.30691 7.97329 5.28806 7.92779Q5.26921 7.88229 5.25961 7.83399Q5.25 7.7857 5.25 7.73645Q5.25 7.24683 5.43359 6.79358Q5.61719 6.33789 5.95703 5.98779Q5.99146 5.95251 6.0321 5.9246Q6.07274 5.89669 6.11803 5.87724Q6.16331 5.85779 6.2115 5.84754Q6.25969 5.83729 6.30893 5.83664Q6.35817 5.83598 6.40657 5.84495Q6.45497 5.85391 6.50067 5.87216Q6.54637 5.8904 6.58762 5.91721Q6.62886 5.94403 6.66406 5.97839L7.38086 6.67603Q7.41606 6.71037 7.44391 6.75095Q7.47175 6.79152 7.49117 6.83676Q7.51059 6.882 7.52084 6.93016Q7.53109 6.97833 7.53177 7.02757Q7.53245 7.07681 7.52354 7.12523Q7.51462 7.17366 7.49646 7.2194Q7.4783 7.26515 7.45158 7.30646Q7.42487 7.34777 7.39062 7.38306Q7.25 7.52722 7.25 7.73645ZM6.67383 6.68542Q6.87695 6.4762 7.14258 6.36316Q7.41016 6.25 7.69727 6.25L7.69727 6.75L7.19727 6.75L7.19727 5.75L7.69727 5.75L7.69727 6.25Q7.41016 6.25 7.14258 6.36316Q6.87695 6.47632 6.67383 6.68542L6.31641 6.33655L6.66406 5.97839L7.38086 6.6759L7.03125 7.03418L6.67383 6.68542ZM7.39062 7.38293Q7.35619 7.41822 7.31555 7.44613Q7.27491 7.47404 7.22963 7.49349Q7.18434 7.51295 7.13616 7.52321Q7.08797 7.53346 7.03873 7.53413Q6.98949 7.53479 6.94109 7.52583Q6.89268 7.51688 6.84698 7.49865Q6.80128 7.48042 6.76004 7.45361Q6.7188 7.42681 6.68359 7.39246L5.9668 6.69482Q5.93159 6.66047 5.90375 6.6199Q5.8759 6.57933 5.85648 6.53409Q5.83706 6.48885 5.82681 6.44069Q5.81657 6.39252 5.81589 6.34328Q5.81521 6.29404 5.82412 6.24562Q5.83303 6.19719 5.8512 6.15145Q5.86936 6.1057 5.89607 6.06439Q5.92279 6.02308 5.95703 5.98779Q6.30078 5.63477 6.75195 5.44299Q7.20508 5.25 7.69727 5.25Q7.74651 5.25 7.79481 5.25961Q7.84311 5.26921 7.88861 5.28806Q7.9341 5.30691 7.97505 5.33426Q8.016 5.36162 8.05082 5.39645Q8.08564 5.43127 8.113 5.47221Q8.14036 5.51316 8.1592 5.55866Q8.17805 5.60416 8.18766 5.65245Q8.19726 5.70075 8.19727 5.75L8.19727 6.75Q8.19726 6.79925 8.18766 6.84754Q8.17805 6.89584 8.1592 6.94134Q8.14036 6.98684 8.113 7.02778Q8.08564 7.06873 8.05082 7.10355Q8.016 7.13837 7.97505 7.16573Q7.9341 7.19309 7.88861 7.21194Q7.84311 7.23078 7.79481 7.24039Q7.74651 7.25 7.69727 7.25Q7.51953 7.25 7.39062 7.38293ZM7.69727 6.25L18.5527 6.25L18.5527 6.75L18.0527 6.75L18.0527 5.75L18.5527 5.75L18.5527 6.25L7.69727 6.25L7.69727 5.75L8.19727 5.75L8.19727 6.75L7.69727 6.75L7.69727 6.25ZM7.69727 7.25Q7.64802 7.25 7.59972 7.24039Q7.55142 7.23078 7.50592 7.21194Q7.46043 7.19309 7.41948 7.16573Q7.37853 7.13837 7.34371 7.10355Q7.30889 7.06873 7.28153 7.02778Q7.25417 6.98684 7.23533 6.94134Q7.21648 6.89584 7.20687 6.84754Q7.19727 6.79925 7.19727 6.75L7.19727 5.75Q7.19727 5.70075 7.20687 5.65245Q7.21648 5.60416 7.23533 5.55866Q7.25417 5.51316 7.28153 5.47221Q7.30889 5.43127 7.34371 5.39645Q7.37853 5.36162 7.41948 5.33426Q7.46043 5.30691 7.50592 5.28806Q7.55142 5.26921 7.59972 5.25961Q7.64802 5.25 7.69727 5.25L18.5527 5.25Q18.602 5.25 18.6503 5.25961Q18.6986 5.26921 18.7441 5.28806Q18.7896 5.30691 18.8305 5.33426Q18.8715 5.36162 18.9063 5.39645Q18.9411 5.43127 18.9685 5.47221Q18.9958 5.51316 19.0147 5.55866Q19.0335 5.60416 19.0431 5.65245Q19.0527 5.70075 19.0527 5.75L19.0527 6.75Q19.0527 6.79925 19.0431 6.84754Q19.0335 6.89584 19.0147 6.94134Q18.9958 6.98684 18.9685 7.02778Q18.9411 7.06873 18.9063 7.10355Q18.8715 7.13837 18.8305 7.16573Q18.7896 7.19309 18.7441 7.21194Q18.6986 7.23078 18.6503 7.24039Q18.602 7.25 18.5527 7.25L7.69727 7.25ZM18.5527 6.25Q18.8398 6.25 19.1074 6.36316Q19.373 6.4762 19.5762 6.68542L19.2188 7.03418L18.8691 6.67603L19.5859 5.97839L19.9336 6.33655L19.5762 6.68542Q19.373 6.47632 19.1074 6.36316Q18.8398 6.25 18.5527 6.25L18.5527 5.75L19.0527 5.75L19.0527 6.75L18.5527 6.75L18.5527 6.25ZM18.5527 7.25Q18.5035 7.25 18.4552 7.24039Q18.4069 7.23078 18.3614 7.21194Q18.3159 7.19309 18.2749 7.16573Q18.234 7.13837 18.1992 7.10355Q18.1644 7.06873 18.137 7.02778Q18.1096 6.98684 18.0908 6.94134Q18.0719 6.89584 18.0623 6.84754Q18.0527 6.79925 18.0527 6.75L18.0527 5.75Q18.0527 5.70075 18.0623 5.65245Q18.0719 5.60416 18.0908 5.55866Q18.1096 5.51316 18.137 5.47221Q18.1644 5.43127 18.1992 5.39645Q18.234 5.36162 18.2749 5.33426Q18.3159 5.30691 18.3614 5.28806Q18.4069 5.26921 18.4552 5.25961Q18.5035 5.25 18.5527 5.25Q19.0449 5.25 19.498 5.44299Q19.9492 5.63477 20.293 5.98779Q20.3272 6.02307 20.3539 6.06437Q20.3806 6.10567 20.3988 6.15141Q20.417 6.19715 20.4259 6.24557Q20.4348 6.29399 20.4341 6.34323Q20.4334 6.39247 20.4232 6.44064Q20.4129 6.48881 20.3935 6.53405Q20.3741 6.5793 20.3462 6.61988Q20.3184 6.66046 20.2832 6.69482L19.5664 7.39246Q19.5312 7.42681 19.49 7.45361Q19.4487 7.48042 19.403 7.49866Q19.3573 7.51689 19.3089 7.52585Q19.2605 7.53482 19.2113 7.53416Q19.162 7.53351 19.1138 7.52326Q19.0657 7.51301 19.0204 7.49357Q18.9751 7.47412 18.9344 7.44623Q18.8938 7.41833 18.8594 7.38306Q18.7305 7.25 18.5527 7.25ZM19.5762 6.68542Q19.7793 6.89441 19.8906 7.1676Q20 7.4408 20 7.73645L19.5 7.73645L19.5 7.23645L20.5 7.23645L20.5 7.73645L20 7.73645Q20 7.4408 19.8906 7.1676Q19.7793 6.89453 19.5762 6.68542L19.9336 6.33655L20.2832 6.69482L19.5664 7.39246L19.2188 7.03418L19.5762 6.68542ZM18.8594 7.38306Q18.8251 7.34777 18.7984 7.30646Q18.7717 7.26515 18.7535 7.2194Q18.7354 7.17366 18.7265 7.12523Q18.7176 7.07681 18.7182 7.02757Q18.7189 6.97833 18.7292 6.93016Q18.7394 6.882 18.7588 6.83676Q18.7782 6.79152 18.8061 6.75095Q18.8339 6.71037 18.8691 6.67603L19.5859 5.97839Q19.6211 5.94403 19.6624 5.91721Q19.7036 5.8904 19.7493 5.87215Q19.795 5.85391 19.8434 5.84495Q19.8918 5.83598 19.9411 5.83664Q19.9903 5.83729 20.0385 5.84754Q20.0867 5.85779 20.132 5.87724Q20.1773 5.89669 20.2179 5.9246Q20.2585 5.95251 20.293 5.98779Q20.6328 6.33789 20.8164 6.79358Q21 7.24683 21 7.73645Q21 7.7857 20.9904 7.83399Q20.9808 7.88229 20.9619 7.92779Q20.9431 7.97329 20.9157 8.01423Q20.8884 8.05518 20.8536 8.09Q20.8187 8.12482 20.7778 8.15218Q20.7368 8.17954 20.6913 8.19839Q20.6458 8.21723 20.5975 8.22684Q20.5492 8.23645 20.5 8.23645L19.5 8.23645Q19.4508 8.23645 19.4025 8.22684Q19.3542 8.21723 19.3087 8.19839Q19.2632 8.17954 19.2222 8.15218Q19.1813 8.12482 19.1464 8.09Q19.1116 8.05518 19.0843 8.01423Q19.0569 7.97329 19.0381 7.92779Q19.0192 7.88229 19.0096 7.83399Q19 7.7857 19 7.73645Q19 7.52722 18.8594 7.38306ZM20 7.73645L20 9.64294L19.5 9.64294L19.5 9.14294L20.5 9.14294L20.5 9.64294L20 9.64294L20 7.73645L20.5 7.73645L20.5 8.23645L19.5 8.23645L19.5 7.73645L20 7.73645ZM19 7.73645Q19 7.6872 19.0096 7.63891Q19.0192 7.5906 19.0381 7.54511Q19.0569 7.49961 19.0843 7.45866Q19.1116 7.41772 19.1464 7.3829Q19.1813 7.34807 19.2222 7.32071Q19.2632 7.29335 19.3087 7.27451Q19.3542 7.25566 19.4025 7.24606Q19.4508 7.23645 19.5 7.23645L20.5 7.23645Q20.5492 7.23645 20.5975 7.24606Q20.6458 7.25566 20.6913 7.27451Q20.7368 7.29335 20.7778 7.32071Q20.8187 7.34807 20.8536 7.3829Q20.8884 7.41772 20.9157 7.45866Q20.9431 7.49961 20.9619 7.54511Q20.9808 7.5906 20.9904 7.6389Q21 7.6872 21 7.73645L21 9.64294Q21 9.69219 20.9904 9.74049Q20.9808 9.78879 20.9619 9.83428Q20.9431 9.87978 20.9157 9.92073Q20.8884 9.96167 20.8536 9.9965Q20.8187 10.0313 20.7778 10.0587Q20.7368 10.086 20.6913 10.1049Q20.6458 10.1237 20.5975 10.1333Q20.5492 10.1429 20.5 10.1429L19.5 10.1429Q19.4508 10.1429 19.4025 10.1333Q19.3542 10.1237 19.3087 10.1049Q19.2632 10.086 19.2222 10.0587Q19.1813 10.0313 19.1464 9.9965Q19.1116 9.96167 19.0843 9.92073Q19.0569 9.87978 19.0381 9.83428Q19.0192 9.78879 19.0096 9.74049Q19 9.69219 19 9.64294L19 7.73645ZM13.125 6.875L13.125 16.25L12.625 16.25L12.625 15.75L13.625 15.75L13.625 16.25L13.125 16.25L13.125 6.875L13.625 6.875L13.625 7.375L12.625 7.375L12.625 6.875L13.125 6.875ZM12.125 6.875Q12.125 6.82575 12.1346 6.77745Q12.1442 6.72915 12.1631 6.68366Q12.1819 6.63816 12.2093 6.59721Q12.2366 6.55627 12.2714 6.52145Q12.3063 6.48662 12.3472 6.45926Q12.3882 6.4319 12.4337 6.41306Q12.4792 6.39421 12.5275 6.38461Q12.5758 6.375 12.625 6.375L13.625 6.375Q13.6742 6.375 13.7225 6.38461Q13.7708 6.39421 13.8163 6.41306Q13.8618 6.4319 13.9028 6.45926Q13.9437 6.48662 13.9786 6.52145Q14.0134 6.55627 14.0407 6.59721Q14.0681 6.63816 14.0869 6.68366Q14.1058 6.72915 14.1154 6.77745Q14.125 6.82575 14.125 6.875L14.125 16.25Q14.125 16.2992 14.1154 16.3475Q14.1058 16.3958 14.0869 16.4413Q14.0681 16.4868 14.0407 16.5278Q14.0134 16.5687 13.9786 16.6036Q13.9437 16.6384 13.9028 16.6657Q13.8618 16.6931 13.8163 16.7119Q13.7708 16.7308 13.7225 16.7404Q13.6742 16.75 13.625 16.75L12.625 16.75Q12.5758 16.75 12.5275 16.7404Q12.4792 16.7308 12.4337 16.7119Q12.3882 16.6931 12.3472 16.6657Q12.3063 16.6384 12.2714 16.6036Q12.2366 16.5687 12.2093 16.5278Q12.1819 16.4868 12.1631 16.4413Q12.1442 16.3958 12.1346 16.3475Q12.125 16.2992 12.125 16.25L12.125 6.875Z" fill="#000000" fill-opacity="1.000000" fill-rule="nonzero"/>
</svg>
