<svg width="40.000000" height="40.000000" viewBox="0 0 40 40" fill="none" xmlns="http://www.w3.org/2000/svg" xmlns:xlink="http://www.w3.org/1999/xlink">
	<desc>
			Created with Pixso.
	</desc>
	<defs/>
	<rect id="Icon/allergic" width="40.000000" height="40.000000" fill="#FFFFFF" fill-opacity="0"/>
	<path id="Path" d="M17.89 8.82C16.94 7.98 15.75 7.48 14.49 7.38L14.49 5L12.92 5L12.92 7.47C12.12 7.63 11.36 7.96 10.69 8.43C10.02 8.9 9.46 9.51 9.04 10.21L7.9 9.55L7.03 9.05L6.53 9.92L6.25 10.42L8.41 11.68C8.28 12.17 8.21 12.69 8.21 13.23C8.21 14.78 8.39 16.33 8.76 17.84L6.43 18.47L6.58 19.03L6.84 20L7.81 19.74L9.19 19.36C9.87 21.4 10.88 23.31 12.18 25.02L10.01 27.2L10.41 27.6L11.12 28.31L11.83 27.6L12.48 26.94L13.19 26.23C13.41 26.48 13.64 26.72 13.88 26.96C14.93 28.01 16.09 28.95 17.36 29.73L16.17 31.81L16.66 32.1L17.53 32.6L18.02 31.73L18.73 30.51C20.84 31.59 23.13 32.28 25.49 32.52L25.49 35L27.06 35L27.06 32.62C27.21 32.63 27.36 32.63 27.5 32.63C27.59 32.63 27.68 32.62 27.76 32.62C28.53 32.59 29.29 32.4 29.98 32.07C30.76 31.71 31.45 31.17 31.99 30.51L33.23 31.23L34.1 31.73L34.59 30.86L34.88 30.36L32.83 29.17C33.16 28.44 33.34 27.62 33.34 26.76C33.34 25.74 33.07 24.73 32.57 23.85C32.06 22.96 31.33 22.22 30.46 21.7L31.66 19.6L31.17 19.31L30.3 18.81L28.99 21.09C28.52 20.96 28.02 20.9 27.5 20.9C26.09 20.9 24.71 20.51 23.52 19.77C23.23 19.59 22.96 19.4 22.69 19.18L23.4 18.47L24.47 17.4L24.07 16.99L23.36 16.28L22.65 16.99L22.29 17.35L21.58 18.06C21.37 17.8 21.17 17.52 21 17.23C20.27 16.04 19.87 14.65 19.88 13.23C19.88 12.3 19.66 11.42 19.28 10.64L21.19 8.71L20.79 8.3L20.08 7.59L19.38 8.3L19.09 8.6L18.38 9.31C18.23 9.13 18.06 8.97 17.89 8.82ZM18.37 7.9L20.08 6.18L22.6 8.71L20.46 10.87Q20.59 11.21 20.67 11.56Q20.88 12.37 20.88 13.23Q20.87 14.43 21.25 15.49Q21.44 16.02 21.72 16.51L23.36 14.86L25.88 17.4L24.24 19.04Q24.76 19.34 25.31 19.53Q26.34 19.9 27.5 19.9Q28 19.9 28.49 19.97L29.94 17.44L33.03 19.24L31.78 21.4Q32.08 21.64 32.35 21.91Q32.98 22.54 33.44 23.35Q33.88 24.14 34.11 24.98Q34.34 25.84 34.34 26.76Q34.34 27.56 34.16 28.32Q34.12 28.53 34.06 28.73L36.25 30L34.46 33.1L32.18 31.77Q31.93 32.01 31.66 32.21Q31.09 32.66 30.41 32.98Q29.72 33.3 28.99 33.47Q28.53 33.57 28.06 33.61L28.06 36L24.49 36L24.49 33.4Q23.1 33.2 21.78 32.81Q20.42 32.41 19.13 31.82L17.89 33.97L14.8 32.17L16.02 30.05Q15.28 29.54 14.59 28.96Q13.85 28.35 13.17 27.67L11.12 29.73L8.6 27.2L10.87 24.92Q10.17 23.92 9.6 22.86Q9.01 21.75 8.56 20.57L6.13 21.22L5.21 17.76L7.58 17.13Q7.44 16.41 7.35 15.69Q7.21 14.47 7.21 13.23Q7.21 12.73 7.28 12.25Q7.28 12.21 7.29 12.18L4.88 10.78L6.66 7.68L8.75 8.89Q8.9 8.7 9.06 8.53Q9.53 8.02 10.11 7.61Q10.72 7.18 11.38 6.9Q11.65 6.79 11.92 6.7L11.92 4L15.49 4L15.49 6.51Q16.32 6.68 17.05 7.04Q17.75 7.39 18.37 7.9Z" fill="#161413" fill-opacity="1.000000" fill-rule="evenodd"/>
	<path id="Path" d="M13.75 13.18C13.2 13.18 12.68 13.39 12.3 13.78C11.91 14.16 11.7 14.68 11.7 15.22C11.7 15.76 11.91 16.29 12.3 16.67C12.68 17.05 13.2 17.27 13.75 17.27C14.29 17.27 14.81 17.05 15.19 16.67C15.58 16.29 15.79 15.76 15.79 15.22C15.79 14.68 15.58 14.16 15.19 13.78C14.81 13.39 14.29 13.18 13.75 13.18Z" fill="#000000" fill-opacity="0" fill-rule="evenodd"/>
	<path id="Path" d="M12.3 13.78C11.91 14.16 11.7 14.68 11.7 15.22C11.7 15.76 11.91 16.29 12.3 16.67C12.68 17.05 13.2 17.27 13.75 17.27C14.29 17.27 14.81 17.05 15.19 16.67C15.58 16.29 15.79 15.76 15.79 15.22C15.79 14.68 15.58 14.16 15.19 13.78C14.81 13.39 14.29 13.18 13.75 13.18C13.2 13.18 12.68 13.39 12.3 13.78Z" stroke="#161413" stroke-opacity="1.000000" stroke-width="1.000000"/>
	<path id="Path" d="M19.2 22.72C18.66 22.72 18.14 22.94 17.75 23.32C17.37 23.71 17.15 24.23 17.15 24.77C17.15 25.31 17.37 25.83 17.75 26.21C18.14 26.6 18.66 26.81 19.2 26.81C19.74 26.81 20.26 26.6 20.65 26.21C21.03 25.83 21.25 25.31 21.25 24.77C21.25 24.23 21.03 23.71 20.65 23.32C20.26 22.94 19.74 22.72 19.2 22.72Z" fill="#000000" fill-opacity="0" fill-rule="evenodd"/>
	<path id="Path" d="M17.75 23.32C17.37 23.71 17.15 24.23 17.15 24.77C17.15 25.31 17.37 25.83 17.75 26.21C18.14 26.6 18.66 26.81 19.2 26.81C19.74 26.81 20.26 26.6 20.65 26.21C21.03 25.83 21.25 25.31 21.25 24.77C21.25 24.23 21.03 23.71 20.65 23.32C20.26 22.94 19.74 22.72 19.2 22.72C18.66 22.72 18.14 22.94 17.75 23.32Z" stroke="#161413" stroke-opacity="1.000000" stroke-width="1.000000"/>
	<path id="Path" d="M27.38 29.54C27.92 29.54 28.44 29.33 28.83 28.94C29.21 28.56 29.43 28.04 29.43 27.5C29.43 26.95 29.21 26.43 28.83 26.05C28.44 25.67 27.92 25.45 27.38 25.45C26.84 25.45 26.32 25.67 25.94 26.05C25.55 26.43 25.34 26.95 25.34 27.5C25.34 28.04 25.55 28.56 25.94 28.94C26.32 29.33 26.84 29.54 27.38 29.54Z" fill="#000000" fill-opacity="0" fill-rule="evenodd"/>
	<path id="Path" d="M28.83 28.94C29.21 28.56 29.43 28.04 29.43 27.5C29.43 26.95 29.21 26.43 28.83 26.05C28.44 25.67 27.92 25.45 27.38 25.45C26.84 25.45 26.32 25.67 25.94 26.05C25.55 26.43 25.34 26.95 25.34 27.5C25.34 28.04 25.55 28.56 25.94 28.94C26.32 29.33 26.84 29.54 27.38 29.54C27.92 29.54 28.44 29.33 28.83 28.94Z" stroke="#161413" stroke-opacity="1.000000" stroke-width="1.000000"/>
</svg>
