<svg width="40.000000" height="40.000000" viewBox="0 0 40 40" fill="none" xmlns="http://www.w3.org/2000/svg" xmlns:xlink="http://www.w3.org/1999/xlink">
	<desc>
			Created with Pixso.
	</desc>
	<defs/>
	<mask id="mask_152_89" fill="white">
		<path id="Shape" d="M25.2715 9.41992L16.7012 4.45752C16.1836 4.15771 15.5957 4 15 4C14.4043 4 13.8164 4.15771 13.2988 4.45752L4.72852 9.41992C4.20312 9.72388 3.76758 10.1631 3.46289 10.6929C3.16016 11.2227 3 11.8245 3 12.4373L3 20.5627C3 21.1753 3.16016 21.7771 3.46289 22.3071C3.76758 22.8369 4.20312 23.2761 4.72852 23.5798L13.2988 28.5425C13.8164 28.8423 14.4043 29 15 29C15.5957 29 16.1836 28.8423 16.7012 28.5425L25.2715 23.5798C25.7969 23.2761 26.2324 22.8369 26.5371 22.3071C26.8398 21.7771 27 21.1753 27 20.5627L27 12.4373C27 11.8245 26.8398 11.2227 26.5371 10.6929C26.2324 10.1631 25.7969 9.72388 25.2715 9.41992Z" clip-rule="evenodd" fill="" fill-opacity="1.000000" fill-rule="evenodd"/>
	</mask>
	<path id="Shape" d="M25.0215 9.85278L16.4492 4.89014Q15.7754 4.5 15 4.5Q14.2246 4.5 13.5508 4.89014L4.97852 9.85278Q4.29297 10.2493 3.89648 10.9414Q3.5 11.6348 3.5 12.437L3.5 20.5627Q3.5 21.365 3.89648 22.0586Q4.29297 22.7507 4.97852 23.1472L13.5508 28.1099Q14.2246 28.5 15 28.5Q15.7754 28.5 16.4492 28.1099L25.0215 23.1472Q25.707 22.7507 26.1035 22.0586Q26.5 21.365 26.5 20.563L26.5 12.4373Q26.5 11.6348 26.1035 10.9414Q25.707 10.2493 25.0215 9.85278ZM25.5215 8.9873Q26.4414 9.51855 26.9707 10.4443Q27.5 11.3687 27.5 12.4373L27.5 20.5627Q27.5 21.6311 26.9707 22.5554Q26.4414 23.4814 25.5234 24.0127L16.9512 28.9751Q16.0449 29.5 15 29.5Q13.9551 29.5 13.0488 28.9751L4.47852 24.0127Q3.55859 23.4814 3.0293 22.5554Q2.5 21.6309 2.5 20.5627L2.5 12.4373Q2.5 11.3689 3.0293 10.4443Q3.55859 9.51855 4.47656 8.9873L13.0488 4.02466Q13.9551 3.5 15 3.5Q16.0449 3.5 16.9512 4.02466L25.5234 8.9873L25.5215 8.9873Z" fill="#000000" fill-opacity="1.000000" fill-rule="nonzero"/>
	<mask id="mask_152_92" fill="white">
		<path id="Shape" d="M13.3965 16.3767L4 11L26 11L16.6035 16.3767C16.1113 16.6587 15.5605 16.8064 15 16.8064C14.4395 16.8064 13.8887 16.6587 13.3965 16.3767Z" clip-rule="evenodd" fill="" fill-opacity="1.000000" fill-rule="evenodd"/>
	</mask>
	<path id="Shape" d="M13.1465 16.8105L3.75195 11.4341Q3.70925 11.4096 3.67213 11.3773Q3.63501 11.3449 3.60491 11.3059Q3.5748 11.267 3.55286 11.2229Q3.53093 11.1788 3.51801 11.1313Q3.50508 11.0837 3.50167 11.0346Q3.49826 10.9855 3.50449 10.9366Q3.51072 10.8878 3.52635 10.8411Q3.54198 10.7944 3.56641 10.7517Q3.59934 10.6944 3.64596 10.6475Q3.69258 10.6006 3.74968 10.5675Q3.80679 10.5343 3.87046 10.5172Q3.93413 10.5 4 10.5L26 10.5Q26.0492 10.5 26.0975 10.5096Q26.1458 10.5192 26.1913 10.5381Q26.2368 10.5569 26.2778 10.5843Q26.3187 10.6116 26.3535 10.6464Q26.3884 10.6813 26.4157 10.7222Q26.4431 10.7632 26.4619 10.8087Q26.4808 10.8542 26.4904 10.9025Q26.5 10.9508 26.5 11Q26.5 11.0661 26.4828 11.1299Q26.4656 11.1937 26.4325 11.2509Q26.3993 11.3081 26.3524 11.3547Q26.3055 11.4013 26.248 11.4341L16.8535 16.8105Q15.9863 17.3064 15 17.3064Q14.0137 17.3064 13.1484 16.8108L13.1465 16.8105ZM13.6445 15.9426Q14.2793 16.3064 15 16.3064Q15.7207 16.3064 16.3555 15.9426L25.752 10.5659L26 11L26 11.5L4 11.5L4 11L4.24805 10.5659L13.6445 15.9426Z" fill="#000000" fill-opacity="1.000000" fill-rule="nonzero"/>
</svg>
