<svg width="12.750000" height="16.975098" viewBox="0 0 12.75 16.9751" fill="none" xmlns="http://www.w3.org/2000/svg" xmlns:xlink="http://www.w3.org/1999/xlink">
	<desc>
			Created with Pixso.
	</desc>
	<defs/>
	<path id="location-dot" d="M7.13 16.6C8.86 14.44 12.75 9.29 12.75 6.37C12.75 2.85 9.89 0 6.37 0C2.82 0 0 2.85 0 6.37C0 9.29 3.85 14.44 5.57 16.6C5.97 17.09 6.74 17.09 7.13 16.6ZM1.06 6.37C1.06 3.45 3.41 1.06 6.37 1.06C9.29 1.06 11.68 3.45 11.68 6.37C11.68 6.9 11.48 7.6 11.12 8.5C10.75 9.36 10.25 10.29 9.66 11.22C8.53 13.04 7.2 14.8 6.37 15.87C5.51 14.8 4.18 13.04 3.05 11.22C2.45 10.29 1.95 9.36 1.59 8.5C1.22 7.6 1.06 6.9 1.06 6.37ZM6.37 9.03C7.83 9.03 9.03 7.86 9.03 6.37C9.03 4.91 7.83 3.71 6.37 3.71C4.88 3.71 3.71 4.91 3.71 6.37C3.71 7.86 4.88 9.03 6.37 9.03ZM7.96 6.37C7.96 7.27 7.23 7.96 6.37 7.96C5.47 7.96 4.78 7.27 4.78 6.37C4.78 5.51 5.47 4.78 6.37 4.78C7.23 4.78 7.96 5.51 7.96 6.37Z" fill="#FFFFFF" fill-opacity="1.000000" fill-rule="evenodd"/>
</svg>
