<svg width="109.480469" height="19.959961" viewBox="0 0 109.48 19.96" fill="none" xmlns="http://www.w3.org/2000/svg" xmlns:xlink="http://www.w3.org/1999/xlink">
	<desc>
			Created with Pixso.
	</desc>
	<defs/>
	<mask id="mask_116_935" fill="white">
		<path id="F" d="M17.4805 0.47998L0.480469 0.47998L0.480469 2.47998L17.4805 2.47998L17.4805 0.47998ZM3.48047 10.48L17.4805 10.48L17.4805 8.47998L0.480469 8.47998L0.480469 19.48L3.48047 19.48L3.48047 10.48Z" clip-rule="evenodd" fill="" fill-opacity="1.000000" fill-rule="evenodd"/>
	</mask>
	<path id="F" d="M17.4805 0.47998L0.480469 0.47998L0.480469 2.47998L17.4805 2.47998L17.4805 0.47998ZM3.48047 10.48L17.4805 10.48L17.4805 8.47998L0.480469 8.47998L0.480469 19.48L3.48047 19.48L3.48047 10.48Z" clip-rule="evenodd" fill="#161413" fill-opacity="1.000000" fill-rule="evenodd" mask="url(#mask_116_935)"/>
	<path id="F" d="M17.4805 0.959961L0.480469 0.959961L0.480469 0.47998L0.960938 0.47998L0.960938 2.47998L0.480469 2.47998L0.480469 2L17.4805 2L17.4805 2.47998L17 2.47998L17 0.47998L17.4805 0.47998L17.4805 0.959961ZM17.9609 0L17.9609 2.95996L0 2.95996L0 0L17.4805 0L17.9609 0ZM3.48047 10L17.4805 10L17.4805 10.48L17 10.48L17 8.47998L17.4805 8.47998L17.4805 8.95996L0.480469 8.95996L0.480469 8.47998L0.960938 8.47998L0.960938 19.48L0.480469 19.48L0.480469 19L3.48047 19L3.48047 19.48L3 19.48L3 10L3.48047 10ZM3.48047 10.96L3.48047 10.48L3.96094 10.48L3.96094 19.96L0 19.96L0 8L17.9609 8L17.9609 10.96L3.48047 10.96Z" fill="#161413" fill-opacity="1.000000" fill-rule="nonzero"/>
	<path id="u" d="M37.54 19.33L37.54 18.05C36.33 19.02 34.54 19.48 32 19.48C25.82 19.48 23.48 17.16 23.48 12.76L23.48 4.47L26.41 4.47L26.41 13.42C26.41 16.08 28.09 17.33 30.55 17.33L33.71 17.33C36.18 17.33 37.54 16.08 37.54 14.05L37.54 4.47L40.48 4.47L40.48 19.33L37.54 19.33Z" fill="#161413" fill-opacity="1.000000" fill-rule="nonzero"/>
	<path id="u" d="M37.54 18.05C36.33 19.02 34.54 19.48 32 19.48C25.82 19.48 23.48 17.16 23.48 12.76L23.48 4.47L26.41 4.47L26.41 13.42C26.41 16.08 28.09 17.33 30.55 17.33L33.71 17.33C36.18 17.33 37.54 16.08 37.54 14.05L37.54 4.47L40.48 4.47L40.48 19.33L37.54 19.33L37.54 18.05Z" stroke="#161413" stroke-opacity="1.000000" stroke-width="0.960000"/>
	<path id="r" d="M49.24 4.62L49.24 5.9C50.38 4.93 52.08 4.47 54.48 4.47L54.48 6.62L52.85 6.62C50.53 6.62 49.24 7.87 49.24 9.9L49.24 19.48L46.48 19.48L46.48 4.62L49.24 4.62Z" fill="#161413" fill-opacity="1.000000" fill-rule="nonzero"/>
	<path id="r" d="M49.24 5.9C50.38 4.93 52.08 4.47 54.48 4.47L54.48 6.62L52.85 6.62C50.53 6.62 49.24 7.87 49.24 9.9L49.24 19.48L46.48 19.48L46.48 4.62L49.24 4.62L49.24 5.9Z" stroke="#161413" stroke-opacity="1.000000" stroke-width="0.960000"/>
	<path id="n" d="M63.41 4.62L63.41 5.9C64.62 4.93 66.41 4.47 68.96 4.47C75.13 4.47 77.48 6.79 77.48 11.19L77.48 19.48L74.54 19.48L74.54 10.53C74.54 7.87 73.25 6.62 70.79 6.62L67.24 6.62C64.77 6.62 63.41 7.87 63.41 9.9L63.41 19.48L60.48 19.48L60.48 4.62L63.41 4.62Z" fill="#161413" fill-opacity="1.000000" fill-rule="nonzero"/>
	<path id="n" d="M63.41 5.9C64.62 4.93 66.41 4.47 68.96 4.47C75.13 4.47 77.48 6.79 77.48 11.19L77.48 19.48L74.54 19.48L74.54 10.53C74.54 7.87 73.25 6.62 70.79 6.62L67.24 6.62C64.77 6.62 63.41 7.87 63.41 9.9L63.41 19.48L60.48 19.48L60.48 4.62L63.41 4.62L63.41 5.9Z" stroke="#161413" stroke-opacity="1.000000" stroke-width="0.960000"/>
	<rect id="Rectangle" x="83.480469" y="0.479980" rx="1.000000" width="2.000000" height="2.000000" fill="#A09D9D" fill-opacity="1.000000"/>
	<rect id="Rectangle" x="83.480469" y="0.479980" rx="1.000000" width="2.000000" height="2.000000" stroke="#A09D9D" stroke-opacity="1.000000" stroke-width="0.960000"/>
	<rect id="Rectangle" x="83.480469" y="4.479980" width="2.000000" height="15.000000" fill="#161413" fill-opacity="1.000000"/>
	<rect id="Rectangle" x="83.480469" y="4.479980" width="2.000000" height="15.000000" stroke="#161413" stroke-opacity="1.000000" stroke-width="0.960000"/>
	<path id="x" d="M95.43 4.47L100.48 9.93L105.52 4.47L108.89 4.47L102.23 11.66L109.48 19.48L106.11 19.48L100.48 13.39L94.84 19.48L91.48 19.48L98.72 11.66L92.06 4.47L95.43 4.47Z" fill="#161413" fill-opacity="1.000000" fill-rule="nonzero"/>
	<path id="x" d="M100.48 9.93L105.52 4.47L108.89 4.47L102.23 11.66L109.48 19.48L106.11 19.48L100.48 13.39L94.84 19.48L91.48 19.48L98.72 11.66L92.06 4.47L95.43 4.47L100.48 9.93Z" stroke="#161413" stroke-opacity="1.000000" stroke-width="0.960000"/>
</svg>
