<svg width="38.000000" height="24.000000" viewBox="0 0 38 24" fill="none" xmlns="http://www.w3.org/2000/svg" xmlns:xlink="http://www.w3.org/1999/xlink">
	<desc>
			Created with Pixso.
	</desc>
	<defs/>
	<g opacity="0.070000" style="mix-blend-mode:normal">
		<path id="Path" d="M35 0L3 0C1.3 0 0 1.29 0 3L0 21C0 22.7 1.4 24 3 24L35 24C36.69 24 38 22.7 38 21L38 3C38 1.29 36.59 0 35 0Z" fill="#000000" fill-opacity="1.000000" fill-rule="nonzero"/>
	</g>
	<path id="Path" d="M35 1C36.09 1 37 1.9 37 3L37 21C37 22.1 36.09 23 35 23L3 23C1.9 23 1 22.1 1 21L1 3C1 1.9 1.9 1 3 1L35 1Z" fill="#006FCF" fill-opacity="1.000000" fill-rule="nonzero"/>
	<path id="Shape" d="M14.9785 8.00598L10.9824 8.00598L10.7168 8L7.28516 8L4 15.68L7.91016 15.68L8.40625 14.49L9.53516 14.49L10.0293 15.68L26.9395 15.68L28.0645 14.49L29.1426 15.68L33.9766 15.68L30.4941 11.852L34.0137 8L29.25 8L28.1348 9.19L27.0566 8L16.6875 8L15.8652 9.94098L14.9785 8.00598ZM19.6465 9.08398L17.4062 9.08398L15.9062 12.62L14.2812 9.08398L12.0605 9.08398L12.0605 13.894L10 9.08398L8.00781 9.08398L5.625 14.596L7.17969 14.596L7.67383 13.406L10.2695 13.406L10.7637 14.596L13.4844 14.596L13.4844 10.661L15.2344 14.602L16.4258 14.602L18.1641 10.673L18.1641 14.603L19.623 14.603L19.6465 9.08301L19.6465 9.08398ZM31.5176 9.08398L28.9863 11.852L28.9863 11.852L31.498 14.602L29.623 14.602L28.0762 12.864L26.4629 14.602L20.6523 14.602L20.6523 9.08398L26.5469 9.08398L28.0938 10.81L29.6953 9.08398L31.5176 9.08398ZM25.0469 10.346L22.0684 10.346L22.0684 11.173L24.998 11.173L24.998 12.412L22.0742 12.412L22.0742 13.334L25.0527 13.334L25.0527 14.073L27.1289 11.828L25.0527 9.48798L25.0469 10.346ZM8.9707 10.268L9.74414 12.144L8.20312 12.144L8.9707 10.268Z" clip-rule="evenodd" fill="#FFFFFF" fill-opacity="1.000000" fill-rule="evenodd"/>
</svg>
