<svg width="37.000000" height="24.000000" viewBox="0 0 37 24" fill="none" xmlns="http://www.w3.org/2000/svg" xmlns:xlink="http://www.w3.org/1999/xlink">
	<desc>
			Created with Pixso.
	</desc>
	<defs/>
	<path id="Path" d="M33.68 0L3.31 0C3.18 0 3.06 0 2.93 0C2.82 0 2.72 0 2.61 0C2.38 0.01 2.14 0.02 1.91 0.06C1.68 0.1 1.46 0.18 1.25 0.28C0.83 0.5 0.49 0.84 0.28 1.27C0.17 1.48 0.1 1.71 0.06 1.94C0.02 2.17 0.01 2.41 0 2.64C0 2.75 0 2.86 0 2.97C0 3.1 0 3.22 0 3.35L0 20.64C0 20.77 0 20.89 0 21.02C0 21.13 0 21.24 0 21.35C0.01 21.58 0.02 21.82 0.06 22.05C0.1 22.28 0.17 22.51 0.28 22.72C0.39 22.93 0.52 23.12 0.69 23.29C0.85 23.46 1.04 23.6 1.25 23.71C1.46 23.82 1.68 23.89 1.91 23.93C2.14 23.97 2.38 23.98 2.61 23.99C2.72 23.99 2.82 23.99 2.93 23.99C3.06 24 3.18 24 3.31 24L33.68 24C33.81 24 33.93 24 34.06 23.99C34.17 23.99 34.27 23.99 34.38 23.99C34.61 23.98 34.85 23.97 35.08 23.93C35.31 23.89 35.53 23.81 35.74 23.71C36.16 23.49 36.5 23.15 36.71 22.72C36.82 22.51 36.89 22.29 36.93 22.05C36.97 21.82 36.98 21.58 36.99 21.35C36.99 21.24 36.99 21.13 37 21.02C37 20.89 37 20.77 37 20.64L37 3.35C37 3.22 37 3.1 37 2.97C36.99 2.86 36.99 2.75 36.99 2.64C36.98 2.41 36.97 2.17 36.93 1.94C36.89 1.71 36.82 1.48 36.71 1.27C36.5 0.84 36.16 0.5 35.74 0.28C35.53 0.18 35.31 0.1 35.08 0.06C34.85 0.02 34.61 0.01 34.38 0C34.27 0 34.17 0 34.06 0C33.93 0 33.81 0 33.68 0Z" fill="#000000" fill-opacity="1.000000" fill-rule="nonzero"/>
	<path id="Path" d="M33.87 1C33.97 1 34.07 1 34.17 1C34.35 1.01 34.55 1.01 34.74 1.05C34.91 1.08 35.05 1.12 35.18 1.19C35.45 1.33 35.66 1.55 35.8 1.82C35.87 1.95 35.91 2.09 35.94 2.26C35.98 2.45 35.99 2.66 35.99 2.83C35.99 2.93 35.99 3.03 35.99 3.14C36 3.26 36 3.38 36 3.51L36 20.48C36 20.61 36 20.73 36 20.86C35.99 20.96 35.99 21.06 35.99 21.16C35.99 21.33 35.98 21.54 35.94 21.73C35.91 21.89 35.87 22.03 35.8 22.17C35.66 22.44 35.45 22.66 35.18 22.8C35.05 22.87 34.91 22.91 34.74 22.94C34.55 22.98 34.33 22.99 34.17 22.99C34.07 22.99 33.97 22.99 33.87 22.99C33.75 23 33.62 23 33.5 23L3.48 23C3.36 23 3.24 23 3.12 22.99C3.02 22.99 2.92 22.99 2.82 22.99C2.66 22.99 2.44 22.98 2.25 22.94C2.1 22.92 1.95 22.87 1.81 22.8C1.68 22.73 1.56 22.64 1.45 22.53C1.35 22.43 1.26 22.31 1.19 22.17C1.12 22.03 1.07 21.89 1.05 21.73C1.01 21.54 1 21.33 1 21.16C1 21.06 1 20.96 1 20.86L1 20.56L1 3.43L1 3.13C1 3.03 1 2.93 1 2.83C1 2.66 1.01 2.45 1.05 2.26C1.08 2.1 1.12 1.96 1.19 1.82C1.26 1.68 1.35 1.56 1.45 1.46C1.56 1.35 1.68 1.26 1.81 1.19C1.95 1.12 2.1 1.07 2.25 1.05C2.44 1.01 2.64 1.01 2.82 1C2.92 1 3.02 1 3.12 1L3.49 1L33.5 1L33.87 1Z" fill="#FFFFFF" fill-opacity="1.000000" fill-rule="nonzero"/>
	<path id="Path" d="M10.48 8.38C10.82 8.01 11.05 7.51 10.99 7C10.49 7.02 9.88 7.28 9.53 7.66C9.21 7.98 8.93 8.5 9.01 8.99C9.57 9.03 10.12 8.75 10.48 8.38Z" fill="#000000" fill-opacity="1.000000" fill-rule="nonzero"/>
	<path id="Path" d="M10.94 9C10.13 8.95 9.44 9.43 9.06 9.43C8.67 9.43 8.08 9.02 7.44 9.03C6.61 9.04 5.83 9.49 5.41 10.19C4.54 11.59 5.18 13.68 6.03 14.83C6.44 15.39 6.93 16.02 7.58 15.99C8.2 15.97 8.44 15.62 9.19 15.62C9.94 15.62 10.16 15.99 10.81 15.98C11.49 15.97 11.91 15.42 12.32 14.85C12.79 14.2 12.98 13.58 13 13.55C12.98 13.53 11.69 13.07 11.68 11.67C11.67 10.51 12.69 9.95 12.74 9.92C12.16 9.11 11.26 9.02 10.94 9Z" fill="#000000" fill-opacity="1.000000" fill-rule="nonzero"/>
	<path id="Shape" d="M16.0918 16.176L16.0918 12.976L17.7656 12.982C18.4141 12.998 19.043 12.755 19.5117 12.308L19.623 12.192C20.0352 11.75 20.2559 11.1619 20.2363 10.5572C20.2148 9.95251 19.9551 9.3808 19.5117 8.96796C19.0449 8.51404 18.416 8.26495 17.7656 8.276L15.0742 8.276L15.0742 16.176L16.0918 16.176ZM16.0918 9.24396L16.0918 12.032L17.791 12.032C18.168 12.044 18.5312 11.897 18.7949 11.628C19.1816 11.2256 19.2891 10.6317 19.0703 10.1188C18.8516 9.60602 18.3477 9.2735 17.791 9.27399L16.0918 9.24396ZM24.3535 11.205C23.8613 10.78 23.2266 10.562 22.5762 10.592C21.7148 10.5428 20.8887 10.944 20.3945 11.652L21.2891 12.216C21.5762 11.7651 22.0742 11.494 22.6074 11.499C22.9707 11.4919 23.3203 11.6237 23.5879 11.867C23.8574 12.0873 24.0117 12.4196 24.0059 12.768L24.0059 12.976C23.5449 12.738 23.0312 12.625 22.5156 12.645C21.9082 12.624 21.3105 12.8051 20.8164 13.16C20.4082 13.4802 20.1816 13.9778 20.2051 14.496C20.1934 15.0081 20.4199 15.4963 20.8164 15.82C21.2305 16.1803 21.7656 16.3707 22.3125 16.353C22.9961 16.3607 23.6328 16.0065 23.9863 15.422L24.0352 15.422L24.0352 16.188L25.0039 16.188L25.0039 12.854C25.0371 12.235 24.7988 11.635 24.3535 11.205ZM27.1855 18.56L30.5762 10.77L29.4785 10.77L27.9102 14.655L26.2969 10.77L25.1934 10.77L27.418 15.832L26.1367 18.56L27.1855 18.56ZM21.2891 14.52C21.2852 14.783 21.4102 15.0312 21.627 15.182C21.8496 15.358 22.127 15.451 22.4121 15.445C22.8398 15.444 23.252 15.275 23.5566 14.973C23.8613 14.687 24.0352 14.288 24.0352 13.87C23.6504 13.5963 23.1816 13.4642 22.7109 13.496C22.3457 13.4816 21.9844 13.5846 21.6816 13.79C21.4375 13.9531 21.291 14.2266 21.2891 14.52Z" clip-rule="evenodd" fill="#000000" fill-opacity="1.000000" fill-rule="evenodd"/>
</svg>
