<svg width="38.000000" height="24.000000" viewBox="0 0 38 24" fill="none" xmlns="http://www.w3.org/2000/svg" xmlns:xlink="http://www.w3.org/1999/xlink">
	<desc>
			Created with Pixso.
	</desc>
	<defs/>
	<g opacity="0.070000" style="mix-blend-mode:normal">
		<path id="Path" d="M35 0L3 0C1.3 0 0 1.29 0 3L0 21C0 22.7 1.4 24 3 24L35 24C36.69 24 38 22.7 38 21L38 3C38 1.29 36.59 0 35 0Z" fill="#000000" fill-opacity="1.000000" fill-rule="nonzero"/>
	</g>
	<path id="Path" d="M35 1C36.09 1 37 1.9 37 3L37 21C37 22.1 36.09 23 35 23L3 23C1.9 23 1 22.1 1 21L1 3C1 1.9 1.9 1 3 1L35 1Z" fill="#FFFFFF" fill-opacity="1.000000" fill-rule="nonzero"/>
	<path id="Shape" d="M18.0918 15.176L18.0918 11.976L19.7656 11.982C20.4141 11.998 21.043 11.755 21.5117 11.308L21.623 11.192C22.0352 10.75 22.2559 10.1619 22.2363 9.55719C22.2148 8.95251 21.9551 8.3808 21.5117 7.96796C21.0449 7.51404 20.416 7.26495 19.7656 7.276L17.0742 7.276L17.0742 15.176L18.0918 15.176ZM18.0918 8.24396L18.0918 11.032L19.791 11.032C20.168 11.044 20.5312 10.897 20.7949 10.628C21.1816 10.2256 21.2891 9.63165 21.0703 9.11884C20.8516 8.60602 20.3477 8.2735 19.791 8.27399L18.0918 8.24396ZM26.3535 10.205C25.8613 9.77997 25.2266 9.56201 24.5762 9.59198C23.7148 9.54279 22.8887 9.94397 22.3945 10.652L23.2891 11.216C23.5762 10.7651 24.0742 10.494 24.6074 10.499C24.9707 10.4919 25.3203 10.6237 25.5879 10.867C25.8574 11.0873 26.0117 11.4196 26.0059 11.768L26.0059 11.976C25.5449 11.738 25.0312 11.625 24.5156 11.645C23.9082 11.624 23.3105 11.8051 22.8164 12.16C22.4082 12.4802 22.1816 12.9778 22.2051 13.496C22.1934 14.0081 22.4199 14.4963 22.8164 14.82C23.2305 15.1803 23.7656 15.3707 24.3125 15.353C24.9961 15.3607 25.6328 15.0065 25.9863 14.422L26.0352 14.422L26.0352 15.188L27.0039 15.188L27.0039 11.854C27.0371 11.235 26.7988 10.635 26.3535 10.205ZM29.1855 17.56L32.5762 9.76996L31.4785 9.76996L29.9102 13.655L28.2969 9.76996L27.1934 9.76996L29.418 14.832L28.1367 17.56L29.1855 17.56ZM23.2891 13.52C23.2852 13.783 23.4102 14.0312 23.627 14.182C23.8496 14.358 24.127 14.451 24.4121 14.445C24.8398 14.444 25.252 14.275 25.5566 13.973C25.8613 13.687 26.0352 13.288 26.0352 12.87C25.6504 12.5963 25.1816 12.4642 24.7109 12.496C24.3457 12.4816 23.9844 12.5846 23.6816 12.79C23.4375 12.9531 23.291 13.2266 23.2891 13.52Z" clip-rule="evenodd" fill="#5F6368" fill-opacity="1.000000" fill-rule="evenodd"/>
	<path id="Path" d="M13.98 11.28C13.98 10.97 13.96 10.66 13.91 10.36L9.62 10.36L9.62 12.11L12.07 12.11C11.97 12.67 11.64 13.16 11.17 13.48L11.17 14.61L12.63 14.61C13.53 13.74 14.02 12.53 13.98 11.28Z" fill="#4285F4" fill-opacity="1.000000" fill-rule="nonzero"/>
	<path id="Path" d="M9.62 15.72C10.73 15.75 11.81 15.35 12.63 14.62L11.17 13.48C10.45 13.94 9.57 14.04 8.77 13.76C7.97 13.48 7.34 12.84 7.07 12.04L5.57 12.04L5.57 13.21C6.34 14.74 7.91 15.72 9.62 15.72Z" fill="#34A853" fill-opacity="1.000000" fill-rule="nonzero"/>
	<path id="Path" d="M7.07 12.05C6.88 11.48 6.88 10.87 7.07 10.31L7.07 9.14L5.57 9.14C4.92 10.42 4.92 11.93 5.57 13.22L7.07 12.05Z" fill="#FBBC04" fill-opacity="1.000000" fill-rule="nonzero"/>
	<path id="Path" d="M9.62 8.43C10.27 8.42 10.9 8.67 11.36 9.11L12.66 7.82C11.83 7.04 10.74 6.62 9.6 6.64C7.89 6.65 6.33 7.61 5.57 9.14L7.07 10.31C7.43 9.2 8.46 8.45 9.62 8.43Z" fill="#EA4335" fill-opacity="1.000000" fill-rule="nonzero"/>
</svg>
