<svg width="38.000000" height="24.000000" viewBox="0 0 38 24" fill="none" xmlns="http://www.w3.org/2000/svg" xmlns:xlink="http://www.w3.org/1999/xlink">
	<desc>
			Created with Pixso.
	</desc>
	<defs/>
	<path id="Path" d="M35 0L3 0C1.3 0 0 1.29 0 3L0 21C0 22.7 1.4 24 3 24L35 24C36.69 24 38 22.7 38 21L38 3C38 1.29 36.59 0 35 0Z" fill="#FFB3C7" fill-opacity="1.000000" fill-rule="nonzero"/>
	<path id="Path" d="M35 1C36.09 1 37 1.9 37 3L37 21C37 22.1 36.09 23 35 23L3 23C1.9 23 1 22.1 1 21L1 3C1 1.9 1.9 1 3 1L35 1Z" fill="#FFB3C7" fill-opacity="1.000000" fill-rule="nonzero"/>
	<path id="Shape" d="M34.1172 13.184C33.6309 13.184 33.2344 13.584 33.2344 14.076C33.2344 14.569 33.6309 14.969 34.1172 14.969C34.6055 14.969 35 14.569 35 14.076L35 14.0719C35 13.5837 34.6055 13.1868 34.1172 13.184ZM31.2148 12.493C31.2129 11.8174 30.6445 11.271 29.9395 11.271C29.2363 11.271 28.666 11.818 28.666 12.493C28.666 13.168 29.2363 13.716 29.9395 13.716C30.6445 13.716 31.2129 13.1685 31.2148 12.494L31.2148 12.493ZM32.625 10.118L31.2188 10.118L31.2188 10.422C30.8203 10.147 30.3418 9.987 29.8242 9.987C28.457 9.987 27.3477 11.109 27.3477 12.493C27.3477 13.878 28.4551 15 29.8242 15C30.3223 15.0003 30.8086 14.8486 31.2188 14.565L31.2188 14.868L32.625 14.868L32.625 10.118ZM19.9668 10.737L19.9668 10.118L18.5254 10.118L18.5254 14.868L19.9688 14.868L19.9688 12.651C19.9688 11.902 20.7715 11.501 21.3281 11.501L21.3438 11.501L21.3438 10.119C20.7734 10.119 20.248 10.366 19.9668 10.737ZM16.3809 12.493C16.3809 11.818 15.8105 11.271 15.1055 11.271C14.4023 11.271 13.832 11.818 13.832 12.493C13.832 13.168 14.4023 13.716 15.1055 13.716C15.8105 13.716 16.3809 13.168 16.3809 12.493ZM17.791 10.118L16.3848 10.118L16.3848 10.422C15.9863 10.147 15.5078 9.987 14.9902 9.987C13.6211 9.987 12.5117 11.109 12.5117 12.493C12.5117 13.878 13.6211 15 14.9902 15C15.4883 15.0005 15.9746 14.8488 16.3848 14.565L16.3848 14.868L17.791 14.868L17.791 10.118ZM24.8477 9.98999C24.2871 9.98999 23.7559 10.167 23.4004 10.653L23.4004 10.118L22 10.118L22 14.868L23.418 14.868L23.418 12.372C23.418 11.65 23.8965 11.296 24.4727 11.296C25.0898 11.296 25.4453 11.67 25.4453 12.362L25.4453 14.869L26.8496 14.869L26.8496 11.848C26.8496 10.742 25.9805 9.98999 24.8477 9.98999ZM10.4648 14.87L11.9375 14.87L11.9375 8L10.4648 8L10.4648 14.868L10.4648 14.87ZM4 14.87L5.55859 14.87L5.55859 8L4 8L4 14.87ZM9.44922 8.03009L9.44922 8L7.92578 8L7.92578 8.0213C7.92578 9.26422 7.3418 10.4355 6.34961 11.184L5.74414 11.642L8.08594 14.87L10.0117 14.87L7.85742 11.9C8.87695 10.8702 9.44922 9.47925 9.44922 8.03009Z" clip-rule="evenodd" fill="#0A0B09" fill-opacity="1.000000" fill-rule="evenodd"/>
</svg>
