<svg width="38.000000" height="24.000000" viewBox="0 0 38 24" fill="none" xmlns="http://www.w3.org/2000/svg" xmlns:xlink="http://www.w3.org/1999/xlink">
	<desc>
			Created with Pixso.
	</desc>
	<defs/>
	<g opacity="0.070000" style="mix-blend-mode:normal">
		<path id="Path" d="M35 0L3 0C1.3 0 0 1.29 0 3L0 21C0 22.7 1.4 24 3 24L35 24C36.69 24 38 22.7 38 21L38 3C38 1.29 36.59 0 35 0Z" fill="#000000" fill-opacity="1.000000" fill-rule="nonzero"/>
	</g>
	<path id="Path" d="M35 1C36.09 1 37 1.9 37 3L37 21C37 22.1 36.09 23 35 23L3 23C1.9 23 1 22.1 1 21L1 3C1 1.9 1.9 1 3 1L35 1Z" fill="#FFFFFF" fill-opacity="1.000000" fill-rule="nonzero"/>
	<circle id="Oval" cx="15.000000" cy="12.000000" r="7.000000" fill="#EB001B" fill-opacity="1.000000"/>
	<circle id="Oval" cx="23.000000" cy="12.000000" r="7.000000" fill="#F79E1B" fill-opacity="1.000000"/>
	<path id="Path" d="M22 12C22 9.6 20.8 7.5 19 6.3C17.19 7.6 16 9.7 16 12C16 14.3 17.19 16.5 19 17.7C20.8 16.5 22 14.4 22 12Z" fill="#FF5F00" fill-opacity="1.000000" fill-rule="nonzero"/>
</svg>
