<svg width="38.000000" height="24.000000" viewBox="0 0 38 24" fill="none" xmlns="http://www.w3.org/2000/svg" xmlns:xlink="http://www.w3.org/1999/xlink">
	<desc>
			Created with Pixso.
	</desc>
	<defs/>
	<g opacity="0.070000" style="mix-blend-mode:normal">
		<path id="Path" d="M35 0L3 0C1.3 0 0 1.29 0 3L0 21C0 22.7 1.4 24 3 24L35 24C36.69 24 38 22.7 38 21L38 3C38 1.29 36.59 0 35 0Z" fill="#000000" fill-opacity="1.000000" fill-rule="nonzero"/>
	</g>
	<path id="Path" d="M35 1C36.09 1 37 1.9 37 3L37 21C37 22.1 36.09 23 35 23L3 23C1.9 23 1 22.1 1 21L1 3C1 1.9 1.9 1 3 1L35 1Z" fill="#5A31F4" fill-opacity="1.000000" fill-rule="nonzero"/>
	<path id="Shape" d="M4.88867 7.82703C5.88867 6.90015 7.20703 6.38983 8.57031 6.40002C11.6562 6.40002 13.3223 8.79303 13.3223 11.04C13.3223 13.571 11.5039 15.423 8.98633 15.4551L8.95703 15.4551C6.83594 15.4431 5.18164 13.926 5.18164 11.991C5.18164 11.4819 5.29688 10.9796 5.51758 10.5211C5.74023 10.0615 6.0625 9.65741 6.46094 9.33807C6.50977 9.29633 6.57227 9.27631 6.63672 9.28271C6.70117 9.28918 6.75977 9.32141 6.79883 9.37207L7.44922 10.1871C7.5293 10.2858 7.51367 10.4305 7.41602 10.511C6.9668 10.8716 6.70508 11.4154 6.70312 11.991C6.70312 13.1151 7.67773 13.965 8.96875 13.965C10.6406 13.9421 11.8047 12.7441 11.8047 11.0441C11.8047 9.47803 10.6973 7.89404 8.57617 7.89404C7.55273 7.8822 6.56641 8.2821 5.83984 9.00403C5.79102 9.05438 5.7207 9.08044 5.65234 9.07501C5.58203 9.06958 5.51758 9.03333 5.47656 8.97607L4.85938 8.13702C4.78711 8.04175 4.79883 7.90735 4.88867 7.82703ZM21.3828 9.71307L21.3828 9.71405C21.3828 11.3815 20.2051 12.571 18.5625 12.571L17.0137 12.571C16.9609 12.5718 16.9141 12.6031 16.8926 12.6511C16.8867 12.6666 16.8828 12.6832 16.8828 12.7001L16.8828 14.892C16.8828 14.9265 16.8691 14.9594 16.8457 14.9836C16.8203 15.0079 16.7871 15.0213 16.7539 15.0211L15.6699 15.0211C15.5977 15.0211 15.5391 14.9628 15.5391 14.8911L15.5391 6.98602C15.5391 6.93335 15.5703 6.88556 15.6191 6.86603C15.6348 6.85944 15.6523 6.85602 15.6699 6.85608L18.5684 6.85608C20.2051 6.85608 21.3828 8.04559 21.3828 9.71307ZM18.4805 8.05505C19.373 8.05505 20.0312 8.75507 20.0312 9.71307C20.0312 10.67 19.373 11.3701 18.4805 11.3651L17.0137 11.3651C16.9785 11.3652 16.9453 11.3515 16.9219 11.327C16.8965 11.3029 16.8828 11.2696 16.8828 11.235L16.8828 8.18506C16.8828 8.15057 16.8965 8.11749 16.9219 8.09314C16.9453 8.06873 16.9785 8.05505 17.0137 8.05505L18.4805 8.05505ZM21.7051 13.504C21.6816 12.9834 21.9258 12.4869 22.3516 12.1871C22.7754 11.871 23.4355 11.707 24.4062 11.673L25.4395 11.637L25.4395 11.334C25.4395 10.7271 25.0293 10.4711 24.373 10.4711C23.7148 10.4711 23.2969 10.702 23.2012 11.0811C23.1855 11.1358 23.1348 11.1726 23.0762 11.1711L22.0547 11.1711C21.998 11.1718 21.9453 11.1343 21.9297 11.079C21.9238 11.0612 21.9219 11.0425 21.9258 11.024C22.0762 10.126 22.8281 9.44403 24.4199 9.44403C26.1113 9.44403 26.7227 10.2271 26.7227 11.72L26.7227 14.892C26.7227 14.9267 26.707 14.9598 26.6836 14.9841C26.6582 15.0082 26.625 15.0216 26.5898 15.0211L25.5605 15.0211C25.4883 15.0211 25.4297 14.9628 25.4297 14.8911L25.4297 14.655C25.4316 14.6149 25.4062 14.5787 25.3691 14.564C25.332 14.5496 25.291 14.5582 25.2617 14.5861C24.9512 14.92 24.4531 15.1611 23.6543 15.1611C22.4805 15.1611 21.7051 14.5541 21.7051 13.504ZM27.7559 17.4171L27.7559 16.498C27.7559 16.459 27.7754 16.4224 27.8047 16.3981C27.8359 16.3736 27.875 16.3637 27.9121 16.371C28.0703 16.4 28.2305 16.415 28.3926 16.415C28.959 16.4462 29.4746 16.0839 29.6367 15.5391L29.7031 15.3281C29.7148 15.2996 29.7148 15.2686 29.7031 15.2401L27.5586 9.76904C27.5332 9.70679 27.5586 9.63519 27.6191 9.60406C27.6387 9.59399 27.6602 9.58881 27.6816 9.58905L28.7207 9.58905C28.7754 9.58917 28.8242 9.62299 28.8438 9.67407L30.3008 13.5331C30.3184 13.5862 30.3691 13.6216 30.4258 13.621C30.4805 13.621 30.5312 13.5858 30.5508 13.5331L31.8145 9.68506C31.832 9.63055 31.8848 9.59406 31.9414 9.59503L33.0176 9.59503C33.084 9.59546 33.1406 9.6449 33.1484 9.71106C33.1523 9.73236 33.1484 9.75397 33.1406 9.77405L30.8457 15.85C30.3184 17.2631 29.4121 17.623 28.416 17.623C28.2266 17.6283 28.0371 17.606 27.8555 17.5571C27.791 17.5415 27.75 17.482 27.7559 17.4171L27.7559 17.4171ZM25.4395 12.571L25.4395 12.8171C25.4395 13.6671 24.9121 14.147 24.0195 14.147C23.3613 14.147 22.9863 13.9011 22.9863 13.457C22.9863 12.967 23.3965 12.6771 24.1016 12.6411L25.4395 12.571Z" clip-rule="evenodd" fill="#FFFFFF" fill-opacity="1.000000" fill-rule="evenodd"/>
</svg>
