<svg width="38.000000" height="24.000000" viewBox="0 0 38 24" fill="none" xmlns="http://www.w3.org/2000/svg" xmlns:xlink="http://www.w3.org/1999/xlink">
	<desc>
			Created with Pixso.
	</desc>
	<defs/>
	<g opacity="0.070000" style="mix-blend-mode:normal">
		<path id="Path" d="M35 0L3 0C1.3 0 0 1.29 0 3L0 21C0 22.7 1.4 24 3 24L35 24C36.69 24 38 22.7 38 21L38 3C38 1.29 36.59 0 35 0Z" fill="#000000" fill-opacity="1.000000" fill-rule="nonzero"/>
	</g>
	<path id="Path" d="M35 1C36.09 1 37 1.9 37 3L37 21C37 22.1 36.09 23 35 23L3 23C1.9 23 1 22.1 1 21L1 3C1 1.9 1.9 1 3 1L35 1Z" fill="#FFFFFF" fill-opacity="1.000000" fill-rule="nonzero"/>
	<path id="Path" d="M23.9 8.29C24.09 7.29 23.9 6.59 23.3 6C22.69 5.29 21.59 5 20.19 5L16.09 5C15.8 5 15.59 5.2 15.5 5.5L14 15.6C14 15.8 14.09 16 14.3 16L17 16L17.4 12.6L19.19 10.4L23.9 8.29Z" fill="#003087" fill-opacity="1.000000" fill-rule="nonzero"/>
	<path id="Path" d="M23.9 8.3L23.69 8.5C23.19 11.3 21.5 12.3 19.09 12.3L18 12.3C17.69 12.3 17.5 12.5 17.4 12.8L16.79 16.7L16.59 17.7C16.59 17.9 16.69 18.1 16.9 18.1L19 18.1C19.29 18.1 19.5 17.9 19.5 17.7L19.5 17.6L19.9 15.2L19.9 15.1C19.9 14.9 20.19 14.7 20.4 14.7L20.69 14.7C22.79 14.7 24.4 13.9 24.79 11.5C25 10.5 24.9 9.7 24.4 9.1C24.29 8.6 24.09 8.4 23.9 8.3L23.9 8.3Z" fill="#3086C8" fill-opacity="1.000000" fill-rule="nonzero"/>
	<path id="Path" d="M23.3 8.1C23.2 8 23.09 8 23 8C22.9 8 22.8 8 22.7 7.9C22.4 7.8 22 7.8 21.59 7.8L18.59 7.8C18.5 7.8 18.4 7.8 18.4 7.9C18.2 8 18.09 8.1 18.09 8.3L17.4 12.7L17.4 12.8C17.4 12.5 17.7 12.3 18 12.3L19.3 12.3C21.8 12.3 23.4 11.3 23.9 8.5L23.9 8.3C23.8 8.2 23.59 8.1 23.4 8.1L23.3 8.1Z" fill="#012169" fill-opacity="1.000000" fill-rule="nonzero"/>
</svg>
