<svg width="38.000000" height="24.000000" viewBox="0 0 38 24" fill="none" xmlns="http://www.w3.org/2000/svg" xmlns:xlink="http://www.w3.org/1999/xlink">
	<desc>
			Created with Pixso.
	</desc>
	<defs/>
	<g opacity="0.070000" style="mix-blend-mode:normal">
		<path id="Path" d="M35 0L3 0C1.3 0 0 1.29 0 3L0 21C0 22.7 1.4 24 3 24L35 24C36.69 24 38 22.7 38 21L38 3C38 1.29 36.59 0 35 0Z" fill="#000000" fill-opacity="1.000000" fill-rule="nonzero"/>
	</g>
	<path id="Path" d="M35 1C36.09 1 37 1.9 37 3L37 21C37 22.1 36.09 23 35 23L3 23C1.9 23 1 22.1 1 21L1 3C1 1.9 1.9 1 3 1L35 1Z" fill="#FFFFFF" fill-opacity="1.000000" fill-rule="nonzero"/>
	<path id="Shape" d="M5.30078 8C5.19922 8 5 8.09998 5 8.20001L5.09961 8.40002C5.30078 8.40002 6.40039 8.59998 7 8.90002C7.40039 9 7.69922 9.29999 7.90039 9.5L9.5 15.7C9.5 15.9 9.59961 15.9 9.69922 15.9L11.1992 15.9C11.2715 15.9 11.3418 15.9125 11.4082 15.9243C11.5293 15.9457 11.6348 15.9646 11.6992 15.9C11.8008 15.8 11.8008 15.7 11.9004 15.5L15 8.20001C15.0996 8.09998 15.0996 8.09998 15.0996 8L13 8C12.9004 8 12.8008 8.09998 12.9004 8.20001L10.8008 13.3C10.8008 13.3 10.6992 13.3 10.6992 13.4C10.5996 13.3 10.5996 13.3 10.5996 13.2L9.69922 8.79999C9.59961 8.29999 9.19922 8 8.69922 8L5.30078 8ZM14.3008 16C14.4004 15.3 14.4004 15.3 14.5 15C15 12.8 15.5 10.5 15.9004 8.29999C16 8.09998 16 8 16.1992 8L18 8C17.8008 9.20001 17.5996 10.1 17.3008 11.2C17 12.7 16.6992 14.2 16.3008 15.7C16.3008 15.9 16.1992 15.9 16 15.9L14.3008 16ZM18.1992 13.9L17.8008 15.7C17.8438 15.7432 17.8672 15.7676 17.8887 15.7656C17.918 15.7628 17.9434 15.7137 18 15.6C18.7129 15.8374 19.5488 15.8243 20.5625 15.8085C20.8281 15.8044 21.1074 15.8 21.4004 15.8C22.0996 15.8 22.3008 15.6 22.8008 15.2C23.5996 14.6 23.9004 13.8 23.6992 12.9C23.5996 12.3 23.0996 11.8 22.5996 11.5C22.3008 11.3 21.9004 11.1 21.5 10.9L21 10.5C20.8008 10.3 20.8008 10 21 9.79999C21.0996 9.70001 21.1992 9.59998 21.4004 9.59998C21.6992 9.5 22 9.5 22.3008 9.5C22.8008 9.5 23.3008 9.70001 23.8008 9.90002C24 9.29999 24.0996 8.79999 24.1992 8.20001L24.0996 8.20001C23.5 8 22.1992 8 21 8C20.1992 8 19.9004 8.40002 19.3008 8.79999C18.5996 9.5 18.1992 10.9 19.4004 11.9C19.6992 12.2 20.0996 12.4 20.5 12.6C20.8008 12.8 21.0996 12.9 21.3008 13.1C21.6992 13.5 21.6992 14 21.1992 14.2C21 14.3 20.6992 14.4 20.5 14.4C19.8008 14.5 19.0996 14.3 18.4004 14C18.4004 14 18.3008 13.9 18.1992 13.9ZM31.1992 16L29.5 16C29.4004 16 29.4004 16 29.3008 15.9L29.0996 15L29 14.8L26.5996 14.8C26.5 14.8 26.4004 14.8 26.4004 15L26.0996 15.9C26.0996 16 26 16 26 16L23.9004 16L24.0996 15.5L27 8.70001C27 8.20001 27.3008 8 27.8008 8L29.3008 8C29.4004 8 29.5 8 29.5 8.20001L30.9004 14.7C31 15.1 31.0996 15.4 31.0996 15.8C31.1992 15.9 31.1992 15.9 31.1992 16ZM28 10.1L28.3008 10.1C28.5996 10.9 28.5996 11.6 28.9004 13.1L27 13.1C27.3008 11.6 27.5996 11.1 28 10.1Z" clip-rule="evenodd" fill="#142688" fill-opacity="1.000000" fill-rule="evenodd"/>
</svg>
